<?xml version="1.0" encoding="utf-8" ?>	<!-- Generator: Assembly 1.8 - http://assemblyapp.co -->	<svg version="1.1" xmlns="http://www.w3.org/2000/svg" xmlns:xlink="http://www.w3.org/1999/xlink" width="2048.00" height="2048.00" viewBox="0 0 2048.0 2048.0">		<g id="document" transform="matrix(1,0,0,1,1024.0,1024.0)">			<g>				<path d="M-506.081,384.352 L-616.665,575.89 C-642.89,621.311 -627.393,679.146 -581.971,705.37 C-536.549,731.595 -478.715,716.098 -452.49,670.676 L-341.906,479.138 L-396.631,447.543 L-507.215,639.081 C-515.904,654.13 -535.326,659.334 -550.376,650.645 C-565.425,641.957 -570.629,622.534 -561.94,607.485 L-451.356,415.947 L-506.081,384.352 Z " fill="#8a8a8a" fill-opacity="1.00" />				<path d="M506.081,380.204 L616.665,571.741 C642.89,617.163 627.393,674.998 581.971,701.222 C536.549,727.447 478.715,711.95 452.49,666.528 L341.906,474.99 L396.631,443.395 L507.215,634.933 C515.904,649.982 535.326,655.186 550.376,646.497 C565.425,637.809 570.629,618.386 561.94,603.337 L451.356,411.799 L506.081,380.204 Z " fill="#8a8a8a" fill-opacity="1.00" />				<path d="M197.088,753.951 C372.743,753.951 515.595,577.699 515.595,360.975 L515.595,-140.362 C515.595,-357.086 372.743,-533.337 197.088,-533.337 L-209.248,-533.337 C-384.903,-533.337 -527.756,-357.086 -527.756,-140.362 L-527.756,360.975 C-527.756,577.699 -384.903,753.951 -209.248,753.951 L197.088,753.951 Z " fill="#4d4d4d" fill-opacity="1.00" />				<path d="M129.444,689.242 C246.616,689.242 341.906,632.597 341.906,562.944 L341.906,401.82 C341.906,332.168 246.616,275.522 129.444,275.522 L-141.604,275.522 C-258.776,275.522 -354.066,332.168 -354.066,401.82 L-354.066,562.944 C-354.066,632.597 -258.776,689.242 -141.604,689.242 L129.444,689.242 Z " fill="#343838" fill-opacity="1.00" />				<path d="M211.197,-587.063 L211.197,-340.111 L276.876,-340.111 L276.876,-587.063 C276.876,-679.185 194.16,-753.951 -1.75709,-753.951 C-197.674,-753.951 -279.448,-679.185 -279.448,-587.063 L-279.448,-340.111 L-214.711,-340.111 L-214.711,-587.063 C-214.711,-642.47 -119.591,-699.44 -1.7571,-699.44 C116.077,-699.44 211.197,-642.47 211.197,-587.063 Z " fill="#8a8a8a" fill-opacity="1.00" />				<path d="M-1.28618,-68.9142 C56.1408,-68.9142 102.629,-115.403 102.629,-172.83 C102.629,-230.257 56.1408,-276.745 -1.28617,-276.745 C-58.7132,-276.745 -105.202,-230.257 -105.202,-172.83 C-105.202,-115.403 -58.7132,-68.9142 -1.28618,-68.9142 Z " fill="#ecf1f2" fill-opacity="1.00" stroke-width="10.40" stroke="#a63131" stroke-dasharray="20.806061,41.612122" stroke-dashoffset="-10.4030" stroke-linecap="square" stroke-linejoin="miter" />			</g>		</g>	</svg>