<?xml version="1.0" encoding="utf-8" ?>	<!-- Generator: Assembly 1.8 - http://assemblyapp.co -->	<svg version="1.1" xmlns="http://www.w3.org/2000/svg" xmlns:xlink="http://www.w3.org/1999/xlink" width="1536.00" height="2048.00" viewBox="0 0 1536.0 2048.0">		<g id="document" transform="matrix(1,0,0,1,768.0,1024.0)">			<g>				<path d="M314.081,-28.6535 L310.175,-35.4186 L326.352,-44.7586 L319.56,-56.524 L303.382,-47.184 L299.476,-53.9491 L315.654,-63.2892 L308.861,-75.0546 L292.684,-65.7145 L288.778,-72.4796 L304.955,-81.8197 L238.046,-197.709 L195.397,-173.085 L313.081,30.7505 C302.596,41.1184 300.395,57.6842 308.036,70.9203 L319.414,90.6273 L326.179,86.7215 C331.768,83.4949 333.633,76.5356 330.406,70.947 L325.991,63.2995 C324.293,60.3582 325.287,56.6466 328.229,54.9484 L343.852,82.0088 L329.439,90.3299 C323.851,93.5565 321.986,100.516 325.213,106.104 L329.118,112.869 L357.355,96.5668 C358.884,99.2141 358.014,102.462 355.366,103.99 L338.895,113.5 C333.306,116.727 331.441,123.686 334.668,129.274 L338.574,136.04 L366.517,119.907 C389.459,106.661 397.585,77.2619 384.17,54.0252 L330.677,-38.6273 L313.911,-28.9476 L314.081,-28.6535 Z " fill="#f1d4af" fill-opacity="1.00" />				<path d="M-293.637,-18.8999 L-289.732,-25.665 L-305.909,-35.0051 L-299.116,-46.7705 L-282.939,-37.4304 L-279.033,-44.1955 L-295.21,-53.5356 L-288.418,-65.301 L-272.24,-55.9609 L-268.334,-62.726 L-284.512,-72.0661 L-217.603,-187.955 L-174.954,-163.332 L-292.638,40.5041 C-282.152,50.8719 -279.951,67.4378 -287.593,80.6739 L-298.971,100.381 L-305.736,96.4751 C-311.325,93.2485 -313.189,86.2892 -309.963,80.7006 L-305.548,73.0531 C-303.849,70.1118 -304.844,66.4001 -307.785,64.702 L-323.409,91.7624 L-308.996,100.084 C-303.407,103.31 -301.543,110.269 -304.769,115.858 L-308.675,122.623 L-336.912,106.32 C-338.44,108.968 -337.57,112.215 -334.923,113.744 L-318.451,123.254 C-312.863,126.48 -310.998,133.439 -314.225,139.028 L-318.131,145.793 L-346.073,129.66 C-369.016,116.414 -377.142,87.0155 -363.726,63.7788 L-310.233,-28.8737 L-293.468,-19.194 L-293.637,-18.8999 Z " fill="#f1d4af" fill-opacity="1.00" />				<path d="M96.4727,436.596 C86.2274,436.596 77.862,455.119 77.862,477.805 L77.862,601.223 C77.862,623.909 86.2274,642.432 96.4727,642.432 C106.718,642.432 115.083,623.909 115.083,601.223 L115.083,477.805 C115.083,455.119 106.718,436.596 96.4727,436.596 Z " fill="#f1d4af" fill-opacity="1.00" />				<path d="M16.9524,856.299 C162.71,856.299 280.869,800.214 280.869,731.03 C280.869,661.846 162.71,605.761 16.9524,605.761 C-128.805,605.761 -246.964,661.846 -246.964,731.03 C-246.964,800.214 -128.805,856.299 16.9524,856.299 Z " fill="#bebebe" fill-opacity="1.00" />				<path d="M-63.9764,436.596 C-74.2217,436.596 -82.5871,455.119 -82.5871,477.805 L-82.5871,601.223 C-82.5871,623.909 -74.2217,642.432 -63.9764,642.432 C-53.7311,642.432 -45.3656,623.909 -45.3656,601.223 L-45.3656,477.805 C-45.3656,455.119 -53.731,436.596 -63.9764,436.596 Z " fill="#f1d4af" fill-opacity="1.00" />				<g>					<path d="M37.8884,-34.1497 L-12.8598,-34.1497 L-114.946,-34.1497 L-114.946,77.7868 L-114.946,522.748 L-12.8598,522.748 L-12.8598,101.733 C-12.8598,88.3678 -1.64798,77.7868 12.5143,77.7868 C26.6766,77.7868 37.8884,88.3678 37.8884,101.733 L37.8884,522.748 L139.975,522.748 L139.975,77.7868 L139.975,-34.1497 L37.8884,-34.1497 Z " fill="#345b7d" fill-opacity="1.00" />					<path d="M30.3301,511.769 C30.3301,521.97 30.6071,530.3 46.2465,530.3 L131.331,530.3 C146.97,530.3 148.177,521.97 148.177,511.769 C148.177,501.567 146.97,493.237 131.331,493.237 L46.2465,493.237 C30.6071,493.237 30.3301,501.567 30.3301,511.769 Z " fill="#bed2d9" fill-opacity="1.00" />					<path d="M-122.9,511.769 C-122.9,521.97 -122.623,530.3 -106.983,530.3 L-21.8992,530.3 C-6.25982,530.3 -5.05302,521.97 -5.05302,511.769 C-5.05302,501.567 -6.25982,493.237 -21.8992,493.237 L-106.983,493.237 C-122.623,493.237 -122.9,501.567 -122.9,511.769 Z " fill="#bed2d9" fill-opacity="1.00" />				</g>				<g>					<g>						<g>							<path d="M16.6744,-894.453 C-83.4374,-894.453 -165.01,-812.88 -165.01,-712.768 L-165.01,-458.163 C-165.01,-357.433 -82.8194,-276.479 16.6744,-276.479 C116.168,-276.479 198.359,-358.051 198.359,-458.163 L198.359,-712.768 C198.977,-812.88 116.786,-894.453 16.6744,-894.453 Z " fill="#000000" fill-opacity="1.00" />							<path d="M167.58,-612.528 L167.58,-720.778 C167.58,-747.067 146.316,-767.944 120.414,-767.944 L-84.101,-767.944 C-110.39,-767.944 -131.267,-746.681 -131.267,-720.778 L-131.267,-612.528 C-155.623,-612.528 -174.954,-592.811 -174.954,-568.842 C-174.954,-544.486 -155.237,-525.155 -131.267,-525.155 L-131.267,-523.222 C-131.267,-456.726 -77.5287,-402.988 -11.0324,-402.988 L47.7318,-402.988 C114.228,-402.988 167.966,-456.726 167.966,-523.222 L167.966,-525.155 C192.323,-525.155 211.653,-544.872 211.653,-568.842 C211.266,-592.811 191.549,-612.528 167.58,-612.528 Z " fill="#f1d4af" fill-opacity="1.00" />							<path d="M-50.8529,-699.791 L-31.5225,-650.958 L211.653,-650.958 C211.653,-742.112 159.074,-815.36 94.5111,-815.36 L-57.8118,-815.36 C-122.762,-815.36 -174.954,-741.569 -174.954,-650.416 L-71.7296,-650.416 L-50.8529,-699.791 Z " fill="#000000" fill-opacity="1.00" />						</g>						<path d="M-12.1921,-405.198 L-12.1921,-352.752 C-12.1921,-323.769 1.89156,-300.306 19.289,-300.306 C36.6864,-300.306 50.77,-323.769 50.77,-352.752 L50.77,-405.198 L-12.1921,-405.198 L-12.1921,-405.198 Z " fill="#f1d4af" fill-opacity="1.00" />					</g>					<path d="M152.788,-542.975 C152.788,-525.851 166.972,-511.667 184.269,-511.667 L184.269,-621.505 C184.269,-656.099 155.729,-684.467 121.307,-684.467 L121.307,-542.975 C121.307,-525.678 135.491,-511.494 152.788,-511.494 L152.788,-542.975 Z " fill="#000000" fill-opacity="1.00" />					<path d="M-119.444,-542.975 C-119.444,-525.851 -133.627,-511.667 -150.925,-511.667 L-150.925,-621.505 C-150.925,-656.099 -122.384,-684.467 -87.9625,-684.467 L-87.9625,-542.975 C-87.9625,-525.678 -102.146,-511.494 -119.444,-511.494 L-119.444,-542.975 Z " fill="#000000" fill-opacity="1.00" />				</g>				<g>					<path d="M376.714,-9.13417 L215.365,-309.752 C198.381,-341.173 166.111,-359.855 131.294,-359.855 L-104.785,-359.855 C-141.301,-359.855 -174.42,-339.475 -190.555,-307.205 L-340.014,-9.13418 L-247.451,-9.13418 L-139.602,-210.396 C-131.959,-224.832 -109.88,-219.737 -109.88,-202.753 L-125.113,15.9299 L149.448,15.9299 L135.54,-200.205 C135.54,-217.189 157.619,-222.284 165.262,-207.848 L272.262,-8.28497 L376.714,-8.28497 L376.714,-9.13417 Z " fill="#231728" fill-opacity="1.00" />					<path d="M56.3797,-329.07 L71.499,-359.855 L27.6741,-359.855 L56.3797,-329.07 Z " fill="#97aec3" fill-opacity="1.00" />					<path d="M-19.8289,-329.433 L-34.9482,-360.218 L8.87673,-360.218 L-19.8289,-329.433 Z " fill="#97aec3" fill-opacity="1.00" />					<path d="M-343.794,6.12379 L-263.977,29.8153 L-239.155,-17.1292 L-338.984,-46.7606 L-343.794,6.12379 Z " fill="#97aec3" fill-opacity="1.00" />					<path d="M284.577,19.166 L377.699,-8.0662 L374.795,-61.3282 L258.325,-27.2683 L284.577,19.166 Z " fill="#97aec3" fill-opacity="1.00" />				</g>				<path d="M211.653,728.919 C211.653,704.517 191.786,684.65 167.384,684.65 L130.025,684.65 L130.025,585.531 L135.856,585.531 C138.231,585.531 140.175,583.587 140.175,581.212 L140.175,560.265 C140.175,557.89 138.231,555.946 135.856,555.946 L53.1485,555.946 C50.7731,555.946 48.8296,557.89 48.8296,560.265 L48.8296,580.996 C48.8296,583.371 50.7731,585.315 53.1485,585.315 L58.9791,585.315 L58.9791,728.703 L211.653,728.703 L211.653,728.919 Z " fill="#000000" fill-opacity="1.00" />				<path d="M-180.508,728.919 C-180.508,704.517 -160.641,684.65 -136.239,684.65 L-98.8809,684.65 L-98.8809,585.531 L-104.711,585.531 C-107.087,585.531 -109.03,583.587 -109.03,581.212 L-109.03,560.265 C-109.03,557.89 -107.087,555.946 -104.711,555.946 L-22.0041,555.946 C-19.6287,555.946 -17.6852,557.89 -17.6852,560.265 L-17.6852,580.996 C-17.6852,583.371 -19.6287,585.315 -22.0041,585.315 L-27.8346,585.315 L-27.8346,728.703 L-180.508,728.703 L-180.508,728.919 Z " fill="#000000" fill-opacity="1.00" />			</g>		</g>	</svg>