<?xml version="1.0" encoding="utf-8" ?>	<!-- Generator: Assembly 1.8 - http://assemblyapp.co -->	<svg version="1.1" xmlns="http://www.w3.org/2000/svg" xmlns:xlink="http://www.w3.org/1999/xlink" width="1536.00" height="2048.00" viewBox="0 0 1536.0 2048.0">		<rect x="0" y="0" width="1536.00" height="2048.00" fill="#ffffff" />		<g id="document" transform="matrix(1,0,0,1,768.0,1024.0)">			<g>				<path d="M1600.7,-417.756 C1600.7,-493.003 1599.21,-502.796 1594.24,-502.796 L1578.19,-502.796 C1573.23,-502.796 1571.21,-493.003 1571.21,-417.756 L1571.21,-140.162 C1571.21,-64.9141 1573.23,-55.8448 1578.19,-55.8448 L1594.24,-55.8448 C1599.21,-55.8448 1600.7,-64.9141 1600.7,-140.162 L1600.7,-417.756 Z " fill="#bebebe" fill-opacity="1.00" />				<path d="M1600.7,-377.676 C1600.7,-431.139 1599.21,-438.097 1594.24,-438.097 L1578.19,-438.097 C1573.23,-438.097 1571.21,-431.139 1571.21,-377.676 L1571.21,-180.45 C1571.21,-126.988 1573.23,-120.544 1578.19,-120.544 L1594.24,-120.544 C1599.21,-120.544 1600.7,-126.988 1600.7,-180.45 L1600.7,-377.676 Z " fill="#4d4d4d" fill-opacity="1.00" />			</g>			<path d="M32.9761,13.8053 C86.6488,13.8053 130.298,-40.0495 130.298,-106.271 L130.298,-259.458 C130.298,-325.679 86.6488,-379.534 32.9761,-379.534 L-91.1824,-379.534 C-144.855,-379.534 -188.505,-325.679 -188.505,-259.458 L-188.505,-106.271 C-188.505,-40.0495 -144.855,13.8053 -91.1824,13.8053 L32.9761,13.8053 Z " fill="#4d4d4d" fill-opacity="1.00" />			<g>				<path d="M283.846,-16.9463 L279.766,-24.0139 L296.667,-33.7717 L289.57,-46.0633 L272.669,-36.3055 L268.589,-43.3732 L285.49,-53.131 L278.393,-65.4226 L261.492,-55.6648 L257.412,-62.7325 L274.313,-72.4902 L204.412,-193.562 L159.854,-167.837 L282.802,45.1145 C271.848,55.946 269.548,73.2528 277.532,87.0808 L289.419,107.669 L296.486,103.589 C302.325,100.218 304.273,92.9473 300.902,87.1088 L296.289,79.1193 C294.515,76.0464 295.554,72.1687 298.627,70.3946 L314.949,98.6653 L299.892,107.359 C294.053,110.729 292.105,118 295.476,123.838 L299.557,130.906 L329.056,113.874 C330.653,116.64 329.744,120.033 326.978,121.63 L309.77,131.565 C303.932,134.936 301.984,142.206 305.354,148.045 L309.435,155.112 L338.627,138.258 C362.596,124.42 371.086,93.7061 357.07,69.4302 L301.184,-27.3661 L283.669,-17.2536 L283.846,-16.9463 Z " fill="#f1d4af" fill-opacity="1.00" />				<path d="M-351.051,-6.75646 L-346.971,-13.8241 L-363.872,-23.5819 L-356.775,-35.8735 L-339.874,-26.1157 L-335.794,-33.1834 L-352.695,-42.9412 L-345.598,-55.2328 L-328.697,-45.475 L-324.617,-52.5427 L-341.517,-62.3004 L-271.616,-183.373 L-227.059,-157.648 L-350.007,55.3043 C-339.053,66.1359 -336.753,83.4426 -344.737,97.2706 L-356.623,117.859 L-363.691,113.779 C-369.53,110.408 -371.478,103.137 -368.107,97.2986 L-363.494,89.3091 C-361.72,86.2362 -362.759,82.3585 -365.832,80.5844 L-382.154,108.855 L-367.097,117.548 C-361.258,120.919 -359.31,128.19 -362.681,134.028 L-366.761,141.096 L-396.261,124.064 C-397.858,126.83 -396.949,130.223 -394.183,131.819 L-376.975,141.755 C-371.137,145.126 -369.188,152.396 -372.559,158.235 L-376.64,165.302 L-405.832,148.448 C-429.801,134.61 -438.29,103.896 -424.275,79.62 L-368.389,-17.1763 L-350.874,-7.06375 L-351.051,-6.75646 Z " fill="#f1d4af" fill-opacity="1.00" />				<path d="M56.5061,469.11 C45.8026,469.11 37.063,488.462 37.063,512.163 L37.063,641.101 C37.063,664.802 45.8026,684.153 56.5061,684.153 C67.2096,684.153 75.9492,664.802 75.9492,641.101 L75.9492,512.163 C75.9492,488.462 67.2096,469.11 56.5061,469.11 Z " fill="#f1d4af" fill-opacity="1.00" />				<path d="M-26.5707,907.585 C125.705,907.585 249.149,848.992 249.149,776.713 C249.149,704.435 125.705,645.842 -26.5707,645.842 C-178.847,645.842 -302.291,704.435 -302.291,776.713 C-302.291,848.992 -178.847,907.585 -26.5707,907.585 Z " fill="#bebebe" fill-opacity="1.00" />				<path d="M-111.119,469.11 C-121.822,469.11 -130.562,488.462 -130.562,512.163 L-130.562,641.101 C-130.562,664.802 -121.822,684.153 -111.119,684.153 C-100.415,684.153 -91.6758,664.802 -91.6758,641.101 L-91.6758,512.163 C-91.6758,488.462 -100.415,469.11 -111.119,469.11 Z " fill="#f1d4af" fill-opacity="1.00" />				<g>					<path d="M-4.69831,-22.6883 L-57.7162,-22.6883 L-164.368,-22.6883 L-164.368,94.2544 L-164.368,559.116 L-57.7162,559.116 L-57.7162,119.272 C-57.7162,105.309 -46.0029,94.2544 -31.2073,94.2544 C-16.4116,94.2544 -4.69831,105.309 -4.69831,119.272 L-4.69831,559.116 L101.954,559.116 L101.954,94.2544 L101.954,-22.6882 L-4.69831,-22.6883 Z " fill="#345b7d" fill-opacity="1.00" />					<path d="M-12.5947,547.646 C-12.5947,558.304 -12.3053,567.006 4.03356,567.006 L92.9229,567.006 C109.262,567.006 110.523,558.304 110.523,547.646 C110.523,536.988 109.262,528.285 92.9229,528.285 L4.03356,528.285 C-12.3053,528.285 -12.5947,536.988 -12.5947,547.646 Z " fill="#bed2d9" fill-opacity="1.00" />					<path d="M-172.677,547.646 C-172.677,558.304 -172.388,567.006 -156.049,567.006 L-67.1599,567.006 C-50.821,567.006 -49.5603,558.304 -49.5603,547.646 C-49.5603,536.988 -50.821,528.285 -67.1599,528.285 L-156.049,528.285 C-172.388,528.285 -172.677,536.988 -172.677,547.646 Z " fill="#bed2d9" fill-opacity="1.00" />				</g>				<g>					<g>						<g>							<path d="M-26.8611,-921.467 C-131.45,-921.467 -216.671,-836.247 -216.671,-731.657 L-216.671,-465.665 C-216.671,-360.43 -130.805,-275.855 -26.8611,-275.855 C77.0825,-275.855 162.949,-361.076 162.949,-465.665 L162.949,-731.657 C163.595,-836.247 77.7281,-921.467 -26.8611,-921.467 Z " fill="#000000" fill-opacity="1.00" />							<path d="M130.793,-626.934 L130.793,-740.025 C130.793,-767.49 108.579,-789.301 81.5179,-789.301 L-132.144,-789.301 C-159.609,-789.301 -181.419,-767.086 -181.419,-740.025 L-181.419,-626.934 C-206.864,-626.934 -227.059,-606.335 -227.059,-581.294 C-227.059,-555.848 -206.461,-535.653 -181.419,-535.653 L-181.419,-533.634 C-181.419,-464.164 -125.277,-408.022 -55.8071,-408.022 L5.58525,-408.022 C75.0555,-408.022 131.197,-464.164 131.197,-533.634 L131.197,-535.653 C156.643,-535.653 176.838,-556.252 176.838,-581.294 C176.434,-606.335 155.835,-626.934 130.793,-626.934 Z " fill="#f1d4af" fill-opacity="1.00" />							<path d="M-97.4084,-718.099 L-77.2136,-667.083 L176.838,-667.083 C176.838,-762.313 121.908,-838.837 54.4568,-838.837 L-104.679,-838.837 C-172.533,-838.837 -227.059,-761.746 -227.059,-666.516 L-119.219,-666.516 L-97.4084,-718.099 Z " fill="#000000" fill-opacity="1.00" />						</g>						<path d="M-57.0186,-410.332 L-57.0186,-355.54 C-57.0186,-325.261 -42.3051,-300.749 -24.1296,-300.749 C-5.95413,-300.749 8.75937,-325.261 8.75937,-355.54 L8.75937,-410.332 L-57.0186,-410.332 L-57.0186,-410.332 Z " fill="#f1d4af" fill-opacity="1.00" />					</g>					<path d="M115.34,-554.27 C115.34,-536.38 130.159,-521.562 148.229,-521.562 L148.229,-636.312 C148.229,-672.454 118.412,-702.09 82.4514,-702.09 L82.4514,-554.27 C82.4514,-536.199 97.2695,-521.381 115.34,-521.381 L115.34,-554.27 Z " fill="#000000" fill-opacity="1.00" />					<path d="M-169.067,-554.27 C-169.067,-536.38 -183.885,-521.562 -201.956,-521.562 L-201.956,-636.312 C-201.956,-672.454 -172.139,-702.09 -136.178,-702.09 L-136.178,-554.27 C-136.178,-536.199 -150.996,-521.381 -169.067,-521.381 L-169.067,-554.27 Z " fill="#000000" fill-opacity="1.00" />				</g>				<g>					<path d="M349.281,3.44603 L180.716,-310.617 C162.972,-343.443 129.259,-362.961 92.8845,-362.961 L-153.753,-362.961 C-191.901,-362.961 -226.502,-341.668 -243.358,-307.955 L-399.502,3.44602 L-302.799,3.44602 L-190.127,-206.817 C-182.142,-221.899 -159.076,-216.576 -159.076,-198.832 L-174.989,29.6311 L111.85,29.6311 L97.3204,-196.17 C97.3204,-213.914 120.387,-219.237 128.372,-204.155 L240.157,4.33321 L349.281,4.33321 L349.281,3.44603 Z " fill="#231728" fill-opacity="1.00" />					<path d="M14.62,-330.799 L30.4155,-362.961 L-15.3695,-362.961 L14.62,-330.799 Z " fill="#97aec3" fill-opacity="1.00" />					<path d="M-64.997,-331.178 L-80.7925,-363.34 L-35.0075,-363.34 L-64.997,-331.178 Z " fill="#97aec3" fill-opacity="1.00" />					<path d="M-403.451,19.3864 L-320.064,44.1374 L-294.132,-4.90655 L-398.426,-35.8632 L-403.451,19.3864 Z " fill="#97aec3" fill-opacity="1.00" />					<path d="M253.023,33.0119 L350.31,4.56177 L347.276,-51.0823 L225.597,-15.4991 L253.023,33.0119 Z " fill="#97aec3" fill-opacity="1.00" />				</g>				<path d="M176.837,774.508 C176.837,749.014 156.082,728.259 130.589,728.259 L91.5592,728.259 L91.5592,624.707 L97.6505,624.707 C100.132,624.707 102.163,622.676 102.163,620.195 L102.163,598.311 C102.163,595.829 100.132,593.799 97.6505,593.799 L11.2443,593.799 C8.76263,593.799 6.7322,595.829 6.7322,598.311 L6.7322,619.969 C6.7322,622.451 8.76263,624.481 11.2443,624.481 L17.3356,624.481 L17.3356,774.282 L176.837,774.282 L176.837,774.508 Z " fill="#000000" fill-opacity="1.00" />				<path d="M-232.863,774.508 C-232.863,749.014 -212.107,728.259 -186.614,728.259 L-147.584,728.259 L-147.584,624.707 L-153.676,624.707 C-156.157,624.707 -158.188,622.676 -158.188,620.195 L-158.188,598.311 C-158.188,595.829 -156.157,593.799 -153.676,593.799 L-67.2695,593.799 C-64.7878,593.799 -62.7574,595.829 -62.7574,598.311 L-62.7574,619.969 C-62.7574,622.451 -64.7878,624.481 -67.2695,624.481 L-73.3608,624.481 L-73.3608,774.282 L-232.863,774.282 L-232.863,774.508 Z " fill="#000000" fill-opacity="1.00" />			</g>			<g>				<path d="M58.6041,-526.108 C50.6219,-526.108 31.2921,-528.983 21.7132,-535.168 C-4.84729,-558.383 -2.92227,-571.313 -2.92227,-581.246 C-2.92227,-591.49 3.27907,-603.668 14.0383,-609.594 C27.1265,-616.801 46.1431,-616.661 58.6041,-616.661 C81.3088,-616.661 99.6887,-603.951 99.6887,-581.246 C99.6887,-570.515 98.1341,-557.326 91.406,-546.7 C83.8993,-534.844 70.5772,-526.108 58.6041,-526.108 Z " fill="#ecf1f2" fill-opacity="1.00" />				<g>					<path d="M-105.581,-526.155 C-97.5987,-526.155 -78.2689,-529.03 -68.69,-535.215 C-42.1295,-558.43 -44.0545,-571.36 -44.0545,-581.293 C-44.0545,-591.537 -50.2559,-603.715 -61.0151,-609.641 C-74.1032,-616.848 -93.1199,-616.708 -105.581,-616.708 C-128.286,-616.708 -146.666,-603.998 -146.666,-581.293 C-146.666,-570.562 -145.111,-557.373 -138.383,-546.747 C-130.876,-534.891 -117.554,-526.155 -105.581,-526.155 Z " fill="#ecf1f2" fill-opacity="1.00" />					<path d="M118.361,-610.064 L94.9953,-610.064 C88.3646,-617.642 78.5763,-622.378 67.5251,-622.378 L29.3195,-622.378 C9.74305,-622.378 -6.36016,-608.169 -9.51765,-589.54 C-13.6224,-592.066 -18.6744,-593.645 -23.7264,-593.645 C-28.7783,-593.645 -33.8303,-592.066 -38.2508,-589.54 C-41.4083,-608.169 -57.8273,-622.378 -77.4037,-622.378 L-115.925,-622.378 C-126.661,-622.378 -136.449,-617.642 -143.395,-610.064 L-166.445,-610.064 L-166.445,-600.591 L-149.394,-600.591 C-151.289,-596.171 -152.552,-591.119 -152.552,-586.067 L-152.552,-572.805 C-152.552,-544.072 -129.187,-520.391 -100.138,-520.391 C-67.2997,-520.391 -40.4611,-545.967 -37.9351,-578.173 L-37.3036,-577.857 C-33.8303,-581.962 -29.0941,-584.172 -23.7264,-584.172 C-18.3586,-584.172 -13.6224,-581.962 -10.1491,-577.857 L-9.83339,-578.173 C-7.3074,-545.967 19.5313,-520.707 52.3692,-520.707 C81.1023,-520.707 104.784,-544.072 104.784,-573.121 L104.784,-586.382 C104.784,-591.434 103.836,-596.486 101.626,-600.907 L118.992,-600.907 L118.992,-610.064 L118.361,-610.064 Z M-100.138,-529.863 C-123.819,-529.863 -143.079,-549.124 -143.079,-572.805 L-143.079,-586.067 C-143.079,-600.907 -131.081,-612.905 -116.241,-612.905 L-77.7194,-612.905 C-60.9847,-612.905 -47.7233,-599.328 -47.7233,-582.909 C-47.0918,-553.545 -70.773,-529.863 -100.138,-529.863 Z M94.6795,-572.805 C94.6795,-549.124 75.4188,-529.863 51.7377,-529.863 C22.6888,-529.863 -0.992421,-553.545 -0.992421,-582.593 C-0.992421,-599.328 12.5848,-612.59 29.0037,-612.59 L67.5251,-612.59 C82.3653,-612.59 94.3638,-600.591 94.3638,-585.751 L94.3638,-572.805 L94.6795,-572.805 Z " fill="#542337" fill-opacity="1.00" />				</g>			</g>			<g>				<path d="M98.8588,-195.678 C98.8588,-195.678 104.618,-208.181 104.618,-210.021 C98.9174,-217.97 97.2919,-219.746 94.3184,-247.654 C90.4739,-283.738 94.3184,-363.773 94.3184,-363.773 L77.4403,-363.773 C77.4403,-363.773 73.2207,-288.814 77.4403,-247.654 C81.6598,-206.495 98.8588,-195.678 98.8588,-195.678 Z " fill="#8a8a8a" fill-opacity="1.00" />				<path d="M-160.686,-194.868 C-160.686,-194.868 -166.445,-207.372 -166.445,-209.211 C-160.744,-217.16 -159.119,-218.936 -156.145,-246.845 C-152.301,-282.928 -156.145,-362.963 -156.145,-362.963 L-139.267,-362.963 C-139.267,-362.963 -135.048,-288.004 -139.267,-246.845 C-143.487,-205.686 -160.686,-194.868 -160.686,-194.868 Z " fill="#8a8a8a" fill-opacity="1.00" />			</g>		</g>	</svg>