<?xml version="1.0" encoding="utf-8" ?>	<!-- Generator: Assembly 1.8 - http://assemblyapp.co -->	<svg version="1.1" xmlns="http://www.w3.org/2000/svg" xmlns:xlink="http://www.w3.org/1999/xlink" width="2048.00" height="2048.00" viewBox="0 0 2048.0 2048.0">		<g id="document" transform="matrix(1,0,0,1,1024.0,1024.0)">			<g>				<path d="M364.128,630.689 C712.448,429.586 831.791,-15.8085 630.689,-364.128 C429.586,-712.448 -15.8085,-831.791 -364.128,-630.689 C-712.448,-429.586 -831.791,15.8085 -630.689,364.128 C-429.586,712.448 15.8085,831.791 364.128,630.689 Z " fill="#ffffff" fill-opacity="1.00" />				<path d="M40.703,-727.334 C-360.863,-749.807 -704.862,-442.269 -727.334,-40.703 C-749.807,360.863 -442.269,704.862 -40.703,727.334 C360.863,749.807 704.862,442.269 727.334,40.703 C749.807,-360.863 442.269,-704.862 40.703,-727.334 Z M32.4,-578.965 C163.03,-571.654 279.934,-521.433 372.636,-443.445 C336.085,-455.197 297.65,-462.202 257.332,-464.458 C-5.54013,-479.169 -230.332,-278.203 -245.042,-15.3308 C-259.753,247.542 -58.788,472.333 204.085,487.044 C244.402,489.3 283.378,486.628 321.012,479.028 C220.188,546.185 96.7977,582.959 -32.2195,575.739 C-351.537,557.87 -595.041,283.782 -577.262,-33.9224 C-559.482,-351.627 -285.305,-596.744 32.4,-578.965 Z " fill="#000000" fill-opacity="1.00" />			</g>		</g>	</svg>