<?xml version="1.0" encoding="utf-8" ?>	<!-- Generator: Assembly 1.8 - http://assemblyapp.co -->	<svg version="1.1" xmlns="http://www.w3.org/2000/svg" xmlns:xlink="http://www.w3.org/1999/xlink" width="1536.00" height="2048.00" viewBox="0 0 1536.0 2048.0">		<g id="document" transform="matrix(1,0,0,1,768.0,1024.0)">			<path d="M-317.16,-19.6442 L-312.946,-26.9421 L-330.398,-37.0176 L-323.07,-49.7096 L-305.619,-39.634 L-301.405,-46.9319 L-318.857,-57.0074 L-311.529,-69.6993 L-294.078,-59.6238 L-289.864,-66.9216 L-307.316,-76.9972 L-235.138,-202.013 L-189.13,-175.45 L-316.082,44.4378 C-304.77,55.6221 -302.396,73.4925 -310.64,87.7709 L-322.914,109.03 L-330.211,104.816 C-336.24,101.336 -338.252,93.8285 -334.771,87.7998 L-330.008,79.5501 C-328.176,76.3771 -329.249,72.3732 -332.422,70.5413 L-349.276,99.7327 L-333.728,108.709 C-327.699,112.19 -325.688,119.697 -329.168,125.726 L-333.382,133.024 L-363.842,115.437 C-365.491,118.293 -364.552,121.796 -361.697,123.445 L-343.928,133.704 C-337.899,137.184 -335.888,144.692 -339.368,150.72 L-343.582,158.018 L-373.725,140.615 C-398.474,126.326 -407.24,94.612 -392.768,69.5454 L-335.063,-30.4035 L-316.977,-19.9615 L-317.16,-19.6442 Z " fill="#f1d4af" fill-opacity="1.00" />			<path d="M103.671,471.721 C92.6191,471.721 83.5949,491.703 83.5949,516.176 L83.5949,649.314 C83.5949,673.786 92.6191,693.768 103.671,693.768 C114.723,693.768 123.748,673.786 123.748,649.314 L123.748,516.176 C123.748,491.703 114.723,471.721 103.671,471.721 Z " fill="#f1d4af" fill-opacity="1.00" />			<path d="M17.8887,924.477 C175.124,924.477 302.589,863.975 302.589,789.342 C302.589,714.71 175.124,654.208 17.8887,654.208 C-139.347,654.208 -266.811,714.71 -266.811,789.342 C-266.811,863.975 -139.347,924.477 17.8887,924.477 Z " fill="#bebebe" fill-opacity="1.00" />			<path d="M-69.4131,471.721 C-80.4652,471.721 -89.4895,491.703 -89.4895,516.176 L-89.4895,649.314 C-89.4895,673.786 -80.4653,693.768 -69.4131,693.768 C-58.361,693.768 -49.3368,673.786 -49.3368,649.314 L-49.3368,516.176 C-49.3368,491.703 -58.361,471.721 -69.4131,471.721 Z " fill="#f1d4af" fill-opacity="1.00" />			<g>				<path d="M40.4735,-36.0949 L-14.2712,-36.0949 L-124.397,-36.0949 L-124.397,84.6565 L-124.397,564.658 L-14.2712,564.658 L-14.2712,110.489 C-14.2712,96.0708 -2.17643,84.6565 13.1011,84.6565 C28.3787,84.6565 40.4735,96.0708 40.4735,110.489 L40.4735,564.658 L150.599,564.658 L150.599,84.6565 L150.599,-36.0949 L40.4735,-36.0949 Z " fill="#345b7d" fill-opacity="1.00" />				<path d="M32.3199,552.814 C32.3199,563.819 32.6187,572.805 49.4897,572.805 L141.274,572.805 C158.145,572.805 159.447,563.819 159.447,552.814 C159.447,541.809 158.145,532.824 141.274,532.824 L49.4897,532.824 C32.6187,532.824 32.3199,541.809 32.3199,552.814 Z " fill="#bed2d9" fill-opacity="1.00" />				<path d="M-132.977,552.814 C-132.977,563.819 -132.678,572.805 -115.807,572.805 L-24.0224,572.805 C-7.15145,572.805 -5.84962,563.819 -5.84962,552.814 C-5.84962,541.809 -7.15145,532.824 -24.0224,532.824 L-115.807,532.824 C-132.678,532.824 -132.977,541.809 -132.977,552.814 Z " fill="#bed2d9" fill-opacity="1.00" />			</g>			<g>				<g>					<g>						<path d="M17.5889,-964.147 C-90.4067,-964.147 -178.403,-876.15 -178.403,-768.155 L-178.403,-493.499 C-178.403,-384.837 -89.7401,-297.507 17.5889,-297.507 C124.918,-297.507 213.581,-385.504 213.581,-493.499 L213.581,-768.155 C214.247,-876.15 125.584,-964.147 17.5889,-964.147 Z " fill="#000000" fill-opacity="1.00" />						<path d="M180.378,-660.021 L180.378,-776.795 C180.378,-805.154 157.44,-827.675 129.498,-827.675 L-91.1226,-827.675 C-119.482,-827.675 -142.003,-804.737 -142.003,-776.795 L-142.003,-660.021 C-168.277,-660.021 -189.13,-638.751 -189.13,-612.894 C-189.13,-586.619 -167.86,-565.767 -142.003,-565.767 L-142.003,-563.682 C-142.003,-491.949 -84.0327,-433.979 -12.2999,-433.979 L51.0919,-433.979 C122.825,-433.979 180.795,-491.949 180.795,-563.682 L180.795,-565.767 C207.069,-565.767 227.922,-587.037 227.922,-612.894 C227.505,-638.751 206.235,-660.021 180.378,-660.021 Z " fill="#f1d4af" fill-opacity="1.00" />						<path d="M-55.2562,-754.155 L-34.4036,-701.477 L227.922,-701.477 C227.922,-799.809 171.203,-878.825 101.555,-878.825 L-62.7631,-878.825 C-132.828,-878.825 -189.13,-799.223 -189.13,-700.892 L-77.7769,-700.892 L-55.2562,-754.155 Z " fill="#000000" fill-opacity="1.00" />					</g>					<path d="M-13.5509,-436.363 L-13.5509,-379.787 C-13.5509,-348.522 1.64184,-323.211 20.4093,-323.211 C39.1767,-323.211 54.3694,-348.522 54.3694,-379.787 L54.3694,-436.363 L-13.5509,-436.363 L-13.5509,-436.363 Z " fill="#f1d4af" fill-opacity="1.00" />				</g>				<path d="M164.422,-584.99 C164.422,-566.517 179.722,-551.216 198.382,-551.216 L198.382,-669.704 C198.382,-707.023 167.594,-737.624 130.462,-737.624 L130.462,-584.99 C130.462,-566.331 145.762,-551.03 164.422,-551.03 L164.422,-584.99 Z " fill="#000000" fill-opacity="1.00" />				<path d="M-129.248,-584.99 C-129.248,-566.517 -144.549,-551.216 -163.209,-551.216 L-163.208,-669.704 C-163.208,-707.023 -132.42,-737.624 -95.2882,-737.624 L-95.2882,-584.99 C-95.2882,-566.331 -110.589,-551.03 -129.248,-551.03 L-129.248,-584.99 Z " fill="#000000" fill-opacity="1.00" />			</g>			<path d="M455.171,-606.09 L437.868,-555.139 C434.207,-544.357 440.048,-532.627 450.83,-528.965 C461.612,-525.303 473.318,-531.074 476.98,-541.856 L494.283,-592.807 L455.171,-606.09 Z " fill="#f1d4af" fill-opacity="1.00" />			<path d="M430.829,-556.501 C399.222,-506.721 393.223,-483.829 368.382,-453.482 C348.767,-429.518 321.319,-404.533 300.99,-397.881 C262.515,-385.291 232.324,-389.111 214.035,-387.45 C194.85,-385.707 153.449,-387.45 141.234,-387.45 L-113.435,-387.45 C-152.827,-387.45 -188.554,-365.464 -205.959,-330.653 L-367.189,-9.10944 L-267.337,-9.10944 L-150.995,-226.22 C-142.75,-241.793 -118.932,-236.297 -118.932,-217.975 L-135.364,17.9284 L160.818,17.9284 L160.818,-217.975 C160.818,-217.975 160.818,-220.606 160.818,-245.029 C160.818,-269.451 167.822,-268.724 227.631,-292.92 C249.534,-301.781 323.421,-308.794 368.382,-330.653 C403.262,-347.61 446.434,-396.812 467.128,-434.809 C492.601,-481.58 503.59,-533.646 503.59,-533.646 L430.829,-556.501 L430.829,-556.501 Z " fill="#231728" fill-opacity="1.00" />			<path d="M60.4209,-354.241 L76.7309,-387.45 L29.4547,-387.45 L60.4209,-354.241 Z " fill="#97aec3" fill-opacity="1.00" />			<path d="M-21.7891,-354.632 L-38.0991,-387.841 L9.1771,-387.841 L-21.7891,-354.632 Z " fill="#97aec3" fill-opacity="1.00" />			<path d="M-371.266,7.35009 L-285.164,32.9073 L-258.387,-17.7341 L-366.078,-49.6989 L-371.266,7.35009 Z " fill="#97aec3" fill-opacity="1.00" />			<path d="M521.323,-550.237 L433.825,-574.751 L409.734,-530.986 L519.17,-500.327 L521.323,-550.237 Z " fill="#97aec3" fill-opacity="1.00" />			<path d="M442.404,-663.51 L440.881,-655.059 C440.106,-650.765 442.184,-646.814 445.534,-646.21 L458.295,-717.003 C459.244,-722.267 463.368,-725.958 467.475,-725.218 C471.581,-724.477 474.157,-719.579 473.208,-714.315 L467.814,-684.39 C467.365,-681.897 468.611,-679.527 470.557,-679.176 C472.502,-678.825 474.497,-680.611 474.947,-683.105 L482.164,-723.142 C483.113,-728.406 487.237,-732.097 491.344,-731.357 C495.45,-730.617 498.026,-725.718 497.077,-720.454 L489.86,-680.416 C489.411,-677.923 490.657,-675.553 492.602,-675.202 C494.548,-674.851 496.543,-676.637 496.993,-679.131 L503.186,-713.488 C504.135,-718.752 508.259,-722.443 512.366,-721.703 C516.472,-720.963 519.048,-716.064 518.099,-710.8 L511.906,-676.442 C511.457,-673.949 512.703,-671.579 514.648,-671.228 C516.594,-670.877 518.589,-672.663 519.039,-675.157 L522.81,-696.076 C523.759,-701.34 527.883,-705.031 531.989,-704.291 C536.096,-703.551 538.672,-698.652 537.723,-693.388 L524.862,-622.041 C521.016,-600.706 504.519,-585.943 487.877,-588.943 L465.939,-592.898 C438.49,-597.846 421.005,-627.745 427.798,-665.428 C428.531,-670.731 432.572,-674.58 436.704,-673.978 C440.536,-673.573 443.27,-668.932 442.404,-663.51 Z " fill="#f1d4af" fill-opacity="1.00" />			<path d="M227.922,787.065 C227.922,760.741 206.49,739.31 180.167,739.31 L139.866,739.31 L139.866,632.385 L146.156,632.385 C148.718,632.385 150.815,630.288 150.815,627.726 L150.815,605.13 C150.815,602.567 148.718,600.471 146.156,600.471 L56.9353,600.471 C54.3728,600.471 52.2763,602.567 52.2763,605.13 L52.2763,627.493 C52.2763,630.056 54.3728,632.152 56.9353,632.152 L63.225,632.152 L63.225,786.832 L227.922,786.832 L227.922,787.065 Z " fill="#000000" fill-opacity="1.00" />			<path d="M-195.122,787.065 C-195.122,760.741 -173.691,739.31 -147.367,739.31 L-107.066,739.31 L-107.066,632.385 L-113.356,632.385 C-115.919,632.385 -118.015,630.288 -118.015,627.726 L-118.015,605.13 C-118.015,602.567 -115.919,600.471 -113.356,600.471 L-24.1356,600.471 C-21.5731,600.471 -19.4766,602.567 -19.4766,605.13 L-19.4766,627.493 C-19.4766,630.056 -21.5731,632.152 -24.1356,632.152 L-30.4253,632.152 L-30.4253,786.832 L-195.122,786.832 L-195.122,787.065 Z " fill="#000000" fill-opacity="1.00" />		</g>	</svg>