<?xml version="1.0" encoding="utf-8" ?>	<!-- Generator: Assembly 1.8 - http://assemblyapp.co -->	<svg version="1.1" xmlns="http://www.w3.org/2000/svg" xmlns:xlink="http://www.w3.org/1999/xlink" width="2048.00" height="2048.00" viewBox="0 0 2048.0 2048.0">		<rect x="0" y="0" width="2048.00" height="2048.00" fill="#ffffff" />		<g id="document" transform="matrix(1,0,0,1,1024.0,1024.0)">			<g>				<path d="M-551.624,306.185 C-539.689,283.034 -533.223,263.103 -532.226,246.394 C-531.228,229.685 -532.688,214.701 -536.606,201.444 C-542.057,184.641 -553.336,167.381 -570.444,149.663 C-587.552,131.945 -609.812,113.856 -637.223,95.3976 C-664.635,76.939 -696.992,57.9885 -734.295,38.5462 C-771.598,19.104 -813.291,-0.948799 -859.373,-21.6121 C-863.382,-23.6982 -866.922,-25.2261 -869.995,-26.1956 C-873.068,-27.1652 -876.064,-27.4153 -878.984,-26.946 C-881.905,-26.4767 -884.933,-25.2485 -888.071,-23.2612 C-891.209,-21.2739 -895.053,-18.2449 -899.604,-14.1743 C-907.966,-6.19127 -915.99,3.19098 -923.676,13.9725 C-931.362,24.754 -937.788,34.7242 -942.955,43.8832 C-948.208,53.37 -950.467,61.0942 -949.735,67.056 C-949.003,73.0177 -943.973,78.2543 -934.644,82.7657 C-914.749,91.0593 -892.543,100.563 -868.026,111.276 C-843.509,121.989 -818.688,133.218 -793.563,144.963 C-768.439,156.708 -744.054,168.612 -720.411,180.673 C-696.767,192.735 -675.996,204.404 -658.096,215.68 C-640.197,226.956 -626.193,237.399 -616.084,247.01 C-605.975,256.621 -601.975,264.827 -604.084,271.628 C-607.103,279.244 -612.556,283.081 -620.442,283.141 C-628.329,283.2 -640.64,281.766 -657.375,278.838 C-683.206,273.207 -708.788,287.582 -734.122,321.961 C-742.336,332.081 -744.396,340.382 -740.299,346.864 C-736.203,353.346 -728.671,359.055 -717.703,363.99 C-703.128,369.858 -689.893,373.806 -677.998,375.832 C-666.103,377.859 -654.066,377.648 -641.888,375.2 C-633.498,373.871 -625.267,371.802 -617.193,368.992 C-609.12,366.182 -601.242,362.097 -593.559,356.738 C-585.875,351.378 -578.53,344.619 -571.523,336.461 C-564.515,328.303 -557.882,318.211 -551.624,306.185 Z " fill="#bc5757" fill-opacity="1.00" />				<path d="M-740.721,-76.5789 C-745.045,-72.3643 -749.361,-67.292 -753.67,-61.362 C-757.978,-55.432 -761.462,-49.8017 -764.121,-44.4711 C-766.962,-39.1793 -768.092,-34.997 -767.511,-31.9242 C-766.93,-28.8513 -764.175,-25.9333 -759.247,-23.17 C-751.121,-19.3441 -741.624,-15.0355 -730.756,-10.2441 C-719.887,-5.45266 -708.326,-0.561204 -696.073,4.43031 C-683.821,9.42182 -671.285,14.4261 -658.467,19.443 C-645.649,24.46 -633.419,29.1136 -621.778,33.404 C-610.136,37.6943 -599.392,41.508 -589.545,44.8449 C-579.698,48.1818 -571.628,50.7114 -565.337,52.4338 C-560.722,53.9888 -556.95,54.3653 -554.02,53.5633 C-551.091,52.7613 -548.179,50.4811 -545.284,46.7227 C-542.467,43.3283 -539.966,39.6287 -537.78,35.6241 C-535.594,31.6194 -533.36,27.3873 -531.077,22.9278 C-528.976,18.4294 -528.216,15.3098 -528.796,13.569 C-529.375,11.8281 -531.115,10.1729 -534.015,8.60323 C-541.854,5.21893 -550.763,1.2736 -560.741,-3.23275 C-570.719,-7.73911 -581.286,-12.6088 -592.441,-17.8417 C-603.596,-23.0747 -615.004,-28.4569 -626.666,-33.9883 C-638.328,-39.5197 -649.708,-45.0383 -660.805,-50.5442 C-671.901,-56.0502 -682.407,-61.43 -692.321,-66.6836 C-702.234,-71.9372 -711.014,-76.7112 -718.659,-81.0053 C-723.301,-83.327 -727.002,-84.2592 -729.763,-83.8017 C-732.524,-83.3442 -736.177,-80.9366 -740.721,-76.5789 Z " fill="#bc5757" fill-opacity="1.00" />				<path d="M-553.555,-184.622 C-563.238,-185.305 -573.323,-186.105 -583.811,-187.022 C-594.298,-187.94 -604.492,-188.868 -614.391,-189.808 C-624.291,-190.748 -633.468,-191.672 -641.924,-192.58 C-650.379,-193.488 -657.328,-194.248 -662.769,-194.861 C-669.87,-195.762 -675.5,-195.558 -679.659,-194.248 C-683.818,-192.938 -687.864,-189.851 -691.797,-184.988 C-696.987,-179.133 -701.473,-173.365 -705.256,-167.683 C-709.039,-162.001 -712.874,-156.14 -716.761,-150.101 C-719.801,-144.977 -721.118,-140.613 -720.713,-137.007 C-720.308,-133.402 -717.607,-130.195 -712.61,-127.386 C-703.891,-122.72 -693.844,-117.62 -682.471,-112.085 C-671.097,-106.551 -659.264,-100.931 -646.971,-95.2263 C-634.678,-89.5215 -622.302,-83.9377 -609.842,-78.4749 C-597.382,-73.0122 -585.674,-67.9618 -574.718,-63.3238 C-563.762,-58.6859 -553.934,-54.6664 -545.234,-51.2656 C-536.534,-47.8648 -529.824,-45.2845 -525.104,-43.5249 C-520.563,-41.8172 -516.802,-41.2569 -513.822,-41.8438 C-510.841,-42.4307 -507.797,-44.4039 -504.689,-47.7633 C-500.993,-51.1456 -497.929,-54.8566 -495.495,-58.8964 C-493.061,-62.9362 -490.685,-66.9443 -488.366,-70.9208 C-485.765,-75.2026 -484.633,-78.2644 -484.97,-80.1061 C-485.306,-81.9479 -486.889,-83.6675 -489.719,-85.2651 C-495.891,-88.0282 -503.09,-91.4285 -511.314,-95.4661 C-519.538,-99.5037 -528.424,-103.928 -537.974,-108.738 C-547.523,-113.549 -557.538,-118.591 -568.018,-123.866 C-578.498,-129.141 -588.992,-134.371 -599.498,-139.556 C-589.532,-139.178 -579.559,-138.992 -569.578,-138.997 C-559.598,-139.002 -549.974,-139.112 -540.709,-139.325 C-531.443,-139.538 -522.771,-139.875 -514.692,-140.336 C-506.614,-140.798 -499.441,-141.474 -493.176,-142.365 C-484.558,-143.348 -477.588,-147.329 -472.265,-154.307 C-466.735,-162 -461.971,-169.723 -457.974,-177.474 C-453.026,-186.499 -453.79,-192.534 -460.268,-195.58 C-471.944,-202.074 -485.461,-209.733 -500.819,-218.557 C-516.178,-227.381 -531.886,-236.501 -547.944,-245.916 C-564.003,-255.332 -579.78,-264.714 -595.277,-274.062 C-610.773,-283.411 -624.535,-292.062 -636.562,-300.015 C-640.792,-302.794 -644.65,-304.352 -648.137,-304.687 C-651.625,-305.023 -655.729,-303.067 -660.451,-298.821 C-663.3,-296.355 -665.687,-294.142 -667.613,-292.183 C-669.538,-290.224 -671.247,-288.347 -672.737,-286.552 C-674.228,-284.757 -675.553,-282.865 -676.712,-280.877 C-677.871,-278.889 -679.198,-276.658 -680.692,-274.186 C-683.783,-268.884 -685.132,-264.577 -684.738,-261.266 C-684.344,-257.954 -681.764,-254.831 -676.998,-251.895 C-659.387,-241.157 -640.002,-229.854 -618.843,-217.987 C-597.684,-206.121 -575.921,-194.999 -553.555,-184.622 Z " fill="#bc5757" fill-opacity="1.00" />				<path d="M-483.457,-412.13 C-485.964,-413.504 -489.152,-415.011 -493.021,-416.652 C-496.89,-418.294 -500.949,-419.895 -505.198,-421.457 C-509.447,-423.018 -513.739,-424.412 -518.076,-425.639 C-522.412,-426.865 -526.363,-427.856 -529.927,-428.611 C-536.852,-429.53 -543.305,-429.52 -549.284,-428.579 C-555.264,-427.638 -561.263,-424.911 -567.284,-420.398 C-570.589,-418.04 -573.784,-415.249 -576.868,-412.027 C-579.952,-408.804 -582.851,-405.264 -585.564,-401.407 C-588.277,-397.55 -590.813,-393.512 -593.173,-389.293 C-595.533,-385.075 -597.536,-380.852 -599.181,-376.626 C-600.475,-373.74 -601.583,-370.537 -602.506,-367.017 C-603.429,-363.496 -604.111,-359.868 -604.553,-356.132 C-604.995,-352.396 -605.007,-348.592 -604.588,-344.72 C-604.17,-340.849 -603.183,-337.096 -601.627,-333.464 C-597.215,-322.275 -591.125,-311.676 -583.357,-301.667 C-575.59,-291.659 -566.846,-282.47 -557.127,-274.099 C-547.407,-265.729 -537.056,-258.402 -526.072,-252.119 C-515.089,-245.836 -504.008,-240.782 -492.828,-236.956 C-481.649,-233.129 -470.768,-230.725 -460.187,-229.743 C-449.606,-228.761 -439.972,-229.46 -431.286,-231.842 C-425.977,-232.958 -420.814,-235.054 -415.798,-238.128 C-410.782,-241.202 -406.53,-244.611 -403.04,-248.355 C-394.468,-259.186 -387.652,-270.836 -382.592,-283.304 C-379.653,-290.416 -377.849,-297.468 -377.181,-304.459 C-376.513,-311.45 -377.065,-318.403 -378.835,-325.316 C-381.907,-336.154 -387.501,-346.936 -395.617,-357.663 C-403.734,-368.39 -414.522,-378.832 -427.984,-388.989 C-431.947,-391.641 -435.448,-393.32 -438.487,-394.027 C-441.527,-394.734 -445.348,-394.168 -449.95,-392.329 C-452.358,-391.348 -454.965,-390.284 -457.774,-389.139 C-460.582,-387.994 -463.339,-386.702 -466.046,-385.261 C-470.189,-383.123 -473.184,-380.414 -475.028,-377.135 C-476.873,-373.857 -478.124,-369.258 -478.779,-363.339 C-479.216,-358.257 -479.935,-352.265 -480.939,-345.362 C-481.942,-338.459 -482.586,-331.73 -482.871,-325.176 C-483.247,-321.692 -483.577,-318.554 -483.861,-315.762 C-484.145,-312.97 -484.151,-310.553 -483.88,-308.511 C-483.609,-306.469 -482.944,-304.906 -481.884,-303.822 C-480.825,-302.739 -479.117,-302.246 -476.762,-302.346 C-466.372,-303.026 -458.452,-305.563 -453,-309.956 C-447.549,-314.35 -443.756,-321.642 -441.623,-331.832 C-436.794,-327.699 -432.386,-323.498 -428.4,-319.229 C-424.413,-314.959 -421.161,-310.792 -418.643,-306.728 C-416.125,-302.664 -414.54,-298.8 -413.888,-295.136 C-413.237,-291.471 -413.809,-288.262 -415.606,-285.508 C-417.702,-282.296 -421.57,-280.354 -427.21,-279.682 C-432.851,-279.011 -439.319,-279.452 -446.615,-281.006 C-453.911,-282.561 -461.627,-285.076 -469.763,-288.552 C-477.899,-292.029 -485.617,-296.246 -492.916,-301.205 C-502.14,-307.027 -510.81,-313.42 -518.927,-320.385 C-527.045,-327.35 -533.997,-334.144 -539.786,-340.767 C-545.574,-347.39 -549.75,-353.501 -552.313,-359.1 C-554.877,-364.699 -555.216,-369.042 -553.331,-372.132 C-552.389,-373.676 -550.751,-374.456 -548.418,-374.472 C-546.085,-374.487 -543.238,-374.413 -539.877,-374.248 C-538.157,-373.976 -536.437,-373.705 -534.717,-373.433 C-532.996,-373.161 -531.214,-372.783 -529.37,-372.3 C-527.57,-371.649 -525.863,-371.157 -524.248,-370.823 C-522.634,-370.49 -520.944,-370.271 -519.18,-370.167 C-510.411,-368.764 -502.714,-370.105 -496.089,-374.191 C-489.465,-378.277 -483.776,-385.968 -479.024,-397.263 C-477.59,-401.366 -477.209,-404.356 -477.881,-406.234 C-478.553,-408.112 -480.412,-410.078 -483.457,-412.13 Z " fill="#bc5757" fill-opacity="1.00" />				<path d="M-343.379,-408.254 C-348.132,-416.379 -353.041,-425.004 -358.105,-434.128 C-363.17,-443.252 -367.969,-452.078 -372.502,-460.604 C-377.036,-469.131 -381.113,-476.878 -384.735,-483.847 C-388.358,-490.816 -391.131,-496.101 -393.055,-499.701 C-393.95,-501.541 -395.078,-503.471 -396.442,-505.49 C-397.805,-507.51 -399.366,-509.324 -401.124,-510.931 C-402.882,-512.538 -404.885,-513.865 -407.133,-514.913 C-409.382,-515.96 -411.879,-516.499 -414.623,-516.53 C-419.332,-516.502 -424.055,-515.875 -428.79,-514.649 C-433.526,-513.424 -438.717,-511.887 -444.361,-510.04 C-449.249,-508.453 -452.081,-506.614 -452.858,-504.524 C-453.635,-502.434 -452.823,-499.183 -450.424,-494.77 C-445.908,-487.051 -440.949,-478.728 -435.546,-469.802 C-430.142,-460.876 -424.485,-451.826 -418.573,-442.651 C-412.661,-433.477 -406.662,-424.309 -400.575,-415.146 C-394.489,-405.984 -388.572,-397.267 -382.825,-388.996 C-377.315,-381.132 -372.002,-373.834 -366.883,-367.104 C-361.765,-360.374 -357.04,-354.55 -352.709,-349.631 C-350.085,-346.077 -347.527,-343.802 -345.036,-342.806 C-342.544,-341.809 -339.357,-341.72 -335.473,-342.538 C-331.318,-343.514 -327.014,-344.623 -322.561,-345.865 C-318.107,-347.107 -313.583,-348.617 -308.989,-350.396 C-305.637,-351.812 -303.185,-353.291 -301.634,-354.835 C-300.083,-356.378 -299.287,-358.979 -299.247,-362.638 C-299.737,-366.895 -300.289,-372.343 -300.901,-378.983 C-301.513,-385.622 -302.146,-392.841 -302.799,-400.638 C-303.452,-408.435 -304.035,-416.5 -304.548,-424.834 C-305.061,-433.168 -305.502,-441.225 -305.873,-449.005 C-303.101,-444.265 -300.012,-439.529 -296.607,-434.796 C-293.202,-430.062 -289.823,-425.45 -286.469,-420.96 C-283.115,-416.469 -279.945,-412.371 -276.959,-408.665 C-273.973,-404.959 -271.445,-401.802 -269.376,-399.196 C-267.17,-396.669 -264.562,-394.696 -261.551,-393.277 C-258.539,-391.858 -254.742,-391.58 -250.158,-392.444 C-248.024,-393.146 -246.04,-393.716 -244.206,-394.153 C-242.371,-394.59 -240.556,-395.061 -238.761,-395.566 C-236.966,-396.071 -235.05,-396.601 -233.012,-397.157 C-230.975,-397.713 -228.618,-398.5 -225.943,-399.52 C-221.213,-401.378 -217.895,-403.319 -215.989,-405.342 C-214.083,-407.366 -213.206,-410.061 -213.357,-413.426 C-214.167,-420.404 -215.058,-428.607 -216.029,-438.036 C-217,-447.464 -218.032,-457.539 -219.123,-468.261 C-220.215,-478.982 -221.262,-490.093 -222.264,-501.594 C-223.266,-513.095 -224.203,-524.407 -225.075,-535.529 C-225.946,-546.652 -226.688,-557.396 -227.299,-567.763 C-227.91,-578.129 -228.345,-587.417 -228.603,-595.627 C-229.038,-600.098 -230.178,-604.066 -232.023,-607.531 C-233.868,-610.996 -237.219,-613.307 -242.076,-614.464 C-246.267,-615.103 -250.42,-615.445 -254.537,-615.491 C-258.653,-615.537 -262.704,-615.393 -266.69,-615.061 C-272.053,-614.286 -275.612,-613.068 -277.366,-611.406 C-279.12,-609.744 -279.785,-606.219 -279.361,-600.833 C-279.164,-596.768 -278.805,-591.571 -278.283,-585.242 C-277.762,-578.912 -277.135,-571.782 -276.402,-563.849 C-275.67,-555.917 -274.883,-547.425 -274.042,-538.375 C-273.201,-529.324 -272.295,-520.085 -271.323,-510.656 C-270.352,-501.228 -269.367,-491.853 -268.367,-482.532 C-267.368,-473.211 -266.349,-464.4 -265.311,-456.101 C-269.443,-464.408 -273.661,-472.938 -277.963,-481.69 C-282.265,-490.443 -286.323,-498.701 -290.138,-506.466 C-293.953,-514.231 -297.282,-521.009 -300.123,-526.799 C-302.965,-532.589 -305.059,-536.635 -306.406,-538.937 C-307.594,-540.968 -308.658,-542.709 -309.597,-544.159 C-310.536,-545.609 -311.559,-546.737 -312.667,-547.543 C-313.775,-548.349 -315.074,-548.861 -316.565,-549.08 C-318.056,-549.298 -320.055,-549.22 -322.561,-548.844 C-327.089,-548.195 -330.951,-547.572 -334.146,-546.975 C-337.341,-546.378 -341.14,-545.337 -345.542,-543.853 C-350.024,-542.503 -353.009,-540.848 -354.497,-538.887 C-355.986,-536.926 -356.671,-533.98 -356.553,-530.05 C-356.66,-525.262 -356.262,-518.134 -355.358,-508.666 C-354.455,-499.198 -353.347,-488.758 -352.034,-477.348 C-350.722,-465.938 -349.279,-454.15 -347.705,-441.984 C-346.132,-429.817 -344.69,-418.574 -343.379,-408.254 Z " fill="#bc5757" fill-opacity="1.00" />				<path d="M-162.141,-631.509 L-185.735,-459.359 C-186.053,-454.701 -185.384,-450.739 -183.727,-447.471 C-182.07,-444.204 -179.769,-441.372 -176.824,-438.975 C-173.185,-435.891 -170.024,-433.366 -167.34,-431.398 C-164.655,-429.43 -161.842,-427.506 -158.9,-425.626 C-156.304,-423.916 -153.235,-422.597 -149.695,-421.669 C-146.154,-420.74 -140.94,-421.158 -134.052,-422.922 C-123.717,-424.877 -112.865,-427.009 -101.496,-429.315 C-90.1278,-431.622 -78.9314,-433.841 -67.9069,-435.973 C-63.2559,-436.862 -60.503,-437.955 -59.6481,-439.253 C-58.7933,-440.552 -58.8068,-442.923 -59.6886,-446.367 C-61.0858,-449.463 -62.3534,-452.516 -63.4914,-455.528 C-64.6295,-458.539 -66.243,-461.763 -68.3319,-465.2 C-70.2464,-468.293 -72.543,-470.35 -75.2217,-471.369 C-77.9005,-472.389 -81.653,-472.712 -86.4794,-472.34 C-95.0985,-471.773 -103.07,-471.038 -110.394,-470.134 C-117.718,-469.23 -125.428,-468.066 -133.525,-466.64 C-132.173,-471.476 -130.907,-476.355 -129.728,-481.277 C-128.549,-486.198 -127.285,-491.422 -125.937,-496.948 C-115.948,-499.074 -105.569,-501.03 -94.8009,-502.816 C-84.0332,-504.601 -73.4815,-506.472 -63.1458,-508.428 C-58.3233,-509.49 -55.3556,-510.714 -54.2425,-512.1 C-53.1295,-513.486 -53.2741,-516.158 -54.6762,-520.116 C-55.558,-523.56 -56.5689,-526.96 -57.7089,-530.316 C-58.8489,-533.673 -60.4634,-537.069 -62.5523,-540.506 C-64.4688,-543.944 -66.8095,-546.173 -69.5744,-547.192 C-72.3394,-548.211 -76.1355,-548.62 -80.9629,-548.42 C-86.8249,-548.214 -92.3416,-547.924 -97.5129,-547.55 C-102.684,-547.176 -107.854,-546.629 -113.024,-545.91 C-110.317,-555.065 -107.866,-563.83 -105.672,-572.207 C-103.478,-580.583 -101.109,-588.658 -98.567,-596.433 C-86.3335,-598.227 -74.702,-599.759 -63.6727,-601.029 C-52.6433,-602.299 -41.9588,-603.567 -31.6192,-604.832 C-26.6223,-605.551 -23.4385,-606.69 -22.0678,-608.25 C-20.6971,-609.809 -20.3694,-612.829 -21.0847,-617.309 C-21.9695,-621.27 -22.8525,-624.929 -23.7339,-628.287 C-24.6152,-631.645 -26.1885,-635.386 -28.4538,-639.512 C-31.257,-647.256 -37.5727,-651.014 -47.4009,-650.786 C-57.7454,-650.382 -68.1303,-649.504 -78.5557,-648.151 C-88.981,-646.799 -99.1465,-645.232 -109.052,-643.451 C-118.958,-641.67 -128.431,-639.719 -137.472,-637.599 C-146.514,-635.478 -154.737,-633.448 -162.141,-631.509 Z " fill="#bc5757" fill-opacity="1.00" />				<path d="M120.985,-496.851 C121.141,-506.558 121.392,-516.672 121.737,-527.193 C122.083,-537.715 122.456,-547.944 122.857,-557.88 C123.257,-567.816 123.681,-577.03 124.128,-585.522 C124.575,-594.015 124.956,-600.994 125.272,-606.461 C125.787,-613.6 125.277,-619.211 123.743,-623.293 C122.209,-627.375 118.907,-631.247 113.836,-634.909 C107.709,-639.773 101.705,-643.939 95.8255,-647.408 C89.9462,-650.877 83.8856,-654.388 77.6438,-657.941 C72.363,-660.697 67.9334,-661.775 64.3552,-661.174 C60.777,-660.574 57.7214,-657.703 55.1883,-652.561 C51.0031,-643.601 46.4564,-633.292 41.5484,-621.634 C36.6403,-609.977 31.6722,-597.856 26.644,-585.271 C21.6158,-572.686 16.713,-560.024 11.9355,-547.286 C7.15808,-534.547 2.75155,-522.582 -1.28409,-511.39 C-5.31973,-500.198 -8.79902,-490.167 -11.722,-481.295 C-14.6449,-472.423 -16.8566,-465.583 -18.3571,-460.774 C-19.8154,-456.146 -20.1706,-452.361 -19.4225,-449.417 C-18.6744,-446.473 -16.5387,-443.54 -13.0154,-440.62 C-9.4372,-437.113 -5.56506,-434.254 -1.39895,-432.044 C2.76716,-429.833 6.8985,-427.678 10.9951,-425.58 C15.412,-423.215 18.5308,-422.251 20.3515,-422.687 C22.1722,-423.123 23.8033,-424.798 25.2447,-427.71 C27.6682,-434.023 30.6723,-441.396 34.2569,-449.827 C37.8415,-458.258 41.776,-467.372 46.0603,-477.169 C50.3446,-486.966 54.8354,-497.24 59.5327,-507.991 C64.23,-518.743 68.882,-529.505 73.4888,-540.277 C73.653,-530.305 74.009,-520.337 74.5568,-510.371 C75.1045,-500.406 75.7366,-490.803 76.4529,-481.562 C77.1693,-472.322 77.9773,-463.681 78.877,-455.639 C79.7768,-447.598 80.8419,-440.473 82.0725,-434.265 C83.5222,-425.713 87.8758,-418.97 95.1333,-414.035 C103.116,-408.931 111.085,-404.594 119.043,-401.024 C128.323,-396.573 134.308,-397.665 136.997,-404.298 C142.847,-416.31 149.76,-430.223 157.736,-446.038 C165.713,-461.854 173.965,-478.034 182.494,-494.581 C191.022,-511.127 199.533,-527.391 208.025,-543.373 C216.518,-559.355 224.408,-573.566 231.695,-586.008 C234.241,-590.383 235.587,-594.32 235.732,-597.82 C235.877,-601.32 233.702,-605.313 229.205,-609.797 C226.588,-612.507 224.248,-614.771 222.188,-616.587 C220.127,-618.404 218.159,-620.007 216.286,-621.398 C214.413,-622.789 212.452,-624.009 210.404,-625.059 C208.355,-626.108 206.056,-627.311 203.506,-628.668 C198.044,-631.467 193.671,-632.58 190.385,-632.007 C187.1,-631.433 184.121,-628.688 181.449,-623.769 C171.684,-605.6 161.451,-585.629 150.752,-563.857 C140.053,-542.084 130.131,-519.749 120.985,-496.851 Z " fill="#bc5757" fill-opacity="1.00" />				<path d="M353.685,-419.059 C360.875,-431.678 368.612,-444.89 376.897,-458.696 C385.181,-472.502 393.271,-485.722 401.166,-498.357 C409.062,-510.992 416.268,-522.417 422.786,-532.633 C429.303,-542.849 434.225,-550.631 437.551,-555.979 C439.319,-558.594 441.027,-561.59 442.674,-564.97 C444.321,-568.35 445.54,-571.834 446.331,-575.423 C447.123,-579.012 447.351,-582.712 447.016,-586.525 C446.681,-590.337 445.475,-594.089 443.399,-597.779 C439.728,-604.049 435.248,-609.876 429.957,-615.259 C424.666,-620.641 418.609,-626.391 411.786,-632.507 C405.895,-637.814 401.254,-640.18 397.862,-639.605 C394.47,-639.031 390.751,-635.438 386.706,-628.828 C379.876,-616.84 372.581,-603.794 364.823,-589.688 C357.064,-575.583 349.336,-561.042 341.639,-546.065 C333.941,-531.089 326.319,-516.001 318.772,-500.799 C311.225,-485.598 304.142,-470.968 297.525,-456.909 C291.266,-443.481 285.615,-430.751 280.571,-418.721 C275.527,-406.69 271.39,-395.884 268.159,-386.303 C265.435,-380.055 264.368,-374.882 264.958,-370.784 C265.549,-366.687 267.888,-362.359 271.977,-357.8 C276.487,-353.002 281.289,-348.107 286.384,-343.114 C291.479,-338.122 296.987,-333.242 302.907,-328.476 C307.385,-325.089 311.253,-322.954 314.512,-322.073 C317.771,-321.191 321.86,-322.134 326.78,-324.902 C332.09,-328.842 338.944,-333.782 347.343,-339.722 C355.742,-345.662 364.899,-352.076 374.813,-358.963 C384.727,-365.851 395.054,-372.852 405.794,-379.965 C416.534,-387.079 426.958,-393.885 437.068,-400.383 C432.874,-393.022 428.928,-385.241 425.23,-377.04 C421.532,-368.839 417.977,-360.766 414.564,-352.82 C411.151,-344.875 408.121,-337.478 405.472,-330.629 C402.824,-323.781 400.557,-317.968 398.671,-313.192 C396.996,-308.296 396.371,-303.289 396.798,-298.171 C397.225,-293.052 399.783,-287.764 404.474,-282.305 C407.059,-279.997 409.351,-277.785 411.35,-275.671 C413.349,-273.557 415.378,-271.495 417.437,-269.486 C419.496,-267.477 421.683,-265.326 423.998,-263.032 C426.312,-260.738 429.183,-258.197 432.609,-255.409 C438.74,-250.523 443.892,-247.587 448.067,-246.601 C452.241,-245.616 456.518,-246.522 460.898,-249.319 C469.597,-255.785 479.871,-263.304 491.719,-271.875 C503.568,-280.446 516.234,-289.597 529.718,-299.326 C543.201,-309.055 557.24,-319.025 571.833,-329.236 C586.427,-339.447 600.819,-349.425 615.008,-359.17 C629.197,-368.916 642.981,-378.195 656.36,-387.008 C669.74,-395.822 681.815,-403.568 692.585,-410.246 C698.224,-414.276 702.647,-418.86 705.853,-423.998 C709.059,-429.136 709.562,-435.397 707.361,-442.78 C704.982,-448.872 702.235,-454.685 699.121,-460.221 C696.006,-465.756 692.69,-471.059 689.171,-476.128 C683.999,-482.697 679.625,-486.512 676.051,-487.573 C672.477,-488.635 667.255,-486.804 660.386,-482.082 C655.106,-478.683 648.439,-474.194 640.384,-468.615 C632.33,-463.035 623.286,-456.697 613.252,-449.599 C603.218,-442.501 592.479,-434.899 581.035,-426.794 C569.591,-418.688 557.945,-410.35 546.096,-401.778 C534.248,-393.207 522.481,-384.658 510.798,-376.132 C499.114,-367.606 488.128,-359.449 477.84,-351.66 C485.751,-363.589 493.895,-375.804 502.271,-388.304 C510.647,-400.804 518.551,-412.598 525.983,-423.686 C533.416,-434.773 539.904,-444.449 545.448,-452.712 C550.992,-460.976 554.782,-466.895 556.82,-470.47 C558.617,-473.625 560.122,-476.389 561.335,-478.762 C562.548,-481.136 563.266,-483.373 563.489,-485.475 C563.711,-487.577 563.393,-489.708 562.535,-491.869 C561.677,-494.03 560.03,-496.64 557.594,-499.699 C553.234,-505.248 549.423,-509.927 546.16,-513.736 C542.898,-517.545 538.577,-521.818 533.197,-526.555 C527.937,-531.502 523.422,-534.214 519.654,-534.689 C515.885,-535.165 511.421,-533.808 506.261,-530.619 C499.78,-527.069 490.563,-521.038 478.609,-512.526 C466.655,-504.015 453.562,-494.481 439.329,-483.925 C425.096,-473.37 410.458,-462.348 395.416,-450.86 C380.373,-439.373 366.463,-428.772 353.685,-419.059 Z " fill="#bc5757" fill-opacity="1.00" />				<path d="M569.873,-132.008 C563.612,-127.703 557.869,-123.701 552.645,-120.003 C547.421,-116.305 542.682,-112.783 538.429,-109.439 C534.335,-106.188 531.854,-103.291 530.986,-100.749 C530.118,-98.2068 530.245,-94.6947 531.368,-90.2126 C532.238,-85.7967 533.58,-81.7638 535.394,-78.114 C537.208,-74.4643 539.328,-70.5654 541.754,-66.4175 C544.181,-62.2695 546.302,-59.9239 548.119,-59.3806 C549.935,-58.8374 552.28,-59.4056 555.151,-61.0854 C568.778,-69.2707 583.631,-78.013 599.711,-87.3121 C615.792,-96.6113 631.902,-105.767 648.042,-114.781 C664.182,-123.794 679.778,-132.274 694.828,-140.222 C709.879,-148.169 723.348,-154.977 735.235,-160.646 C740.141,-162.874 743.634,-165.506 745.712,-168.541 C747.791,-171.577 748.261,-176.081 747.123,-182.054 C745.933,-186.283 744.847,-190.519 743.864,-194.762 C742.881,-199.005 741.632,-203.52 740.116,-208.307 C738.6,-213.095 736.708,-218.251 734.44,-223.777 C732.171,-229.302 729.284,-235.428 725.776,-242.156 C722.028,-250.027 717.678,-255.084 712.727,-257.326 C707.775,-259.569 702.445,-260.627 696.738,-260.5 C680.853,-260.201 663.043,-259.258 643.308,-257.671 C623.574,-256.084 603.733,-254.221 583.786,-252.081 C563.839,-249.942 544.651,-247.603 526.221,-245.066 C507.791,-242.53 491.952,-239.956 478.705,-237.346 C474.794,-236.343 471.865,-235.219 469.918,-233.972 C467.97,-232.726 466.592,-231.331 465.782,-229.786 C464.972,-228.242 464.549,-226.495 464.511,-224.546 C464.474,-222.597 464.377,-220.292 464.22,-217.631 C464.437,-214.332 464.75,-211.143 465.16,-208.063 C465.569,-204.984 465.982,-202.174 466.397,-199.633 C467.268,-195.217 468.479,-192.232 470.03,-190.677 C471.582,-189.123 474.087,-188.5 477.546,-188.811 C483.958,-189.563 490.536,-190.307 497.28,-191.04 C504.024,-191.773 511.441,-192.364 519.529,-192.813 C527.242,-185.119 535.412,-175.82 544.039,-164.914 C552.667,-154.008 561.278,-143.04 569.873,-132.008 Z M576.638,-197.313 C596.18,-198.68 615.181,-199.784 633.639,-200.625 C652.098,-201.465 669.016,-202.101 684.395,-202.532 C671.446,-195.386 658.517,-187.929 645.608,-180.164 C632.699,-172.399 619.797,-164.53 606.901,-156.559 C602.13,-163.618 597.222,-170.543 592.178,-177.335 C587.135,-184.128 581.955,-190.787 576.638,-197.313 Z " fill="#bc5757" fill-opacity="1.00" />				<path d="M651.514,51.4829 C658.715,47.1246 666.259,42.648 674.146,38.0531 C682.033,33.4583 689.718,29.0186 697.2,24.7339 C704.682,20.4493 711.645,16.5143 718.088,12.9289 C724.532,9.34352 729.834,6.4074 733.994,4.12055 C739.475,1.20813 743.361,-1.75196 745.652,-4.75973 C747.943,-7.7675 749.265,-11.9772 749.619,-17.3889 C750.367,-24.131 750.66,-30.4604 750.498,-36.377 C750.337,-42.2937 750.122,-48.3628 749.855,-54.5845 C749.446,-59.7334 748.197,-63.4835 746.107,-65.8348 C744.017,-68.1861 740.5,-69.1072 735.556,-68.5982 C727.046,-67.5429 717.38,-66.1316 706.556,-64.3642 C695.732,-62.5968 684.54,-60.6599 672.98,-58.5535 C661.42,-56.447 649.861,-54.213 638.303,-51.8515 C626.745,-49.49 615.927,-47.2125 605.847,-45.0189 C595.767,-42.8254 586.796,-40.7578 578.933,-38.8163 C571.07,-36.8747 565.027,-35.3469 560.804,-34.2328 C556.733,-33.1714 553.789,-31.6876 551.971,-29.7815 C550.154,-27.8755 548.984,-24.9555 548.463,-21.0218 C547.536,-16.7778 547.221,-12.6165 547.517,-8.53792 C547.813,-4.45935 548.135,-0.432038 548.481,3.54399 C548.78,7.87765 549.509,10.6126 550.668,11.7488 C551.828,12.8851 553.809,13.3115 556.612,13.0281 C562.366,11.8986 569.165,10.7076 577.01,9.45494 C584.854,8.20231 593.361,6.89198 602.531,5.52394 C611.7,4.1559 621.316,2.71959 631.377,1.215 C641.438,-0.289587 651.486,-1.83231 661.521,-3.41316 C654.273,1.30278 647.115,6.15811 640.049,11.1528 C632.982,16.1475 626.22,21.0371 619.763,25.8216 C613.307,30.6061 607.333,35.1816 601.841,39.5482 C596.349,43.9148 591.607,47.9805 587.615,51.7452 C582.002,56.7507 579.056,63.0559 578.775,70.6606 C578.705,78.8755 579.193,86.7276 580.237,94.2169 C581.245,103.084 584.805,106.977 590.916,105.895 C602.434,104.656 615.839,103.322 631.13,101.892 C646.422,100.462 662.109,99.0665 678.192,97.7052 C694.275,96.344 710.142,95.0996 725.794,93.9723 C741.446,92.845 755.519,92.0907 768.015,91.7095 C772.402,91.5631 775.914,90.7369 778.551,89.2307 C781.189,87.7245 783.119,84.2867 784.34,78.9173 C785.124,75.7462 785.709,72.9853 786.093,70.6345 C786.478,68.2837 786.749,66.0999 786.907,64.083 C787.065,62.0661 787.058,60.0637 786.885,58.0757 C786.712,56.0876 786.536,53.8445 786.358,51.3464 C785.896,46.045 784.698,42.3199 782.763,40.1711 C780.828,38.0223 777.438,37.0999 772.595,37.4039 C754.75,38.6044 735.367,40.2923 714.445,42.4678 C693.524,44.6432 672.547,47.6482 651.514,51.4829 Z " fill="#bc5757" fill-opacity="1.00" />				<path d="M733.697,289.964 C736.774,289.695 740.544,289.139 745.006,288.294 C749.469,287.449 754.078,286.454 758.834,285.31 C763.589,284.166 768.284,282.845 772.918,281.347 C777.551,279.849 781.696,278.37 785.353,276.912 C792.13,273.585 797.923,269.707 802.734,265.275 C807.545,260.844 811.303,254.794 814.009,247.127 C815.566,243.025 816.764,238.601 817.604,233.855 C818.444,229.109 818.927,224.188 819.053,219.094 C819.178,214 819.037,208.849 818.629,203.642 C818.22,198.434 817.488,193.438 816.433,188.651 C815.865,185.282 814.941,181.738 813.659,178.02 C812.378,174.302 810.815,170.632 808.972,167.008 C807.129,163.385 804.858,159.958 802.16,156.729 C799.463,153.499 796.325,150.718 792.748,148.386 C782.072,140.974 770.242,135.098 757.258,130.759 C744.274,126.42 730.903,123.403 717.147,121.708 C703.39,120.012 689.692,119.634 676.051,120.572 C662.41,121.511 649.417,123.612 637.074,126.877 C624.73,130.141 613.507,134.505 603.407,139.968 C593.306,145.43 585.065,151.836 578.685,159.185 C574.582,163.372 571.198,168.352 568.533,174.124 C565.868,179.895 564.089,185.51 563.197,190.967 C561.987,205.844 562.846,220.404 565.775,234.646 C567.398,242.802 570.005,250.222 573.597,256.907 C577.189,263.592 581.853,269.511 587.591,274.664 C596.851,282.565 608.345,288.903 622.074,293.678 C635.803,298.453 651.763,301.37 669.955,302.428 C675.107,302.435 679.261,301.845 682.417,300.658 C685.574,299.471 688.669,296.671 691.703,292.257 C693.279,289.932 694.985,287.412 696.823,284.699 C698.661,281.985 700.364,279.17 701.934,276.252 C704.376,271.845 705.443,267.614 705.135,263.561 C704.828,259.507 703.194,254.624 700.233,248.909 C697.578,244.08 694.632,238.262 691.394,231.455 C688.157,224.648 684.701,218.214 681.026,212.151 C679.275,208.793 677.689,205.775 676.27,203.094 C674.851,200.414 673.408,198.238 671.94,196.565 C670.472,194.892 668.937,193.886 667.334,193.547 C665.732,193.208 663.902,193.79 661.844,195.291 C652.913,202.133 647.314,209.164 645.048,216.382 C642.783,223.601 643.746,232.43 647.939,242.869 C641.12,242.05 634.639,240.917 628.495,239.47 C622.35,238.022 616.928,236.227 612.228,234.083 C607.528,231.94 603.786,229.417 601.002,226.514 C598.219,223.611 596.809,220.383 596.773,216.83 C596.731,212.685 599.043,208.62 603.711,204.634 C608.378,200.648 614.457,197.166 621.948,194.188 C629.439,191.21 637.883,188.843 647.281,187.089 C656.68,185.335 666.146,184.499 675.682,184.579 C687.464,184.281 699.091,184.829 710.565,186.222 C722.038,187.615 732.363,189.553 741.538,192.036 C750.713,194.518 758.131,197.507 763.793,201.003 C769.454,204.498 772.364,208.2 772.522,212.107 C772.602,214.06 771.597,215.743 769.509,217.156 C767.421,218.569 764.817,220.21 761.698,222.077 C759.988,222.865 758.279,223.652 756.57,224.439 C754.86,225.226 753.032,225.956 751.084,226.627 C749.076,227.121 747.246,227.703 745.595,228.371 C743.943,229.039 742.293,229.855 740.645,230.82 C731.921,234.817 725.807,240.639 722.302,248.285 C718.797,255.93 718.295,266.255 720.796,279.258 C721.968,283.806 723.419,286.722 725.15,288.008 C726.88,289.293 729.729,289.945 733.697,289.964 Z " fill="#bc5757" fill-opacity="1.00" />				<g>					<path d="M-151.615,224.294 C-116.616,233.414 -77.0876,256.911 -69.4715,255.385 C-63.3295,255.35 -54.5535,234.332 -65.2034,223.802 C-75.8533,213.273 -201.667,175.229 -272.176,216.084 C-272.176,216.084 -184.917,215.588 -151.615,224.294 Z " fill="#222327" fill-opacity="1.00" />					<path d="M172.902,222.447 C138.009,231.965 98.7501,255.91 91.1171,254.471 C84.9751,254.506 75.9605,233.589 86.4899,222.939 C97.0193,212.289 222.392,172.816 293.361,212.866 C293.361,212.866 206.103,213.363 172.902,222.447 Z " fill="#222327" fill-opacity="1.00" />					<path d="M323.492,230.993 L-308.994,234.592 C-328.98,267.123 -343.182,303.224 -351.61,341.452 L-327.837,341.317 L-327.804,347.08 C-327.513,398.227 -284.782,438.325 -235.797,438.047 L-96.7651,437.256 C-48.5002,436.981 -11.2499,400.029 -5.73286,356.774 C-1.50901,339.46 7.13545,339.411 7.13545,339.411 C7.13545,339.411 15.7799,339.362 20.2005,356.626 C26.2217,401.977 66.0389,436.329 112.143,436.067 L254.056,435.26 C305.202,434.968 345.301,392.237 345.022,343.252 L344.99,337.489 L368.762,337.354 C359.888,297.062 343.847,263.295 323.492,230.993 Z M-33.897,344.687 C-33.6962,379.986 -60.9145,407.516 -96.2127,407.716 L-235.244,408.507 C-270.543,408.708 -298.072,381.49 -298.273,346.192 L-298.38,327.462 C-298.581,292.164 -271.362,264.634 -236.064,264.433 L-97.0325,263.642 C-61.7343,263.441 -34.2044,290.66 -34.0036,325.958 L-33.897,344.687 Z M316.924,342.691 C317.125,377.989 289.906,405.519 254.608,405.72 L115.576,406.511 C80.2783,406.712 52.7484,379.494 52.5475,344.196 L52.441,325.466 C52.2401,290.168 79.4585,262.638 114.757,262.437 L253.788,261.646 C289.087,261.445 316.616,288.663 316.817,323.962 L316.924,342.691 Z " fill="#4a3635" fill-opacity="1.00" />					<path d="M4.38246,-397.636 C-283.618,-395.997 -516.432,-160.518 -514.793,127.482 L-511.756,661.336 L-343.17,660.376 L-345.675,220.181 C-146.77,197.975 6.81389,29.6813 5.64814,-175.197 C6.80723,28.5106 162.303,196.217 361.448,216.157 L363.952,656.353 L532.538,655.394 L529.5,121.54 C526.684,-167.625 292.383,-399.275 4.38246,-397.636 Z " fill="#222327" fill-opacity="1.00" />					<path d="M34.6002,594.925 C18.7293,595.016 -15.6935,585.857 -26.1575,575.616 L-33.4545,586.273 C-33.4545,586.273 1.89577,610.668 30.2509,606.407 C58.3959,602.148 71.6014,576.951 71.6014,576.951 C71.6014,576.951 49.8375,594.313 34.6002,594.925 Z " fill="#a63131" fill-opacity="1.00" />				</g>			</g>		</g>	</svg>