<?xml version="1.0" encoding="UTF-8"?>
<!DOCTYPE svg PUBLIC "-//W3C//DTD SVG 1.1//EN"
  "http://www.w3.org/Graphics/SVG/1.1/DTD/svg11.dtd">
<!-- Created with Inkpad (http://www.taptrix.com/) --><svg xmlns:inkpad="http://taptrix.com/inkpad/svg_extensions" height="200pt" xmlns:xlink="http://www.w3.org/1999/xlink" xmlns="http://www.w3.org/2000/svg" width="200pt" version="1.1" viewBox="0,0,200,200">
<defs/>
<g id="Untitled" inkpad:layerName="Untitled" visibility="hidden">
<path d="M0+0M0+0L199.319+0L199.319+0L199.319+199.319L199.319+199.319L0+199.319L0+199.319L0+0L0+0Z" opacity="1" fill="#ffffff"/>
</g>
<g id="document" inkpad:layerName="document">
<g opacity="1">
<path d="M99.0198+99.84M36.3424+61.4633L36.3423+138.523L161.697+138.523L161.697+61.4634L36.3424+61.4633Z" opacity="1" fill="#dce8eb"/>
<path d="M99.0198+99.84M36.3423+138.523L161.697+138.523L122.264+101.599C111.563+91.5789+86.4766+91.5789+75.7756+101.599L36.3423+138.523Z" opacity="1" fill="#ecf1f2"/>
<path d="M99.0198+99.84M161.697+61.1567L36.3424+61.1566L75.7756+98.0809C86.4766+108.101+111.563+108.101+122.264+98.081L161.697+61.1567Z" opacity="1" fill="#f7f9fe"/>
</g>
</g>
</svg>
