<?xml version="1.0" encoding="utf-8" ?>	<!-- Generator: Assembly 1.8 - http://assemblyapp.co -->	<svg version="1.1" xmlns="http://www.w3.org/2000/svg" xmlns:xlink="http://www.w3.org/1999/xlink" width="1536.00" height="2048.00" viewBox="0 0 1536.0 2048.0">		<rect x="0" y="0" width="1536.00" height="2048.00" fill="#ffffff" />		<g id="document" transform="matrix(1,0,0,1,768.0,1024.0)">			<g>				<path d="M338.466,-34.4453 L334.234,-41.7759 L351.763,-51.8967 L344.403,-64.6455 L326.873,-54.5247 L322.641,-61.8553 L340.17,-71.976 L332.81,-84.7249 L315.28,-74.6041 L311.048,-81.9347 L328.578,-92.0554 L256.076,-217.631 L209.862,-190.949 L337.383,29.9239 C326.021,41.1584 323.636,59.1089 331.916,73.4513 L344.245,94.8056 L351.576,90.5733 C357.632,87.077 359.652,79.536 356.156,73.4803 L351.372,65.1936 C349.531,62.0064 350.609,57.9845 353.796,56.1444 L370.726,85.4667 L355.108,94.4834 C349.053,97.9796 347.032,105.521 350.528,111.576 L354.761,118.907 L385.358,101.242 C387.014,104.11 386.071,107.629 383.202,109.285 L365.354,119.59 C359.298,123.086 357.278,130.627 360.774,136.683 L365.006,144.014 L395.285,126.532 C420.145,112.179 428.95,80.323 414.413,55.1441 L356.449,-45.2528 L338.282,-34.7641 L338.466,-34.4453 Z " fill="#f1d4af" fill-opacity="1.00" />				<path d="M-320.049,-23.8765 L-315.816,-31.2071 L-333.346,-41.3278 L-325.985,-54.0766 L-308.456,-43.9559 L-304.223,-51.2865 L-321.753,-61.4072 L-314.392,-74.156 L-296.863,-64.0353 L-292.631,-71.3659 L-310.16,-81.4866 L-237.659,-207.062 L-191.444,-180.381 L-318.966,40.4928 C-307.604,51.7272 -305.218,69.6777 -313.499,84.0202 L-325.828,105.374 L-333.159,101.142 C-339.214,97.6459 -341.235,90.1049 -337.739,84.0492 L-332.954,75.7624 C-331.114,72.5752 -332.192,68.5534 -335.379,66.7132 L-352.308,96.0355 L-336.691,105.052 C-330.635,108.548 -328.615,116.089 -332.111,122.145 L-336.343,129.476 L-366.94,111.81 C-368.596,114.679 -367.654,118.198 -364.785,119.854 L-346.937,130.159 C-340.881,133.655 -338.86,141.196 -342.357,147.252 L-346.589,154.582 L-376.867,137.101 C-401.728,122.748 -410.533,90.8919 -395.996,65.7129 L-338.032,-34.684 L-319.865,-24.1952 L-320.049,-23.8765 Z " fill="#f1d4af" fill-opacity="1.00" />				<path d="M102.669,469.692 C91.5674,469.692 82.5027,489.763 82.5027,514.345 L82.5027,648.08 C82.5027,672.662 91.5674,692.734 102.669,692.734 C113.771,692.734 122.835,672.662 122.835,648.08 L122.835,514.345 C122.835,489.763 113.771,469.692 102.669,469.692 Z " fill="#f1d4af" fill-opacity="1.00" />				<path d="M16.502,924.477 C174.442,924.477 302.478,863.704 302.478,788.737 C302.478,713.77 174.442,652.997 16.502,652.997 C-141.438,652.997 -269.474,713.77 -269.474,788.737 C-269.474,863.704 -141.438,924.477 16.502,924.477 Z " fill="#bebebe" fill-opacity="1.00" />				<path d="M-71.1912,469.692 C-82.2929,469.692 -91.3575,489.763 -91.3575,514.345 L-91.3576,648.08 C-91.3576,672.662 -82.2929,692.734 -71.1912,692.734 C-60.0896,692.734 -51.0249,672.662 -51.0249,648.08 L-51.0249,514.345 C-51.0249,489.763 -60.0896,469.692 -71.1912,469.692 Z " fill="#f1d4af" fill-opacity="1.00" />				<g>					<path d="M39.188,-40.4009 L-15.8021,-40.4009 L-126.422,-40.4009 L-126.422,80.8918 L-126.422,563.045 L-15.8021,563.045 L-15.8021,106.84 C-15.8021,92.3573 -3.65311,80.8918 11.693,80.8918 C27.039,80.8918 39.188,92.3573 39.188,106.84 L39.188,563.045 L149.807,563.045 L149.807,80.8918 L149.807,-40.4009 L39.188,-40.4009 Z " fill="#345b7d" fill-opacity="1.00" />					<path d="M30.9978,551.148 C30.9978,562.203 31.298,571.229 48.2446,571.229 L140.44,571.229 C157.387,571.229 158.695,562.203 158.695,551.148 C158.695,540.094 157.387,531.068 140.44,531.068 L48.2446,531.068 C31.298,531.068 30.9978,540.094 30.9978,551.148 Z " fill="#bed2d9" fill-opacity="1.00" />					<path d="M-135.04,551.148 C-135.04,562.203 -134.74,571.229 -117.793,571.229 L-25.5971,571.229 C-8.65044,571.229 -7.34277,562.203 -7.34277,551.148 C-7.34277,540.094 -8.65044,531.068 -25.5971,531.068 L-117.793,531.068 C-134.74,531.068 -135.04,540.094 -135.04,551.148 Z " fill="#bed2d9" fill-opacity="1.00" />				</g>				<g>					<g>						<g>							<path d="M16.2008,-972.613 C-92.2789,-972.613 -180.67,-884.222 -180.67,-775.742 L-180.67,-499.856 C-180.67,-390.706 -91.6093,-302.985 16.2008,-302.985 C124.011,-302.985 213.071,-391.376 213.071,-499.856 L213.071,-775.742 C213.741,-884.222 124.681,-972.613 16.2008,-972.613 Z " fill="#000000" fill-opacity="1.00" />							<path d="M179.72,-667.123 L179.72,-784.421 C179.72,-812.908 156.679,-835.53 128.611,-835.53 L-92.998,-835.53 C-121.485,-835.53 -144.106,-812.489 -144.106,-784.421 L-144.106,-667.123 C-170.498,-667.123 -191.444,-645.759 -191.444,-619.785 C-191.444,-593.393 -170.079,-572.447 -144.106,-572.447 L-144.106,-570.353 C-144.106,-498.298 -85.8763,-440.068 -13.8219,-440.068 L49.8541,-440.068 C121.908,-440.068 180.139,-498.298 180.139,-570.353 L180.139,-572.447 C206.531,-572.447 227.477,-593.812 227.477,-619.785 C227.058,-645.758 205.693,-667.123 179.72,-667.123 Z " fill="#f1d4af" fill-opacity="1.00" />							<path d="M-56.9708,-761.68 L-36.0247,-708.766 L227.477,-708.766 C227.477,-807.538 170.503,-886.909 100.544,-886.909 L-64.5113,-886.909 C-134.89,-886.909 -191.444,-806.95 -191.444,-708.178 L-79.5925,-708.178 L-56.9708,-761.68 Z " fill="#000000" fill-opacity="1.00" />						</g>						<path d="M-15.0785,-442.464 L-15.0785,-385.634 C-15.0785,-354.228 0.182294,-328.804 19.0339,-328.804 C37.8855,-328.804 53.1463,-354.228 53.1463,-385.634 L53.1463,-442.464 L-15.0785,-442.464 L-15.0785,-442.464 Z " fill="#f1d4af" fill-opacity="1.00" />					</g>					<path d="M163.692,-591.757 C163.692,-573.201 179.061,-557.832 197.804,-557.832 L197.804,-676.85 C197.804,-714.336 166.878,-745.075 129.58,-745.075 L129.58,-591.757 C129.58,-573.014 144.949,-557.644 163.692,-557.644 L163.692,-591.757 Z " fill="#000000" fill-opacity="1.00" />					<path d="M-131.295,-591.757 C-131.295,-573.201 -146.664,-557.832 -165.407,-557.832 L-165.407,-676.85 C-165.407,-714.336 -134.481,-745.075 -97.1823,-745.075 L-97.1823,-591.757 C-97.1823,-573.014 -112.552,-557.644 -131.295,-557.644 L-131.295,-591.757 Z " fill="#000000" fill-opacity="1.00" />				</g>				<g>					<path d="M406.334,-13.2945 L231.499,-339.04 C213.095,-373.087 178.128,-393.331 140.401,-393.331 L-115.411,-393.331 C-154.979,-393.331 -190.866,-371.247 -208.349,-336.279 L-370.302,-13.2945 L-270.002,-13.2945 L-153.138,-231.378 C-144.857,-247.022 -120.932,-241.5 -120.932,-223.097 L-137.438,13.8646 L160.072,13.8646 L145.002,-220.336 C145.002,-238.74 168.926,-244.261 177.208,-228.618 L293.151,-12.3743 L406.334,-12.3743 L406.334,-13.2945 Z " fill="#231728" fill-opacity="1.00" />					<path d="M59.2249,-359.973 L75.608,-393.331 L28.1199,-393.331 L59.2249,-359.973 Z " fill="#97aec3" fill-opacity="1.00" />					<path d="M-23.3537,-360.366 L-39.7368,-393.724 L7.75133,-393.724 L-23.3537,-360.366 Z " fill="#97aec3" fill-opacity="1.00" />					<path d="M-374.397,3.23879 L-287.909,28.9105 L-261.012,-21.9578 L-369.186,-54.066 L-374.397,3.23879 Z " fill="#97aec3" fill-opacity="1.00" />					<path d="M306.496,17.3712 L407.401,-12.1373 L404.255,-69.8512 L278.05,-32.9444 L306.496,17.3712 Z " fill="#97aec3" fill-opacity="1.00" />				</g>				<path d="M227.477,786.449 C227.477,760.007 205.949,738.48 179.507,738.48 L139.026,738.48 L139.026,631.076 L145.344,631.076 C147.918,631.076 150.024,628.97 150.024,626.396 L150.024,603.698 C150.024,601.124 147.918,599.018 145.344,599.018 L55.7236,599.018 C53.1496,599.018 51.0437,601.124 51.0437,603.698 L51.0437,626.162 C51.0437,628.736 53.1496,630.842 55.7236,630.842 L62.0415,630.842 L62.0415,786.215 L227.477,786.215 L227.477,786.449 Z " fill="#000000" fill-opacity="1.00" />				<path d="M-197.464,786.449 C-197.464,760.007 -175.936,738.48 -149.495,738.48 L-109.013,738.48 L-109.013,631.076 L-115.331,631.076 C-117.905,631.076 -120.011,628.97 -120.011,626.396 L-120.011,603.698 C-120.011,601.124 -117.905,599.018 -115.331,599.018 L-25.7107,599.018 C-23.1368,599.018 -21.0308,601.124 -21.0308,603.698 L-21.0308,626.162 C-21.0308,628.736 -23.1368,630.842 -25.7107,630.842 L-32.0286,630.842 L-32.0286,786.215 L-197.464,786.215 L-197.464,786.449 Z " fill="#000000" fill-opacity="1.00" />			</g>			<g>				<path d="M572.143,829.25 C627.619,829.25 672.591,807.903 672.591,781.571 C672.591,755.239 627.619,733.893 572.143,733.893 C516.667,733.893 471.695,755.239 471.695,781.571 C471.695,807.903 516.667,829.25 572.143,829.25 Z " fill="#bebebe" fill-opacity="1.00" />				<path d="M572.143,126.33 C561.055,126.33 552.067,133.559 552.067,142.76 L552.067,759.883 C552.067,771.713 561.055,781.571 572.143,781.571 C583.232,781.571 592.22,771.713 592.22,759.883 L592.22,142.76 C592.22,133.559 583.232,126.33 572.143,126.33 Z " fill="#7f0b0b" fill-opacity="1.00" />				<path d="M566.823,715.853 C585.89,718.793 603.704,705.738 606.644,686.672 C609.584,667.605 596.529,649.791 577.463,646.851 C558.397,643.911 540.582,656.965 537.642,676.032 C534.702,695.098 547.757,712.913 566.823,715.853 Z " fill="#7f0b0b" fill-opacity="1.00" />				<path d="M625.302,787.052 C625.302,757.675 601.52,733.893 572.143,733.893 C542.766,733.893 518.984,757.675 518.984,787.052 L625.302,787.052 Z " fill="#7f0b0b" fill-opacity="1.00" />				<path d="M586.116,709.639 L558.17,709.639 C546.568,709.639 537.229,716.37 537.229,724.731 C537.229,733.093 546.568,739.823 558.17,739.823 L586.116,739.823 C597.719,739.823 607.058,733.093 607.058,724.731 C607.058,716.421 597.719,709.639 586.116,709.639 Z " fill="#7f0b0b" fill-opacity="1.00" />				<path d="M652.223,336.722 C666.055,336.722 677.218,325.317 677.461,311.728 L677.461,151.567 C677.461,137.735 666.298,126.33 652.223,126.33 L492.063,126.33 C478.231,126.33 466.826,137.493 466.826,151.567 L466.826,311.485 C466.826,325.317 477.988,336.722 492.063,336.722 L652.223,336.722 Z " fill="#bc5757" fill-opacity="1.00" />				<path d="M499.583,167.118 L644.703,167.118 L644.703,150.247 L499.583,150.247 L499.583,167.118 Z " fill="#7f0b0b" fill-opacity="1.00" />			</g>		</g>	</svg>