<?xml version="1.0" encoding="utf-8" ?>	<!-- Generator: Assembly 1.8 - http://assemblyapp.co -->	<svg version="1.1" xmlns="http://www.w3.org/2000/svg" xmlns:xlink="http://www.w3.org/1999/xlink" width="2048.00" height="1152.00" viewBox="0 0 2048.0 1151.9999914169312">		<g id="document" transform="matrix(1,0,0,1,1024.0,575.9999957084656)">			<g>				<g>					<g>						<path d="M594.099,169.205 C667.478,169.205 945.933,105.386 947.22,93.8276 L947.22,51.2514 C947.22,39.4862 668.765,-9.74962 594.099,-9.74962 L-255.543,-9.74962 C-328.921,-9.74962 -389.426,-0.254913 -389.426,11.7167 L-389.426,147.739 C-389.426,159.504 -330.208,169.205 -255.543,169.205 L594.099,169.205 Z " fill="#ccdbe0" fill-opacity="1.00" />						<path d="M104.989,79.6244 C178.368,79.6244 237.585,69.9233 238.872,58.3646 L238.872,-77.8638 C238.872,-89.629 179.655,-99.3301 104.989,-99.3301 L-744.653,-99.3301 C-818.031,-99.3301 -947.22,-33.6389 -947.22,-21.6673 L-947.22,19.1328 C-947.22,30.898 -819.318,79.6244 -744.653,79.6244 L104.989,79.6244 Z " fill="#dce8eb" fill-opacity="1.00" />						<g>							<path d="M-788.541,-77.1153 C-813.058,-77.1153 -832.933,-57.2407 -832.933,-32.7241 C-832.933,-8.20754 -813.058,11.6671 -788.541,11.6671 C-764.025,11.6671 -744.15,-8.20754 -744.15,-32.7241 C-744.15,-57.2407 -764.025,-77.1153 -788.541,-77.1153 Z " fill="#ffffff" fill-opacity="1.00" />							<path d="M-832.933,-32.7241 C-832.933,-8.21545 -813.05,11.6671 -788.541,11.6671 C-764.033,11.6671 -744.15,-8.21545 -744.15,-32.7241 C-744.15,-57.2327 -764.033,-77.1153 -788.541,-77.1153 C-813.05,-77.1153 -832.933,-57.2327 -832.933,-32.7241 Z M-788.541,2.51323 C-808.03,2.51323 -823.779,-13.3337 -823.779,-32.7241 C-823.779,-52.2129 -807.932,-67.9614 -788.541,-67.9614 C-769.151,-67.9614 -753.304,-52.1145 -753.304,-32.7241 C-753.304,-13.3337 -769.151,2.51323 -788.541,2.51323 Z M-814.822,-32.7241 C-814.822,-18.2551 -803.01,-6.44374 -788.541,-6.44374 C-774.073,-6.44374 -762.261,-18.2551 -762.261,-32.7241 C-762.261,-47.1931 -774.073,-59.0045 -788.541,-59.0045 C-803.01,-59.0045 -814.822,-47.1931 -814.822,-32.7241 Z " fill="#000000" fill-opacity="1.00" />						</g>						<path d="M-702.02,-99.3301 L-687.868,-204.661 C-687.51,-204.661 -687.152,-204.482 -686.794,-204.482 C-682.673,-204.482 -679.449,-207.885 -679.449,-211.826 C-679.449,-215.946 -682.853,-219.17 -686.794,-219.17 C-690.735,-219.17 -694.138,-215.767 -694.138,-211.826 C-694.138,-208.781 -692.347,-206.094 -689.66,-205.019 L-717.605,-138.381 L-732.831,-260.371 C-728.353,-260.909 -724.949,-264.67 -724.949,-269.328 C-724.949,-274.344 -729.069,-278.285 -733.906,-278.285 C-738.921,-278.285 -742.862,-274.164 -742.862,-269.328 C-742.862,-264.67 -739.459,-260.909 -734.981,-260.371 L-750.386,-138.381 L-778.331,-205.198 C-775.644,-206.273 -773.853,-208.96 -773.853,-212.005 C-773.853,-216.125 -777.256,-219.35 -781.197,-219.35 C-785.317,-219.35 -788.541,-215.946 -788.541,-212.005 C-788.541,-207.885 -785.138,-204.661 -781.197,-204.661 C-780.839,-204.661 -780.48,-204.661 -780.122,-204.84 L-765.971,-99.5092 L-702.02,-99.3301 Z " fill="#fd7977" fill-opacity="1.00" />						<path d="M-679.449,-99.3301 L-658.844,-99.3301 L-658.844,-138.686 L-679.449,-138.686 L-679.449,-99.3301 Z M-638.551,-99.3301 L-617.945,-99.3301 L-617.945,-138.686 L-638.551,-138.686 L-638.551,-99.3301 Z M-597.028,-99.3301 L-576.422,-99.3301 L-576.422,-138.686 L-597.028,-138.686 L-597.028,-99.3301 Z M-556.129,-99.3301 L-535.524,-99.3301 L-535.524,-138.686 L-556.129,-138.686 L-556.129,-99.3301 Z M-514.919,-99.3301 L-494.313,-99.3301 L-494.313,-138.686 L-514.919,-138.686 L-514.919,-99.3301 Z M-473.708,-99.3301 L-453.102,-99.3301 L-453.102,-138.686 L-473.708,-138.686 L-473.708,-99.3301 Z M-432.497,-99.3301 L-411.892,-99.3301 L-411.892,-138.686 L-432.497,-138.686 L-432.497,-99.3301 Z M-391.599,-99.3301 L-370.993,-99.3301 L-370.993,-138.686 L-391.599,-138.686 L-391.599,-99.3301 Z " fill="#fd7977" fill-opacity="1.00" />						<path d="M-354.174,-99.3301 L-333.569,-99.3301 L-333.569,-138.686 L-354.174,-138.686 L-354.174,-99.3301 Z M-313.275,-99.3301 L-292.67,-99.3301 L-292.67,-138.686 L-313.275,-138.686 L-313.275,-99.3301 Z M-271.752,-99.3301 L-251.147,-99.3301 L-251.147,-138.686 L-271.752,-138.686 L-271.752,-99.3301 Z M-230.854,-99.3301 L-210.249,-99.3301 L-210.249,-138.686 L-230.854,-138.686 L-230.854,-99.3301 Z M-189.643,-99.3301 L-169.038,-99.3301 L-169.038,-138.686 L-189.643,-138.686 L-189.643,-99.3301 Z M-148.432,-99.3301 L-127.827,-99.3301 L-127.827,-138.686 L-148.432,-138.686 L-148.432,-99.3301 Z M-107.222,-99.3301 L-86.6164,-99.3301 L-86.6164,-138.686 L-107.222,-138.686 L-107.222,-99.3301 Z M-66.3233,-99.3301 L-45.718,-99.3301 L-45.718,-138.686 L-66.3233,-138.686 L-66.3233,-99.3301 Z " fill="#fd7977" fill-opacity="1.00" />						<path d="M-103.926,-99.3301 L-83.3204,-99.3301 L-83.3204,-138.686 L-103.926,-138.686 L-103.926,-99.3301 Z M-63.0273,-99.3301 L-42.4219,-99.3301 L-42.4219,-138.686 L-63.0273,-138.686 L-63.0273,-99.3301 Z M-21.5042,-99.3301 L-0.898817,-99.3301 L-0.898817,-138.686 L-21.5042,-138.686 L-21.5042,-99.3301 Z M19.3943,-99.3301 L39.9996,-99.3301 L39.9996,-138.686 L19.3943,-138.686 L19.3943,-99.3301 Z M60.6049,-99.3301 L81.2102,-99.3301 L81.2102,-138.686 L60.6049,-138.686 L60.6049,-99.3301 Z M101.816,-99.3301 L122.421,-99.3301 L122.421,-138.686 L101.816,-138.686 L101.816,-99.3301 Z M143.026,-99.3301 L163.632,-99.3301 L163.632,-138.686 L143.026,-138.686 L143.026,-99.3301 Z M183.925,-99.3301 L204.53,-99.3301 L204.53,-138.686 L183.925,-138.686 L183.925,-99.3301 Z " fill="#fd7977" fill-opacity="1.00" />						<path d="M246.678,-9.74962 L267.283,-9.74962 L267.283,-49.1055 L246.678,-49.1055 L246.678,-9.74962 Z M287.576,-9.74962 L308.181,-9.74962 L308.181,-49.1055 L287.576,-49.1055 L287.576,-9.74962 Z M329.099,-9.74962 L349.704,-9.74962 L349.704,-49.1055 L329.099,-49.1055 L329.099,-9.74962 Z M369.998,-9.74962 L390.603,-9.74962 L390.603,-49.1055 L369.998,-49.1055 L369.998,-9.74962 Z M411.208,-9.74962 L431.813,-9.74962 L431.813,-49.1055 L411.208,-49.1055 L411.208,-9.74962 Z M452.419,-9.74962 L473.024,-9.74962 L473.024,-49.1055 L452.419,-49.1055 L452.419,-9.74962 Z M493.63,-9.74962 L514.235,-9.74962 L514.235,-49.1055 L493.63,-49.1055 L493.63,-9.74962 Z M534.528,-9.74962 L555.133,-9.74962 L555.133,-49.1055 L534.528,-49.1055 L534.528,-9.74962 Z " fill="#d97f7f" fill-opacity="1.00" />						<path d="M570.044,-9.74962 L590.649,-9.74962 L590.649,-49.1055 L570.044,-49.1055 L570.044,-9.74962 Z " fill="#d97f7f" fill-opacity="1.00" />						<path d="M611.567,-8.24493 L632.172,-8.24493 L632.172,-47.6008 L611.567,-47.6008 L611.567,-8.24493 Z " fill="#d97f7f" fill-opacity="1.00" />						<path d="M652.465,-3.73085 L673.071,-3.73085 L673.071,-43.0867 L652.465,-43.0867 L652.465,-3.73085 Z " fill="#d97f7f" fill-opacity="1.00" />						<path d="M693.676,2.28793 L714.281,2.28793 L714.281,-37.0679 L693.676,-37.0679 L693.676,2.28793 Z " fill="#d97f7f" fill-opacity="1.00" />						<path d="M734.887,8.3067 L755.492,8.3067 L755.492,-31.0491 L734.887,-31.0491 L734.887,8.3067 Z " fill="#d97f7f" fill-opacity="1.00" />						<path d="M777.185,15.9165 L797.79,15.9165 L797.79,-23.4394 L777.185,-23.4394 L777.185,15.9165 Z " fill="#d97f7f" fill-opacity="1.00" />						<path d="M816.996,24.8583 L837.601,24.8583 L837.601,-14.4975 L816.996,-14.4975 L816.996,24.8583 Z " fill="#d97f7f" fill-opacity="1.00" />						<path d="M858.207,31.1109 L878.812,31.1109 L878.812,-8.24493 L858.207,-8.24493 L858.207,31.1109 Z " fill="#d97f7f" fill-opacity="1.00" />						<path d="M-463.826,-77.1153 C-458.943,-77.1153 -454.947,-73.12 -454.947,-68.237 L-454.947,2.78884 C-454.947,7.67186 -458.943,11.6671 -463.826,11.6671 C-468.709,11.6671 -472.704,7.67186 -472.704,2.78884 L-472.704,-68.237 C-472.704,-73.12 -468.709,-77.1153 -463.826,-77.1153 Z M-508.217,-68.237 L-508.217,2.78883 C-508.217,7.67186 -504.222,11.6671 -499.339,11.6671 C-494.455,11.6671 -490.46,7.67186 -490.46,2.78883 L-490.46,-68.237 C-490.46,-73.12 -494.455,-77.1153 -499.339,-77.1153 C-504.222,-77.1153 -508.217,-73.1201 -508.217,-68.237 Z M-543.73,-68.237 L-543.73,2.78883 C-543.73,7.67186 -539.734,11.6671 -534.851,11.6671 C-529.968,11.6671 -525.973,7.67186 -525.973,2.78883 L-525.973,-68.237 C-525.973,-73.1201 -529.968,-77.1153 -534.851,-77.1153 C-539.734,-77.1153 -543.73,-73.1201 -543.73,-68.237 Z " fill="#bed2d9" fill-opacity="1.00" />						<path d="M-141.499,-70.3294 C-136.616,-70.3294 -132.62,-66.3342 -132.62,-61.4512 L-132.62,9.57467 C-132.62,14.4577 -136.616,18.4529 -141.499,18.4529 C-146.382,18.4529 -150.377,14.4577 -150.377,9.57467 L-150.377,-61.4512 C-150.377,-66.3342 -146.382,-70.3294 -141.499,-70.3294 Z M-185.89,-61.4512 L-185.89,9.57467 C-185.89,14.4577 -181.894,18.4529 -177.011,18.4529 C-172.128,18.4529 -168.133,14.4577 -168.133,9.57467 L-168.133,-61.4512 C-168.133,-66.3342 -172.128,-70.3294 -177.011,-70.3294 C-181.894,-70.3294 -185.89,-66.3342 -185.89,-61.4512 Z M-221.403,-61.4512 L-221.403,9.57466 C-221.403,14.4577 -217.407,18.4529 -212.524,18.4529 C-207.641,18.4529 -203.646,14.4577 -203.646,9.57466 L-203.646,-61.4512 C-203.646,-66.3342 -207.641,-70.3294 -212.524,-70.3294 C-217.407,-70.3294 -221.403,-66.3342 -221.403,-61.4512 Z " fill="#bed2d9" fill-opacity="1.00" />						<path d="M163.864,-63.5436 C168.747,-63.5436 172.742,-59.5484 172.742,-54.6654 L172.742,16.3605 C172.742,21.2435 168.747,25.2387 163.864,25.2387 C158.981,25.2387 154.986,21.2435 154.986,16.3605 L154.986,-54.6654 C154.986,-59.5484 158.981,-63.5436 163.864,-63.5436 Z M119.473,-54.6654 L119.473,16.3605 C119.473,21.2435 123.468,25.2387 128.351,25.2387 C133.234,25.2387 137.229,21.2435 137.229,16.3605 L137.229,-54.6654 C137.229,-59.5484 133.234,-63.5436 128.351,-63.5436 C123.468,-63.5436 119.473,-59.5484 119.473,-54.6654 Z M83.9599,-54.6654 L83.9599,16.3605 C83.9599,21.2435 87.9551,25.2387 92.8381,25.2387 C97.7211,25.2387 101.716,21.2435 101.716,16.3605 L101.716,-54.6654 C101.716,-59.5484 97.7211,-63.5436 92.8381,-63.5436 C87.9551,-63.5436 83.9599,-59.5484 83.9599,-54.6654 Z " fill="#bed2d9" fill-opacity="1.00" />						<path d="M374.225,24.6722 C379.108,24.6722 383.103,28.6674 383.103,33.5505 L383.103,104.576 C383.103,109.459 379.108,113.455 374.225,113.455 C369.342,113.455 365.347,109.459 365.347,104.576 L365.347,33.5505 C365.347,28.6674 369.342,24.6722 374.225,24.6722 Z M329.834,33.5505 L329.834,104.576 C329.834,109.459 333.829,113.455 338.712,113.455 C343.595,113.455 347.59,109.459 347.59,104.576 L347.59,33.5505 C347.59,28.6674 343.595,24.6722 338.712,24.6722 C333.829,24.6722 329.834,28.6674 329.834,33.5505 Z M294.321,33.5505 L294.321,104.576 C294.321,109.459 298.316,113.455 303.199,113.455 C308.082,113.455 312.077,109.459 312.077,104.576 L312.077,33.5505 C312.077,28.6674 308.082,24.6722 303.199,24.6722 C298.316,24.6722 294.321,28.6674 294.321,33.5505 Z " fill="#bed2d9" fill-opacity="1.00" />						<path d="M693.159,24.6722 C698.042,24.6722 702.037,28.6674 702.037,33.5505 L702.037,104.576 C702.037,109.459 698.042,113.455 693.159,113.455 C688.276,113.455 684.281,109.459 684.281,104.576 L684.281,33.5505 C684.281,28.6674 688.276,24.6722 693.159,24.6722 Z M648.768,33.5505 L648.768,104.576 C648.768,109.459 652.763,113.455 657.646,113.455 C662.529,113.455 666.524,109.459 666.524,104.576 L666.524,33.5505 C666.524,28.6674 662.529,24.6722 657.646,24.6722 C652.763,24.6722 648.768,28.6674 648.768,33.5505 Z M613.255,33.5505 L613.255,104.576 C613.255,109.459 617.25,113.455 622.133,113.455 C627.016,113.455 631.011,109.459 631.011,104.576 L631.011,33.5505 C631.011,28.6674 627.016,24.6722 622.133,24.6722 C617.25,24.6722 613.255,28.6674 613.255,33.5505 Z " fill="#bed2d9" fill-opacity="1.00" />					</g>					<path d="M-340.32,229.874 C-337.868,223.923 -369.243,205.311 -410.121,188.467 L-632.51,96.8316 C-673.387,79.9879 -708.766,71.0939 -711.219,77.0448 C-713.671,82.9957 -682.296,101.608 -641.418,118.451 L-419.029,210.087 C-378.152,226.931 -342.772,235.825 -340.32,229.874 Z " fill="#fd7977" fill-opacity="1.00" />					<path d="M-711.106,76.4524 C-707.888,70.8784 -673.997,84.3769 -635.709,106.483 L-427.405,226.747 C-389.116,248.853 -360.481,271.454 -363.699,277.028 C-366.917,282.602 -400.808,269.103 -439.097,246.998 L-647.4,126.733 C-685.689,104.627 -714.324,82.0264 -711.106,76.4524 Z " fill="#fd7977" fill-opacity="1.00" />				</g>				<path d="M-704.369,36.2122 L-668.157,36.2122 C-648.145,36.2122 -631.945,20.012 -631.945,4.93245e-07 C-631.945,-20.012 -648.145,-36.2122 -668.157,-36.2122 L-704.369,-36.2122 L-704.369,36.2122 L-704.369,36.2122 Z " fill="#fd7977" fill-opacity="1.00" />				<path d="M-689.367,-17.8489 C-689.367,-15.3947 -687.359,-13.3867 -684.904,-13.3867 L-649.206,-13.3867 C-646.752,-13.3867 -644.744,-15.3947 -644.744,-17.8489 C-644.744,-20.3032 -646.752,-22.3112 -649.206,-22.3112 L-684.904,-22.3112 C-687.359,-22.3112 -689.367,-20.3032 -689.367,-17.8489 Z " fill="#bc5757" fill-opacity="1.00" />				<path d="M-679.629,4.46224 L-643.931,4.46225 C-641.477,4.46225 -639.469,2.45424 -639.469,8.12675e-06 C-639.469,-2.45422 -641.477,-4.46223 -643.931,-4.46223 L-679.629,-4.46223 C-682.083,-4.46223 -684.091,-2.45422 -684.091,6.05819e-06 C-684.091,2.45424 -682.083,4.46224 -679.629,4.46224 Z " fill="#bc5757" fill-opacity="1.00" />				<path d="M-684.904,22.3112 L-649.206,22.3112 C-646.752,22.3112 -644.744,20.3032 -644.744,17.849 C-644.744,15.3947 -646.752,13.3867 -649.206,13.3867 L-684.904,13.3867 C-687.359,13.3867 -689.367,15.3947 -689.367,17.849 C-689.367,20.3032 -687.359,22.3112 -684.904,22.3112 Z " fill="#bc5757" fill-opacity="1.00" />				<path d="M-704.369,36.2122 C-684.357,36.2122 -668.157,20.012 -668.157,-3.16577e-06 C-668.157,-20.012 -684.357,-36.2122 -704.369,-36.2122 L-704.369,36.2122 Z " fill="#bc5757" fill-opacity="1.00" />			</g>		</g>	</svg>