<?xml version="1.0" encoding="utf-8" ?>	<!-- Generator: Assembly 1.8 - http://assemblyapp.co -->	<svg version="1.1" xmlns="http://www.w3.org/2000/svg" xmlns:xlink="http://www.w3.org/1999/xlink" width="2048.00" height="1365.33" viewBox="0 0 2048.0 1365.3333333333335">		<rect x="0" y="0" width="2048.00" height="1365.33" fill="#ffffff" />		<g id="document" transform="matrix(1,0,0,1,1024.0,682.6666666666667)">			<path d="M-692.963,175.445 C-686.286,175.445 -680.569,172.916 -675.814,167.857 C-671.058,162.798 -668.681,156.626 -668.681,149.341 C-668.681,140.235 -672.525,132.495 -680.215,126.121 C-687.905,119.746 -697.213,116.559 -708.14,116.559 C-721.901,116.559 -733.739,121.669 -743.654,131.888 C-753.57,142.107 -758.527,154.4 -758.527,168.768 C-758.527,186.575 -751.04,201.297 -736.066,212.932 C-721.091,224.568 -702.272,230.385 -679.608,230.385 C-655.73,230.385 -635.494,223.708 -618.901,210.352 C-610.604,203.674 -604.786,196.389 -601.447,188.497 C-598.108,180.606 -596.439,170.083 -596.439,156.93 L-596.439,77.0996 C-596.439,66.577 -593.909,61.3157 -588.85,61.3157 C-589.053,61.3157 -587.029,61.6192 -582.78,62.2263 C-580.351,63.0357 -577.822,63.4405 -575.191,63.4405 C-569.93,63.4405 -565.579,61.4675 -562.139,57.5215 C-558.699,53.5755 -556.979,48.7695 -556.979,43.1035 C-556.979,36.6281 -559.205,31.3668 -563.657,27.3196 C-568.109,23.2725 -573.876,21.2489 -580.959,21.2489 C-583.792,21.2489 -590.014,21.7548 -599.626,22.7666 C-609.238,23.7784 -617.383,24.2843 -624.061,24.2843 C-635.19,24.2843 -646.016,23.6772 -656.539,22.463 C-663.622,21.6536 -669.389,21.2489 -673.841,21.2489 C-680.518,21.2489 -685.932,23.2725 -690.08,27.3196 C-694.228,31.3668 -696.302,36.8304 -696.302,43.7106 C-696.302,49.579 -694.835,54.3344 -691.901,57.9768 C-688.967,61.6192 -685.274,63.4405 -680.822,63.4405 C-678.596,63.4405 -675.308,63.0863 -670.957,62.3781 C-666.606,61.6698 -663.318,61.3157 -661.092,61.3157 C-656.236,61.3157 -652.998,62.7322 -651.379,65.5652 C-650.165,67.5888 -649.558,71.4336 -649.558,77.0996 L-649.558,147.217 C-649.558,160.572 -651.683,170.386 -655.932,176.66 C-662.61,186.575 -672.829,191.533 -686.589,191.533 C-694.279,191.533 -700.602,189.762 -705.56,186.221 C-710.518,182.68 -712.997,178.177 -712.997,172.714 C-712.997,169.881 -711.884,166.946 -709.658,163.911 C-705.813,171.601 -700.248,175.445 -692.963,175.445 Z M-408.651,230.082 C-399.343,230.082 -391.704,227.957 -385.734,223.708 C-379.764,219.458 -376.78,213.995 -376.78,207.317 C-376.78,202.662 -378.399,198.717 -381.636,195.479 C-384.874,192.241 -388.82,190.622 -393.474,190.622 C-394.284,190.622 -394.992,190.723 -395.599,190.926 C-397.015,191.128 -398.533,191.229 -400.152,191.229 C-403.39,191.229 -405.009,187.992 -405.009,181.516 L-405.009,118.684 C-405.009,98.853 -410.776,85.2951 -422.31,78.0102 C-433.035,71.3324 -449.325,67.9935 -471.18,67.9935 C-491.415,67.9935 -507.3,71.13 -518.835,77.4031 C-530.369,83.6762 -536.136,92.2764 -536.136,103.204 C-536.136,110.489 -533.506,116.559 -528.244,121.416 C-522.983,126.272 -516.305,128.701 -508.211,128.701 C-501.128,128.701 -495.209,126.778 -490.454,122.934 C-485.699,119.089 -483.321,114.333 -483.321,108.667 L-483.321,107.453 C-483.523,106.037 -483.625,104.62 -483.625,103.204 C-483.625,98.9542 -480.286,96.8295 -473.608,96.8295 C-467.739,96.8295 -462.832,98.3977 -458.886,101.534 C-454.94,104.671 -452.967,108.566 -452.967,113.22 C-452.967,119.696 -455.547,124.502 -460.708,127.638 C-465.868,130.775 -475.631,133.557 -489.999,135.986 C-500.319,137.807 -509.425,140.033 -517.317,142.663 C-535.732,148.937 -544.939,162.697 -544.939,183.944 C-544.939,197.907 -540.183,209.087 -530.673,217.485 C-521.162,225.883 -508.413,230.082 -492.427,230.082 C-473.001,230.082 -456.205,223.404 -442.04,210.049 C-436.374,223.404 -425.244,230.082 -408.651,230.082 Z M-452.664,165.125 C-452.664,183.742 -461.669,193.051 -479.679,193.051 C-490.606,193.051 -496.069,188.396 -496.069,179.088 C-496.069,173.219 -490.505,168.869 -479.375,166.036 C-462.984,161.786 -454.08,159.257 -452.664,158.447 L-452.664,165.125 Z M-300.086,123.844 C-302.11,117.369 -303.122,113.625 -303.122,112.613 C-303.122,109.173 -300.592,107.15 -295.533,106.543 C-287.439,105.733 -283.392,100.067 -283.392,89.5446 C-283.392,78.0102 -288.855,72.243 -299.783,72.243 C-302.818,72.243 -307.472,72.5465 -313.745,73.1536 C-324.066,74.1654 -331.35,74.6713 -335.6,74.6713 C-338.635,74.6713 -343.239,74.2666 -349.411,73.4572 C-355.583,72.6477 -360.186,72.243 -363.222,72.243 C-375.566,72.243 -381.737,79.022 -381.737,92.58 C-381.737,97.6389 -380.422,101.787 -377.791,105.025 C-375.161,108.263 -371.822,109.882 -367.775,109.882 C-365.954,109.882 -364.234,109.679 -362.615,109.274 C-362.21,109.274 -361.704,109.173 -361.097,108.971 C-360.288,108.971 -359.782,108.971 -359.579,108.971 C-357.556,108.971 -356.038,109.629 -355.026,110.944 C-354.014,112.259 -352.294,115.952 -349.866,122.023 L-318.298,207.317 C-313.846,219.458 -306.865,225.529 -297.354,225.529 C-296.747,225.529 -296.343,225.529 -296.14,225.529 L-281.874,224.618 L-267.608,225.529 C-255.871,226.338 -246.866,218.446 -240.593,201.853 L-214.489,133.861 C-211.251,125.564 -209.228,120.303 -208.418,118.077 C-206.192,111.804 -203.359,108.667 -199.919,108.667 C-198.705,108.667 -197.39,108.87 -195.973,109.274 C-195.771,109.274 -195.265,109.274 -194.455,109.274 C-193.848,109.477 -193.343,109.578 -192.938,109.578 C-182.618,109.578 -177.457,103.507 -177.457,91.3658 C-177.457,78.6173 -183.427,72.243 -195.366,72.243 C-197.794,72.243 -201.74,72.6477 -207.204,73.4572 C-212.668,74.2666 -218.232,74.6713 -223.899,74.6713 C-227.541,74.6713 -232.954,74.2666 -240.138,73.4572 C-247.321,72.6477 -252.734,72.243 -256.377,72.243 C-267.304,72.243 -272.768,78.0102 -272.768,89.5446 C-272.768,99.2578 -268.923,104.924 -261.233,106.543 C-255.972,107.554 -253.342,109.477 -253.342,112.31 C-253.342,113.322 -253.645,114.94 -254.252,117.166 C-255.264,119.999 -256.073,122.225 -256.68,123.844 L-279.142,190.622 L-300.086,123.844 Z M-30.3434,230.082 C-21.035,230.082 -13.396,227.957 -7.42645,223.708 C-1.4569,219.458 1.52788,213.995 1.52788,207.317 C1.52788,202.662 -0.0909816,198.717 -3.3287,195.479 C-6.56643,192.241 -10.5124,190.622 -15.1666,190.622 C-15.9761,190.622 -16.6843,190.723 -17.2914,190.926 C-18.7079,191.128 -20.2256,191.229 -21.8444,191.229 C-25.0821,191.229 -26.701,187.992 -26.701,181.516 L-26.701,118.684 C-26.701,98.853 -32.4682,85.2951 -44.0026,78.0102 C-54.7275,71.3324 -71.0173,67.9935 -92.8719,67.9935 C-113.108,67.9935 -128.993,71.13 -140.527,77.4031 C-152.062,83.6762 -157.829,92.2764 -157.829,103.204 C-157.829,110.489 -155.198,116.559 -149.937,121.416 C-144.675,126.272 -137.998,128.701 -129.903,128.701 C-122.821,128.701 -116.902,126.778 -112.147,122.934 C-107.391,119.089 -105.013,114.333 -105.013,108.667 L-105.013,107.453 C-105.216,106.037 -105.317,104.62 -105.317,103.204 C-105.317,98.9542 -101.978,96.8295 -95.3002,96.8295 C-89.4319,96.8295 -84.5247,98.3977 -80.5787,101.534 C-76.6327,104.671 -74.6598,108.566 -74.6598,113.22 C-74.6598,119.696 -77.2398,124.502 -82.3999,127.638 C-87.5601,130.775 -97.3238,133.557 -111.691,135.986 C-122.011,137.807 -131.118,140.033 -139.009,142.663 C-157.424,148.937 -166.631,162.697 -166.631,183.944 C-166.631,197.907 -161.876,209.087 -152.365,217.485 C-142.854,225.883 -130.106,230.082 -114.119,230.082 C-94.6932,230.082 -77.8975,223.404 -63.7325,210.049 C-58.0664,223.404 -46.9368,230.082 -30.3434,230.082 Z M-74.3562,165.125 C-74.3562,183.742 -83.3611,193.051 -101.371,193.051 C-112.298,193.051 -117.762,188.396 -117.762,179.088 C-117.762,173.219 -112.197,168.869 -101.067,166.036 C-84.6765,161.786 -75.7727,159.257 -74.3562,158.447 L-74.3562,165.125 Z M91.2735,16.9994 C71.4424,16.9994 55.3044,22.8172 42.8594,34.4527 C30.4144,46.0883 24.1919,61.2145 24.1919,79.8314 C24.1919,98.246 31.4768,112.917 46.0466,123.844 C53.5338,129.51 61.6281,133.456 70.3295,135.682 L90.3629,140.539 C107.159,144.586 117.782,148.077 122.234,151.011 C126.686,153.945 128.912,158.953 128.912,166.036 C128.912,172.511 126.383,177.773 121.324,181.82 C116.265,185.867 109.486,187.89 100.987,187.89 C80.1438,187.89 68.6094,180.302 66.3835,165.125 C64.967,156.019 62.5893,149.797 59.2504,146.458 C55.9115,143.119 50.3972,141.449 42.7077,141.449 C35.8275,141.449 30.2121,143.119 25.8614,146.458 C21.5107,149.797 19.3353,154.097 19.3353,159.358 C19.3353,161.584 19.5883,165.024 20.0942,169.678 C20.6001,174.332 20.853,177.773 20.853,179.998 C20.853,183.439 20.4483,188.396 19.6389,194.872 C19.0318,199.728 18.7283,204.281 18.7283,208.531 C18.7283,221.482 25.3049,227.957 38.4581,227.957 C49.9925,227.957 56.0633,222.291 56.6703,210.959 C73.2637,223.91 90.5652,230.385 108.575,230.385 C130.227,230.385 148.035,223.859 161.997,210.807 C175.96,197.755 182.941,181.01 182.941,160.572 C182.941,143.169 177.174,129.409 165.64,119.291 C154.106,109.173 135.59,101.585 110.093,96.5259 C94.9159,93.4906 85.4557,90.8599 81.7121,88.634 C77.9685,86.408 76.0967,82.1585 76.0967,75.8854 C76.0967,63.744 84.798,57.6733 102.201,57.6733 C120.615,57.6733 131.34,64.2499 134.376,77.4031 L135.893,83.7774 C138.119,93.4906 144.999,98.3471 156.534,98.3471 C170.294,98.3471 177.174,92.3776 177.174,80.4385 L177.174,78.9208 C177.174,77.0996 176.972,74.4689 176.567,71.0289 C176.163,67.5888 175.96,64.9581 175.96,63.1369 C175.96,60.1016 176.264,55.6497 176.871,49.7813 C177.478,43.9129 177.781,39.4611 177.781,36.4257 C177.781,25.4984 171.306,20.0347 158.355,20.0347 C152.082,20.0347 147.681,21.3501 145.151,23.9807 C142.622,26.6114 141.256,31.468 141.053,38.5505 C128.912,24.1831 112.319,16.9994 91.2735,16.9994 Z M299.095,120.505 C299.095,126.171 301.22,130.775 305.469,134.316 C309.719,137.857 315.283,139.628 322.164,139.628 C330.46,139.628 337.239,137.149 342.5,132.191 C347.762,127.234 350.392,120.708 350.392,112.613 C350.392,99.6625 344.575,88.9881 332.939,80.5903 C321.304,72.1924 306.582,67.9935 288.775,67.9935 C264.087,67.9935 244.458,75.2784 229.888,89.8481 C215.319,104.418 208.034,124.148 208.034,149.038 C208.034,173.725 215.116,193.405 229.281,208.076 C243.446,222.746 262.468,230.082 286.346,230.082 C304.963,230.082 320.949,225.023 334.305,214.905 C347.661,204.787 354.338,192.848 354.338,179.088 C354.338,172.612 352.214,167.301 347.964,163.152 C343.715,159.004 338.15,156.93 331.27,156.93 C325.199,156.93 320.747,158.144 317.914,160.572 C315.89,162.393 313.462,166.643 310.629,173.321 C305.975,184.046 298.69,189.408 288.775,189.408 C279.061,189.408 271.271,185.563 265.402,177.874 C259.534,170.184 256.6,159.965 256.6,147.217 C256.6,134.873 259.382,125.008 264.947,117.622 C270.512,110.236 277.746,106.543 286.65,106.543 C292.316,106.543 297.476,108.161 302.13,111.399 C300.107,114.435 299.095,117.47 299.095,120.505 Z M436.192,81.6526 C436.192,75.3796 433.055,72.243 426.782,72.243 C424.556,72.243 421.116,72.6477 416.462,73.4572 C411.808,74.2666 408.267,74.6713 405.838,74.6713 C402.601,74.6713 399.161,74.2666 395.518,73.4572 C391.876,72.6477 389.043,72.243 387.019,72.243 C381.96,72.243 377.812,74.1654 374.574,78.0102 C371.336,81.855 369.718,86.8128 369.718,92.8835 C369.718,104.013 374.574,109.578 384.287,109.578 C385.501,109.578 387.272,109.224 389.599,108.516 C391.926,107.807 393.495,107.453 394.304,107.453 C397.744,107.453 399.464,113.22 399.464,124.755 L399.464,173.928 C399.464,185.26 397.744,190.926 394.304,190.926 C393.292,190.926 391.775,190.572 389.751,189.863 C387.727,189.155 385.906,188.801 384.287,188.801 C374.574,188.801 369.718,194.467 369.718,205.799 C369.718,219.357 375.991,226.136 388.537,226.136 C390.763,226.136 396.732,225.63 406.445,224.618 C412.314,224.011 419.093,223.708 426.782,223.708 C434.472,223.708 440.846,224.011 445.905,224.618 C454.202,225.63 459.868,226.136 462.903,226.136 C468.569,226.136 473.375,224.163 477.321,220.217 C481.267,216.271 483.24,211.364 483.24,205.496 C483.24,201.044 481.672,197.249 478.535,194.113 C475.399,190.976 471.605,189.408 467.153,189.408 C465.534,189.408 463.106,189.813 459.868,190.622 C456.63,191.432 454.101,191.836 452.279,191.836 C450.256,191.836 448.839,191.229 448.03,190.015 C446.816,187.992 446.209,183.337 446.209,176.052 L446.209,164.518 C446.209,149.544 448.03,136.289 451.672,124.755 C456.327,110.387 465.433,103.204 478.991,103.204 L480.812,103.204 C478.181,108.263 476.866,112.209 476.866,115.042 C476.866,120.303 478.839,124.755 482.785,128.397 C486.731,132.04 491.537,133.861 497.203,133.861 C504.69,133.861 510.862,131.18 515.719,125.817 C520.575,120.455 523.003,113.625 523.003,105.328 C523.003,94.8059 519.209,85.9527 511.621,78.769 C504.032,71.5853 494.673,67.9935 483.544,67.9935 C467.557,67.9935 455.112,73.5583 446.209,84.688 C442.364,89.5446 439.025,97.133 436.192,107.453 L436.192,81.6526 Z M598.179,72.243 C597.572,72.243 594.537,72.6477 589.073,73.4572 C583.61,74.2666 579.158,74.6713 575.718,74.6713 C571.468,74.6713 565.802,74.1654 558.72,73.1536 C554.47,72.5465 551.232,72.243 549.006,72.243 C543.34,72.243 538.787,74.1148 535.347,77.8584 C531.907,81.6021 530.187,86.5092 530.187,92.58 C530.187,103.912 535.044,109.578 544.757,109.578 C545.971,109.578 547.59,109.376 549.613,108.971 C552.649,107.959 554.47,107.453 555.077,107.453 C558.517,107.453 560.237,113.22 560.237,124.755 L560.237,173.928 C560.237,185.26 558.416,190.926 554.774,190.926 C554.167,190.926 553.458,190.825 552.649,190.622 C547.388,189.408 544.757,188.801 544.757,188.801 C535.044,188.801 530.187,194.568 530.187,206.103 C530.187,211.971 531.907,216.777 535.347,220.521 C538.787,224.264 543.239,226.136 548.703,226.136 C552.143,226.136 557.404,225.731 564.487,224.922 C571.569,224.112 576.932,223.708 580.574,223.708 C587.859,223.708 594.335,224.011 600.001,224.618 C609.309,225.63 614.975,226.136 616.999,226.136 C628.938,226.136 634.907,219.155 634.907,205.192 C634.907,194.669 630.658,189.408 622.159,189.408 C620.742,189.408 618.972,189.661 616.847,190.167 C614.722,190.673 613.255,190.926 612.446,190.926 C608.601,190.926 606.678,185.766 606.678,175.445 L606.678,84.0809 C606.678,76.189 603.845,72.243 598.179,72.243 Z M580.878,60.7086 C588.567,60.7086 595.093,58.0274 600.456,52.6649 C605.818,47.3024 608.5,40.7764 608.5,33.0868 C608.5,25.3972 605.818,18.8712 600.456,13.5087 C595.093,8.14624 588.567,5.465 580.878,5.465 C573.188,5.465 566.662,8.14624 561.3,13.5087 C555.937,18.8712 553.256,25.3972 553.256,33.0868 C553.256,40.574 555.988,47.0495 561.451,52.5131 C566.915,57.9768 573.39,60.7086 580.878,60.7086 Z M707.351,83.1703 C707.351,76.0878 704.822,72.5465 699.763,72.5465 C698.549,72.5465 696.626,72.7489 693.996,73.1536 C688.937,73.9631 683.473,74.3678 677.605,74.3678 C673.153,74.3678 670.219,74.1654 668.802,73.7607 L658.178,72.243 L656.054,72.243 C650.995,72.243 646.846,74.1654 643.609,78.0102 C640.371,81.855 638.752,86.7116 638.752,92.58 C638.752,103.912 643.609,109.578 653.322,109.578 C654.536,109.578 656.155,109.376 658.178,108.971 C661.214,107.959 663.035,107.453 663.642,107.453 C667.082,107.453 668.802,113.22 668.802,124.755 L668.802,225.225 C668.802,236.76 666.981,242.527 663.338,242.527 C663.541,242.527 661.821,242.122 658.178,241.313 C656.762,240.706 655.244,240.402 653.625,240.402 C643.71,240.402 638.752,246.068 638.752,257.4 C638.752,263.269 640.472,268.075 643.912,271.818 C647.352,275.562 651.703,277.434 656.964,277.434 C658.178,277.434 660,277.332 662.428,277.13 C675.783,275.511 684.384,274.702 688.228,274.702 C697.335,274.702 706.542,275.208 715.85,276.219 C723.337,277.029 728.902,277.434 732.545,277.434 C745.091,277.434 751.364,271.363 751.364,259.221 C751.364,248.699 746.71,243.438 737.401,243.438 C735.782,243.438 733.152,243.64 729.509,244.045 C726.879,244.652 724.552,244.955 722.528,244.955 C717.671,244.955 715.243,241.819 715.243,235.546 L715.243,212.173 C723.135,218.042 729.004,221.886 732.848,223.708 C738.919,226.541 745.698,227.957 753.185,227.957 C772.004,227.957 786.979,220.672 798.109,206.103 C809.238,191.533 814.803,171.803 814.803,146.913 C814.803,122.832 809.339,103.659 798.412,89.3928 C787.485,75.1266 772.814,67.9935 754.399,67.9935 C735.58,67.9935 719.897,76.0878 707.351,92.2764 L707.351,83.1703 Z M741.044,106.543 C748.531,106.543 754.551,110.286 759.104,117.773 C763.657,125.261 765.934,135.277 765.934,147.824 C765.934,160.572 763.607,170.69 758.952,178.177 C754.298,185.664 748.126,189.408 740.437,189.408 C732.949,189.408 726.98,185.664 722.528,178.177 C718.076,170.69 715.85,160.572 715.85,147.824 C715.85,134.873 718.076,124.755 722.528,117.47 C726.98,110.185 733.152,106.543 741.044,106.543 Z M900.906,113.828 C900.906,110.792 901.311,108.566 902.12,107.15 C902.93,105.733 905.459,105.025 909.709,105.025 L934.599,105.025 C945.526,105.025 950.99,99.6625 950.99,88.9375 C950.99,77.8078 945.02,72.243 933.081,72.243 L911.227,72.243 C906.572,72.243 903.689,71.5348 902.576,70.1183 C901.463,68.7018 900.906,65.0593 900.906,59.1909 L900.906,42.8 C900.906,35.9198 899.642,31.468 897.112,29.4444 C894.583,27.4208 889.777,26.409 882.694,26.409 C872.779,26.409 865.949,27.7243 862.205,30.355 C858.462,32.9856 856.59,37.8422 856.59,44.9247 L856.59,59.798 C856.59,63.6428 856.286,66.3746 855.679,67.9935 C854.87,70.8265 852.037,72.243 847.18,72.243 L841.413,72.243 C837.973,72.243 834.988,73.9125 832.459,77.2514 C829.929,80.5903 828.665,84.5868 828.665,89.2411 C828.665,93.8953 829.879,97.6895 832.307,100.624 C834.735,103.558 837.872,105.025 841.717,105.025 L846.573,105.025 C850.013,105.025 852.189,105.683 853.099,106.998 C854.01,108.313 854.465,111.5 854.465,116.559 L854.465,126.272 C854.465,131.939 854.212,140.438 853.706,151.77 C853.2,163.102 852.948,171.601 852.948,177.267 C852.948,212.477 869.642,230.082 903.031,230.082 C920.029,230.082 933.284,225.579 942.794,216.575 C952.305,207.57 957.061,195.074 957.061,179.088 C957.061,158.65 950.686,148.431 937.938,148.431 C927.01,148.431 921.547,153.894 921.547,164.822 C921.547,165.429 921.648,166.44 921.85,167.857 C921.85,169.476 921.85,170.791 921.85,171.803 C922.053,172.612 922.154,173.827 922.154,175.445 C922.154,186.17 918.511,191.533 911.227,191.533 C903.537,191.533 899.692,185.563 899.692,173.624 C899.692,174.838 899.793,172.106 899.996,165.429 L900.603,145.092 L900.906,126.272 L900.906,113.828 Z " fill="#7f0b0b" fill-opacity="1.00" />			<path d="M391.163,-394.814 C391.163,-374.839 391.163,-359.858 391.163,-349.87 C411.138,-349.87 426.221,-349.87 436.412,-349.87 C442.527,-349.87 447.827,-352.01 452.311,-356.291 C456.591,-360.775 458.731,-366.074 458.731,-372.189 C458.731,-412.343 458.731,-442.407 458.731,-462.382 C458.731,-468.701 456.591,-474.001 452.311,-478.281 C447.827,-482.765 442.527,-485.007 436.412,-485.007 C411.342,-485.007 389.328,-485.007 370.373,-485.007 C351.824,-485.007 336.334,-485.007 323.9,-485.007 C293.734,-485.007 271.109,-485.007 256.026,-485.007 C249.707,-485.007 244.408,-482.765 240.127,-478.281 C235.643,-474.001 233.401,-468.701 233.401,-462.382 C233.401,-422.432 233.401,-392.368 233.401,-372.189 C233.401,-366.074 235.643,-360.775 240.127,-356.291 C244.408,-352.01 249.707,-349.87 256.026,-349.87 C276.001,-349.87 290.982,-349.87 300.97,-349.87 C300.97,-369.845 300.97,-384.826 300.97,-394.814 C290.982,-394.814 283.441,-394.814 278.345,-394.814 C278.345,-414.789 278.345,-429.872 278.345,-440.063 C338.474,-440.063 383.621,-440.063 413.788,-440.063 C413.788,-419.885 413.788,-404.801 413.788,-394.814 C403.8,-394.814 396.259,-394.814 391.163,-394.814 Z M391.163,-235.299 C391.163,-215.324 391.163,-200.343 391.163,-190.355 C411.138,-190.355 426.221,-190.355 436.412,-190.355 C442.527,-190.355 447.827,-192.496 452.311,-196.776 C456.591,-201.26 458.731,-206.56 458.731,-212.674 C458.731,-252.828 458.731,-282.893 458.731,-302.868 C458.731,-309.186 456.591,-314.486 452.311,-318.766 C447.827,-323.25 442.527,-325.492 436.412,-325.492 C416.437,-325.492 398.908,-325.492 383.825,-325.492 C368.742,-325.492 356.207,-325.492 346.219,-325.492 C339.9,-325.492 334.499,-323.25 330.015,-318.766 C325.735,-314.486 323.594,-309.186 323.594,-302.868 C323.594,-272.905 323.594,-250.382 323.594,-235.299 C303.619,-235.299 288.536,-235.299 278.345,-235.299 C278.345,-255.274 278.345,-270.357 278.345,-280.549 C288.536,-280.549 296.078,-280.549 300.97,-280.549 C300.97,-300.524 300.97,-315.505 300.97,-325.492 C280.995,-325.492 266.013,-325.492 256.026,-325.492 C249.707,-325.492 244.408,-323.25 240.127,-318.766 C235.643,-314.486 233.401,-309.186 233.401,-302.868 C233.401,-262.918 233.401,-232.853 233.401,-212.674 C233.401,-206.56 235.643,-201.26 240.127,-196.776 C244.408,-192.496 249.707,-190.355 256.026,-190.355 C295.976,-190.355 326.04,-190.355 346.219,-190.355 C352.334,-190.355 357.633,-192.496 362.118,-196.776 C366.398,-201.26 368.538,-206.56 368.538,-212.674 C368.538,-242.841 368.538,-265.466 368.538,-280.549 C388.717,-280.549 403.8,-280.549 413.788,-280.549 C413.788,-260.37 413.788,-245.287 413.788,-235.299 C403.8,-235.299 396.259,-235.299 391.163,-235.299 Z M391.163,-75.7844 C391.163,-55.8094 391.163,-40.8281 391.163,-30.8406 C411.138,-30.8406 426.221,-30.8406 436.412,-30.8406 C442.527,-30.8406 447.827,-32.9808 452.311,-37.2611 C456.591,-41.7453 458.731,-47.0448 458.731,-53.1596 C458.731,-93.3135 458.731,-123.378 458.731,-143.353 C458.731,-149.672 456.591,-154.971 452.311,-159.251 C447.827,-163.736 442.527,-165.978 436.412,-165.978 C416.437,-165.978 398.908,-165.978 383.825,-165.978 C368.742,-165.978 356.207,-165.978 346.219,-165.978 C339.9,-165.978 334.499,-163.736 330.015,-159.251 C325.735,-154.971 323.594,-149.672 323.594,-143.353 C323.594,-113.39 323.594,-90.8676 323.594,-75.7844 C303.619,-75.7844 288.536,-75.7844 278.345,-75.7844 C278.345,-95.7594 278.345,-110.843 278.345,-121.034 C288.536,-121.034 296.078,-121.034 300.97,-121.034 C300.97,-141.009 300.97,-155.99 300.97,-165.978 C280.995,-165.978 266.013,-165.978 256.026,-165.978 C249.707,-165.978 244.408,-163.736 240.127,-159.251 C235.643,-154.971 233.401,-149.672 233.401,-143.353 C233.401,-103.403 233.401,-73.3385 233.401,-53.1596 C233.401,-47.0448 235.643,-41.7453 240.127,-37.2612 C244.408,-32.9808 249.707,-30.8406 256.026,-30.8406 C295.976,-30.8406 326.04,-30.8406 346.219,-30.8406 C352.334,-30.8406 357.633,-32.9808 362.118,-37.2612 C366.398,-41.7453 368.538,-47.0448 368.538,-53.1596 C368.538,-83.326 368.538,-105.951 368.538,-121.034 C388.717,-121.034 403.8,-121.034 413.788,-121.034 C413.788,-100.855 413.788,-85.7719 413.788,-75.7844 C403.8,-75.7844 396.259,-75.7844 391.163,-75.7844 Z " fill="#a63131" fill-opacity="1.00" />			<path d="M-693.913,-120.612 C-693.913,-122.584 -695.146,-124.392 -697.611,-126.036 C-702.049,-128.83 -704.761,-130.72 -705.747,-131.706 C-708.213,-131.706 -710.432,-132.693 -712.404,-134.665 L-716.349,-134.665 C-719.143,-135.98 -722.759,-136.966 -727.197,-137.624 L-729.416,-138.856 C-735.333,-138.856 -739.36,-139.432 -741.497,-140.582 C-743.47,-139.76 -745.031,-139.35 -746.182,-139.35 C-747.168,-139.35 -749.058,-139.843 -751.852,-140.829 C-753.332,-140.829 -754.646,-140.418 -755.797,-139.596 C-756.948,-141.24 -759.495,-142.062 -763.44,-142.062 C-765.577,-142.062 -767.221,-141.979 -768.371,-141.815 L-768.864,-142.801 L-778.233,-141.322 L-786.369,-142.308 L-791.3,-141.569 L-799.93,-144.281 L-796.724,-144.774 L-792.533,-147.239 L-787.356,-147.239 L-782.425,-149.951 C-778.151,-149.951 -773.877,-151.02 -769.604,-153.156 L-764.919,-153.896 L-761.714,-158.087 L-761.221,-157.841 L-756.044,-159.567 C-755.222,-159.567 -754.236,-159.485 -753.085,-159.32 L-747.907,-162.772 L-745.935,-162.279 L-741.99,-164.498 C-738.374,-165.155 -734.758,-167.539 -731.142,-171.648 L-727.197,-178.798 L-728.923,-186.441 L-734.101,-189.646 L-735.58,-193.098 L-741.251,-193.098 L-743.223,-195.07 L-748.154,-196.549 C-749.633,-196.549 -751.441,-196.96 -753.578,-197.782 L-756.537,-200.494 L-763.687,-200.741 C-765.33,-202.384 -767.221,-203.206 -769.357,-203.206 L-770.59,-204.685 L-776.507,-203.699 C-777.658,-203.699 -779.877,-204.028 -783.164,-204.685 L-785.137,-205.672 C-786.78,-206.822 -788.999,-207.562 -791.793,-207.891 L-794.505,-207.398 C-795.492,-207.726 -797.053,-207.891 -799.19,-207.891 C-800.834,-207.891 -802.066,-207.808 -802.888,-207.644 L-817.188,-209.37 L-824.092,-211.835 L-825.817,-211.342 L-827.05,-212.329 C-829.187,-212.329 -831.652,-212 -834.447,-211.342 C-837.734,-212 -842.994,-212.329 -850.226,-212.329 L-850.719,-212.082 L-853.431,-213.315 L-854.417,-213.315 C-857.54,-213.315 -859.924,-212 -861.567,-209.37 C-865.019,-208.712 -866.745,-206.74 -866.745,-203.453 C-866.745,-199.837 -862.636,-195.645 -854.417,-190.879 L-849.486,-193.837 L-847.021,-190.139 L-842.829,-192.851 L-841.843,-191.618 L-839.131,-193.344 L-836.666,-191.618 L-833.954,-193.837 L-833.707,-193.591 L-831.981,-187.673 L-830.748,-185.701 L-831.242,-180.03 L-829.762,-179.044 L-830.255,-176.579 L-827.297,-170.661 L-827.05,-164.991 L-827.79,-163.018 L-826.311,-159.32 L-827.05,-158.334 L-826.064,-154.636 L-828.036,-153.896 L-826.311,-148.472 C-827.954,-147.486 -828.858,-146.91 -829.023,-146.746 C-832.967,-144.445 -835.351,-141.322 -836.173,-137.377 C-835.515,-134.912 -832.474,-132.282 -827.05,-129.488 L-826.804,-126.036 C-826.146,-123.899 -825.571,-121.927 -825.078,-120.119 L-825.817,-114.695 L-824.831,-111.489 L-826.557,-107.545 L-825.817,-102.12 L-827.05,-98.1756 L-826.557,-92.7515 L-826.804,-88.3136 L-822.859,-80.424 C-823.516,-80.2596 -823.845,-79.9309 -823.845,-79.4378 C-823.845,-79.109 -823.763,-78.7803 -823.598,-78.4516 C-823.598,-78.1228 -823.598,-77.8763 -823.598,-77.7119 C-823.598,-77.5476 -823.763,-77.301 -824.092,-76.9723 L-818.667,-78.6981 L-817.681,-74.2602 L-813.736,-72.0413 L-809.052,-73.5206 L-805.107,-77.7119 C-804.778,-77.7119 -804.285,-77.6297 -803.628,-77.4654 C-803.135,-77.4654 -802.724,-77.4654 -802.395,-77.4654 C-799.272,-77.4654 -796.56,-78.3694 -794.259,-80.1774 L-792.78,-78.4516 C-791.3,-78.9447 -790.396,-79.3556 -790.068,-79.6843 L-790.068,-79.9309 L-784.89,-77.7119 L-780.452,-81.4102 L-777,-80.6705 L-772.562,-81.1636 L-770.837,-82.1498 L-766.399,-81.1636 L-764.673,-82.3964 L-761.961,-80.9171 L-754.811,-86.0946 L-753.085,-85.1084 C-748.647,-85.9303 -744.784,-87.4918 -741.497,-89.7929 L-738.045,-89.2998 L-735.333,-91.5188 L-728.923,-91.0257 L-725.225,-94.9705 L-718.075,-95.7101 L-713.144,-99.1618 L-707.473,-100.395 L-704.268,-105.079 L-701.309,-105.819 L-700.323,-109.024 L-695.885,-112.722 L-694.899,-117.653 L-693.913,-120.612 Z M-750.866,-176.825 C-753.496,-176.332 -755.715,-175.346 -757.523,-173.867 L-758.263,-173.867 L-764.919,-171.894 C-765.577,-171.072 -766.317,-170.661 -767.138,-170.661 L-768.125,-170.661 C-771.083,-170.661 -773.877,-169.347 -776.507,-166.717 L-777.74,-165.73 L-780.699,-165.977 C-782.178,-164.169 -785.465,-162.608 -790.561,-161.293 L-796.724,-161.046 L-797.218,-159.074 L-800.176,-156.855 L-799.93,-157.594 C-801.573,-157.266 -802.806,-156.937 -803.628,-156.608 L-807.573,-156.362 L-807.573,-156.855 L-806.34,-161.046 L-807.819,-164.991 L-807.326,-170.168 L-808.805,-175.839 L-807.326,-179.537 L-809.052,-184.222 L-809.052,-190.139 L-808.066,-190.632 L-803.381,-188.906 L-801.902,-190.139 L-800.916,-189.892 L-798.204,-190.386 L-795.245,-187.673 L-789.574,-188.413 C-785.794,-187.92 -783.082,-187.673 -781.438,-187.673 L-780.206,-187.673 L-775.521,-185.208 L-773.795,-186.194 L-769.604,-184.961 L-764.673,-181.263 L-761.961,-183.236 C-760.975,-182.907 -759.824,-182.578 -758.509,-182.249 L-756.044,-181.017 L-753.332,-181.017 L-751.606,-179.044 L-750.866,-178.798 L-750.866,-176.825 Z M-716.842,-116.174 L-718.568,-113.215 L-723.992,-111.736 L-725.964,-109.024 L-728.677,-107.791 L-732.128,-108.038 C-734.101,-105.408 -737.141,-104.011 -741.251,-103.846 L-749.633,-103.353 L-755.551,-100.641 L-759.002,-100.888 L-764.919,-98.4222 L-771.823,-96.2032 L-778.726,-96.4498 L-782.918,-94.4774 C-784.068,-94.1486 -784.89,-93.7377 -785.383,-93.2446 L-787.109,-93.9843 L-794.259,-94.2308 L-798.45,-92.7515 L-805.354,-92.505 L-805.847,-96.2032 L-806.586,-96.6963 L-806.833,-97.9291 L-805.107,-101.874 L-805.6,-106.558 L-807.326,-109.517 L-806.833,-112.969 L-807.326,-114.695 L-806.093,-118.393 L-807.573,-121.844 L-807.326,-124.063 L-807.326,-125.543 C-807.326,-128.337 -805.929,-129.734 -803.135,-129.734 C-802.806,-129.405 -801.902,-128.748 -800.423,-127.762 L-789.574,-126.775 L-789.328,-128.255 L-785.63,-125.789 L-780.206,-127.022 C-778.726,-127.351 -777.494,-127.515 -776.507,-127.515 C-774.206,-127.515 -771.658,-127.104 -768.864,-126.282 L-760.482,-126.036 C-757.194,-125.543 -754.153,-125.296 -751.359,-125.296 C-749.88,-124.474 -748.565,-123.981 -747.414,-123.817 C-746.099,-123.817 -744.702,-124.228 -743.223,-125.05 C-742.072,-124.721 -741.004,-124.146 -740.018,-123.324 L-735.087,-123.817 L-732.868,-121.844 L-728.183,-122.338 L-722.513,-119.872 L-721.28,-119.872 L-720.294,-118.639 L-716.349,-118.146 L-715.609,-117.653 L-716.842,-116.174 Z M-593.813,-146.253 L-593.813,-148.718 L-598.498,-160.306 L-603.675,-166.963 L-605.401,-167.949 L-605.894,-169.182 C-608.689,-172.634 -611.154,-175.346 -613.291,-177.318 L-615.263,-177.318 L-618.962,-179.291 L-620.934,-179.291 L-623.646,-181.017 L-627.098,-184.222 L-633.508,-181.756 L-636.22,-182.003 C-637.535,-182.66 -638.932,-182.989 -640.411,-182.989 C-641.891,-182.989 -643.534,-182.496 -645.342,-181.51 L-648.548,-181.51 C-649.205,-178.058 -650.684,-175.592 -652.985,-174.113 L-659.149,-171.894 L-659.396,-166.224 L-663.094,-162.032 L-664.08,-162.032 L-663.834,-161.046 C-664.162,-160.717 -664.532,-160.389 -664.943,-160.06 C-665.354,-159.731 -665.56,-159.567 -665.56,-159.567 L-670.737,-152.417 C-670.737,-149.951 -671.312,-147.568 -672.463,-145.267 L-672.463,-144.281 L-671.723,-140.829 C-671.888,-140.336 -672.627,-139.35 -673.942,-137.87 L-673.942,-134.172 L-674.682,-130.72 L-674.189,-128.994 L-675.422,-128.994 C-677.394,-125.214 -678.462,-122.502 -678.627,-120.858 C-680.27,-119.379 -681.092,-117.078 -681.092,-113.955 C-681.092,-112.969 -680.928,-111.325 -680.599,-109.024 L-681.832,-105.326 L-680.599,-99.4084 L-682.325,-96.2032 L-678.627,-87.8205 L-679.859,-83.8757 L-674.435,-78.205 L-670.737,-72.5344 L-660.135,-71.7947 L-655.944,-70.0689 L-652.492,-71.0551 L-649.287,-70.8085 L-646.082,-73.274 L-643.617,-74.0137 L-641.151,-75.7395 C-639.014,-75.7395 -637.124,-76.2326 -635.48,-77.2188 C-631.7,-77.2188 -628.659,-78.9447 -626.358,-82.3964 L-625.372,-82.6429 C-622.249,-83.4648 -619.619,-85.355 -617.482,-88.3136 L-612.798,-90.0395 L-612.551,-92.9981 L-609.593,-94.4774 L-607.62,-98.6687 L-604.662,-100.395 L-603.675,-103.107 L-601.703,-103.846 L-599.977,-110.01 L-597.265,-112.722 L-596.525,-116.174 L-595.293,-117.9 L-595.293,-120.612 L-593.813,-123.077 C-593.32,-125.543 -593.074,-128.912 -593.074,-133.186 L-591.594,-137.624 L-593.813,-146.253 Z M-608.853,-130.72 C-609.839,-129.077 -610.332,-127.515 -610.332,-126.036 C-610.332,-125.214 -610.003,-123.817 -609.346,-121.844 L-610.579,-120.365 L-611.565,-118.639 L-614.524,-116.174 L-614.524,-112.969 L-615.756,-110.257 L-616.003,-109.024 L-619.948,-107.051 L-622.66,-103.107 L-627.591,-99.6549 L-628.084,-98.4222 C-632.357,-96.6141 -635.069,-94.8061 -636.22,-92.9981 L-638.439,-92.505 L-638.932,-91.7653 L-642.137,-89.5464 L-644.11,-90.286 L-646.329,-89.5464 C-646.493,-90.0395 -647.068,-90.286 -648.054,-90.286 L-649.041,-90.286 L-650.027,-87.8205 L-656.437,-88.3136 L-658.41,-87.3274 L-659.642,-87.8205 L-663.094,-89.0533 L-665.313,-92.2584 L-665.56,-95.7101 L-664.573,-99.1618 L-664.573,-106.065 L-665.066,-107.298 L-662.354,-113.955 L-662.601,-116.913 L-661.861,-117.9 L-661.861,-119.872 C-661.039,-121.68 -660.382,-123.324 -659.889,-124.803 C-658.41,-126.282 -657.67,-128.008 -657.67,-129.981 L-658.903,-130.72 L-654.958,-134.419 C-654.958,-136.391 -654.629,-138.528 -653.972,-140.829 L-651.013,-142.308 L-650.027,-148.718 L-647.561,-149.951 L-646.822,-152.663 L-641.644,-155.375 L-638.439,-162.279 L-633.508,-167.703 C-633.179,-167.045 -632.522,-166.717 -631.536,-166.717 L-629.563,-166.224 L-624.386,-164.251 L-622.167,-162.525 L-619.208,-157.594 L-617.729,-157.348 C-617.729,-154.718 -616.989,-153.074 -615.51,-152.417 C-615.345,-151.431 -614.195,-150.116 -612.058,-148.472 L-611.072,-147.239 L-611.565,-142.555 L-609.346,-137.87 L-610.086,-136.638 C-609.921,-135.323 -609.264,-134.09 -608.113,-132.939 L-607.867,-131.706 L-608.853,-130.72 Z M-488.536,-146.253 L-488.536,-148.718 L-493.221,-160.306 L-498.398,-166.963 L-500.124,-167.949 L-500.617,-169.182 C-503.411,-172.634 -505.877,-175.346 -508.014,-177.318 L-509.986,-177.318 L-513.684,-179.291 L-515.657,-179.291 L-518.369,-181.017 L-521.821,-184.222 L-528.231,-181.756 L-530.943,-182.003 C-532.258,-182.66 -533.655,-182.989 -535.134,-182.989 C-536.614,-182.989 -538.257,-182.496 -540.065,-181.51 L-543.27,-181.51 C-543.928,-178.058 -545.407,-175.592 -547.708,-174.113 L-553.872,-171.894 L-554.119,-166.224 L-557.817,-162.032 L-558.803,-162.032 L-558.557,-161.046 C-558.885,-160.717 -559.255,-160.389 -559.666,-160.06 C-560.077,-159.731 -560.282,-159.567 -560.282,-159.567 L-565.46,-152.417 C-565.46,-149.951 -566.035,-147.568 -567.186,-145.267 L-567.186,-144.281 L-566.446,-140.829 C-566.611,-140.336 -567.35,-139.35 -568.665,-137.87 L-568.665,-134.172 L-569.405,-130.72 L-568.912,-128.994 L-570.144,-128.994 C-572.117,-125.214 -573.185,-122.502 -573.35,-120.858 C-574.993,-119.379 -575.815,-117.078 -575.815,-113.955 C-575.815,-112.969 -575.651,-111.325 -575.322,-109.024 L-576.555,-105.326 L-575.322,-99.4084 L-577.048,-96.2032 L-573.35,-87.8205 L-574.582,-83.8757 L-569.158,-78.205 L-565.46,-72.5344 L-554.858,-71.7947 L-550.667,-70.0689 L-547.215,-71.0551 L-544.01,-70.8085 L-540.805,-73.274 L-538.339,-74.0137 L-535.874,-75.7395 C-533.737,-75.7395 -531.847,-76.2326 -530.203,-77.2188 C-526.423,-77.2188 -523.382,-78.9447 -521.081,-82.3964 L-520.095,-82.6429 C-516.972,-83.4648 -514.342,-85.355 -512.205,-88.3136 L-507.521,-90.0395 L-507.274,-92.9981 L-504.315,-94.4774 L-502.343,-98.6687 L-499.384,-100.395 L-498.398,-103.107 L-496.426,-103.846 L-494.7,-110.01 L-491.988,-112.722 L-491.248,-116.174 L-490.016,-117.9 L-490.016,-120.612 L-488.536,-123.077 C-488.043,-125.543 -487.797,-128.912 -487.797,-133.186 L-486.317,-137.624 L-488.536,-146.253 Z M-503.576,-130.72 C-504.562,-129.077 -505.055,-127.515 -505.055,-126.036 C-505.055,-125.214 -504.726,-123.817 -504.069,-121.844 L-505.302,-120.365 L-506.288,-118.639 L-509.247,-116.174 L-509.247,-112.969 L-510.479,-110.257 L-510.726,-109.024 L-514.671,-107.051 L-517.383,-103.107 L-522.314,-99.6549 L-522.807,-98.4222 C-527.08,-96.6141 -529.792,-94.8061 -530.943,-92.9981 L-533.162,-92.505 L-533.655,-91.7653 L-536.86,-89.5464 L-538.833,-90.286 L-541.052,-89.5464 C-541.216,-90.0395 -541.791,-90.286 -542.777,-90.286 L-543.764,-90.286 L-544.75,-87.8205 L-551.16,-88.3136 L-553.133,-87.3274 L-554.365,-87.8205 L-557.817,-89.0533 L-560.036,-92.2584 L-560.282,-95.7101 L-559.296,-99.1618 L-559.296,-106.065 L-559.789,-107.298 L-557.077,-113.955 L-557.324,-116.913 L-556.584,-117.9 L-556.584,-119.872 C-555.762,-121.68 -555.105,-123.324 -554.612,-124.803 C-553.133,-126.282 -552.393,-128.008 -552.393,-129.981 L-553.626,-130.72 L-549.681,-134.419 C-549.681,-136.391 -549.352,-138.528 -548.695,-140.829 L-545.736,-142.308 L-544.75,-148.718 L-542.284,-149.951 L-541.545,-152.663 L-536.367,-155.375 L-533.162,-162.279 L-528.231,-167.703 C-527.902,-167.045 -527.245,-166.717 -526.258,-166.717 L-524.286,-166.224 L-519.109,-164.251 L-516.89,-162.525 L-513.931,-157.594 L-512.452,-157.348 C-512.452,-154.718 -511.712,-153.074 -510.233,-152.417 C-510.068,-151.431 -508.918,-150.116 -506.781,-148.472 L-505.795,-147.239 L-506.288,-142.555 L-504.069,-137.87 L-504.809,-136.638 C-504.644,-135.323 -503.987,-134.09 -502.836,-132.939 L-502.59,-131.706 L-503.576,-130.72 Z M-391.642,-168.443 C-391.642,-172.059 -394.19,-173.867 -399.285,-173.867 L-408.9,-173.867 L-410.133,-173.62 L-413.831,-173.867 L-424.68,-172.141 L-438.24,-173.374 L-445.883,-172.387 L-443.911,-176.825 L-445.883,-179.044 L-444.897,-184.961 L-446.13,-189.892 L-443.911,-192.851 L-444.404,-196.303 L-444.157,-197.535 L-445.143,-200.741 L-444.897,-202.467 L-444.404,-203.946 C-444.239,-204.603 -444.157,-205.014 -444.157,-205.179 C-444.157,-206.494 -444.65,-207.891 -445.636,-209.37 L-444.897,-210.603 C-445.39,-215.369 -448.266,-217.753 -453.526,-217.753 C-455.005,-217.753 -457.964,-217.342 -462.402,-216.52 L-464.374,-214.547 L-465.114,-211.096 C-465.936,-209.945 -466.347,-208.466 -466.347,-206.658 C-466.347,-205.179 -465.771,-203.535 -464.621,-201.727 L-462.648,-198.522 L-462.895,-190.879 L-461.662,-187.18 L-464.867,-185.455 L-461.662,-178.551 L-461.662,-173.62 L-466.84,-173.62 L-471.524,-174.853 L-474.729,-174.36 L-480.893,-175.346 L-485.578,-170.908 L-482.619,-166.224 L-482.619,-165.484 C-482.619,-160.224 -480.154,-157.594 -475.223,-157.594 L-474.483,-157.594 L-470.045,-154.389 L-465.361,-155.375 L-463.635,-154.636 L-463.635,-150.691 L-464.867,-149.458 L-463.881,-145.513 L-464.374,-141.075 L-463.635,-138.117 L-464.128,-134.912 L-465.854,-133.186 L-464.621,-127.762 L-465.854,-124.31 L-463.881,-121.598 L-464.374,-118.639 L-462.402,-107.051 L-456.978,-94.7239 L-454.019,-91.5188 L-448.842,-84.6153 L-446.623,-83.8757 L-437.993,-79.1912 L-434.788,-79.1912 C-433.309,-78.5338 -431.912,-78.205 -430.597,-78.205 C-428.131,-78.205 -426.241,-78.3694 -424.926,-78.6981 L-419.256,-80.1774 L-416.05,-80.1774 L-413.092,-82.8895 C-408.325,-83.8757 -405.202,-86.0946 -403.723,-89.5464 C-399.778,-91.0257 -397.806,-94.5595 -397.806,-100.148 L-397.806,-101.874 C-400.107,-104.011 -402.983,-105.079 -406.435,-105.079 C-410.215,-104.093 -412.845,-102.038 -414.325,-98.9153 C-414.489,-98.9153 -414.735,-98.9975 -415.064,-99.1618 C-415.393,-99.1618 -415.639,-99.1618 -415.804,-99.1618 C-417.119,-99.1618 -418.516,-98.5044 -419.995,-97.1894 C-422.132,-95.217 -423.529,-94.0664 -424.187,-93.7377 C-425.666,-94.2308 -427.145,-94.4774 -428.624,-94.4774 C-429.282,-94.4774 -430.433,-94.313 -432.076,-93.9843 L-434.049,-95.4636 L-437.007,-97.436 L-438.733,-98.1756 L-439.226,-101.134 C-442.842,-101.792 -444.65,-102.696 -444.65,-103.846 C-444.65,-104.504 -444.404,-105.079 -443.911,-105.572 L-447.362,-112.969 L-447.362,-116.42 L-448.102,-120.858 L-448.595,-130.227 L-447.855,-138.856 L-448.102,-145.76 L-447.362,-155.129 C-446.376,-154.636 -445.472,-154.389 -444.65,-154.389 C-442.842,-154.718 -441.692,-155.047 -441.199,-155.375 C-439.555,-155.375 -437.829,-155.047 -436.021,-154.389 L-431.83,-157.101 L-425.173,-157.101 L-422.954,-159.074 L-419.995,-158.334 C-415.886,-158.334 -412.516,-159.32 -409.887,-161.293 L-404.709,-159.567 C-403.723,-160.224 -402.079,-161.046 -399.778,-162.032 C-397.97,-162.69 -396.737,-163.429 -396.08,-164.251 C-393.121,-165.566 -391.642,-166.963 -391.642,-168.443 Z M-288.83,-100.888 C-288.83,-102.696 -289.406,-104.422 -290.556,-106.065 L-289.817,-109.024 L-292.529,-110.75 C-295.323,-112.558 -297.131,-114.53 -297.953,-116.667 L-304.856,-120.612 L-308.801,-120.612 L-309.294,-122.338 L-313.732,-123.077 C-317.348,-125.05 -320.224,-126.036 -322.361,-126.036 L-323.347,-124.31 L-324.58,-127.022 L-334.196,-129.734 L-336.415,-131.213 L-342.085,-131.953 L-345.29,-134.665 L-350.221,-134.665 C-351.536,-135.816 -353.509,-136.884 -356.139,-137.87 L-359.344,-139.596 L-359.344,-140.829 C-361.152,-141.651 -362.261,-142.431 -362.672,-143.171 C-363.083,-143.911 -363.371,-145.431 -363.535,-147.732 C-363.371,-149.212 -362.96,-151.02 -362.302,-153.156 L-359.59,-154.636 L-357.371,-158.087 L-356.632,-158.334 L-354.413,-160.553 L-352.933,-161.293 L-352.44,-161.786 L-348.989,-162.525 L-346.77,-164.251 L-343.565,-164.251 C-341.263,-166.224 -338.88,-167.21 -336.415,-167.21 C-334.607,-168.525 -332.634,-169.182 -330.497,-169.182 L-328.771,-170.415 L-325.566,-168.196 L-322.115,-169.182 L-319.156,-168.936 L-319.156,-168.196 C-317.677,-165.402 -315.458,-164.005 -312.499,-164.005 C-308.883,-164.005 -306.582,-166.059 -305.596,-170.168 L-305.103,-172.387 L-303.377,-178.305 L-307.322,-180.77 L-307.322,-182.003 C-309.13,-184.14 -310.773,-185.455 -312.253,-185.948 L-312.746,-187.18 L-328.278,-188.167 L-336.415,-185.948 L-341.346,-185.455 L-344.058,-184.715 L-359.59,-178.798 L-363.289,-175.839 C-365.261,-174.688 -366.576,-173.456 -367.233,-172.141 L-370.932,-171.401 C-370.932,-168.936 -372.164,-167.045 -374.63,-165.73 C-376.931,-162.936 -378.246,-159.649 -378.575,-155.868 L-379.561,-154.389 L-378.575,-141.569 L-375.616,-137.377 L-371.918,-129.241 L-365.014,-124.803 L-364.028,-123.077 L-354.659,-121.351 L-352.194,-119.379 L-344.551,-116.42 L-341.099,-113.708 L-340.359,-113.708 L-338.387,-111.489 L-334.935,-112.722 L-333.209,-111.982 L-330.99,-111.982 C-328.854,-111.161 -326.717,-110.75 -324.58,-110.75 C-323.43,-110.75 -322.608,-110.832 -322.115,-110.996 L-320.142,-108.777 L-317.43,-109.27 L-318.17,-108.284 L-316.937,-106.558 L-314.718,-106.558 L-311.513,-104.093 L-310.28,-104.339 C-309.787,-103.353 -309.458,-102.778 -309.294,-102.614 L-309.541,-101.381 C-312.499,-99.9015 -315.704,-98.9153 -319.156,-98.4222 L-319.649,-97.6825 L-323.101,-97.1894 L-323.594,-95.9567 L-324.334,-95.9567 L-331.977,-94.7239 L-363.535,-92.7515 L-364.275,-93.2446 L-367.48,-93.9843 L-367.48,-97.1894 L-369.452,-97.436 C-370.439,-99.4084 -371.753,-100.723 -373.397,-101.381 L-373.397,-102.12 L-376.849,-102.12 L-381.287,-104.339 L-387.204,-102.12 L-391.888,-98.6687 L-391.888,-96.4498 C-391.888,-86.9165 -388.848,-81.8211 -382.766,-81.1636 C-381.451,-80.6705 -380.547,-80.424 -380.054,-80.424 L-378.082,-79.9309 L-374.63,-77.7119 C-373.315,-78.3694 -372,-78.6981 -370.685,-78.6981 C-369.37,-78.6981 -368.137,-78.6159 -366.987,-78.4516 L-365.014,-78.4516 C-363.864,-78.4516 -361.481,-78.2872 -357.864,-77.9585 C-355.235,-77.1366 -353.427,-76.397 -352.44,-75.7395 L-349.235,-77.4654 L-347.263,-77.2188 L-346.523,-76.9723 C-339.948,-77.4654 -336.004,-77.7941 -334.689,-77.9585 C-335.675,-77.9585 -336.99,-77.8763 -338.634,-77.7119 L-336.168,-76.2326 L-333.209,-77.7119 L-329.265,-77.9585 L-320.142,-77.2188 L-320.142,-79.1912 L-316.937,-79.9309 L-314.225,-79.1912 L-311.266,-81.6567 L-306.335,-81.6567 L-303.13,-84.8619 L-298.199,-85.355 L-296.473,-88.8067 L-294.501,-90.286 L-291.789,-96.6963 L-288.83,-100.148 L-288.83,-100.888 Z M-192.922,-168.443 C-192.922,-172.059 -195.47,-173.867 -200.565,-173.867 L-210.181,-173.867 L-211.413,-173.62 L-215.112,-173.867 L-225.96,-172.141 L-239.52,-173.374 L-247.163,-172.387 L-245.191,-176.825 L-247.163,-179.044 L-246.177,-184.961 L-247.41,-189.892 L-245.191,-192.851 L-245.684,-196.303 L-245.437,-197.535 L-246.424,-200.741 L-246.177,-202.467 L-245.684,-203.946 C-245.52,-204.603 -245.437,-205.014 -245.437,-205.179 C-245.437,-206.494 -245.931,-207.891 -246.917,-209.37 L-246.177,-210.603 C-246.67,-215.369 -249.547,-217.753 -254.806,-217.753 C-256.286,-217.753 -259.244,-217.342 -263.682,-216.52 L-265.655,-214.547 L-266.394,-211.096 C-267.216,-209.945 -267.627,-208.466 -267.627,-206.658 C-267.627,-205.179 -267.052,-203.535 -265.901,-201.727 L-263.929,-198.522 L-264.175,-190.879 L-262.942,-187.18 L-266.148,-185.455 L-262.942,-178.551 L-262.942,-173.62 L-268.12,-173.62 L-272.805,-174.853 L-276.01,-174.36 L-282.173,-175.346 L-286.858,-170.908 L-283.899,-166.224 L-283.899,-165.484 C-283.899,-160.224 -281.434,-157.594 -276.503,-157.594 L-275.763,-157.594 L-271.325,-154.389 L-266.641,-155.375 L-264.915,-154.636 L-264.915,-150.691 L-266.148,-149.458 L-265.161,-145.513 L-265.655,-141.075 L-264.915,-138.117 L-265.408,-134.912 L-267.134,-133.186 L-265.901,-127.762 L-267.134,-124.31 L-265.161,-121.598 L-265.655,-118.639 L-263.682,-107.051 L-258.258,-94.7239 L-255.299,-91.5188 L-250.122,-84.6153 L-247.903,-83.8757 L-239.274,-79.1912 L-236.068,-79.1912 C-234.589,-78.5338 -233.192,-78.205 -231.877,-78.205 C-229.412,-78.205 -227.521,-78.3694 -226.206,-78.6981 L-220.536,-80.1774 L-217.331,-80.1774 L-214.372,-82.8895 C-209.605,-83.8757 -206.482,-86.0946 -205.003,-89.5464 C-201.058,-91.0257 -199.086,-94.5595 -199.086,-100.148 L-199.086,-101.874 C-201.387,-104.011 -204.263,-105.079 -207.715,-105.079 C-211.496,-104.093 -214.125,-102.038 -215.605,-98.9153 C-215.769,-98.9153 -216.016,-98.9975 -216.344,-99.1618 C-216.673,-99.1618 -216.92,-99.1618 -217.084,-99.1618 C-218.399,-99.1618 -219.796,-98.5044 -221.275,-97.1894 C-223.412,-95.217 -224.809,-94.0664 -225.467,-93.7377 C-226.946,-94.2308 -228.425,-94.4774 -229.905,-94.4774 C-230.562,-94.4774 -231.713,-94.313 -233.356,-93.9843 L-235.329,-95.4636 L-238.287,-97.436 L-240.013,-98.1756 L-240.506,-101.134 C-244.122,-101.792 -245.931,-102.696 -245.931,-103.846 C-245.931,-104.504 -245.684,-105.079 -245.191,-105.572 L-248.643,-112.969 L-248.643,-116.42 L-249.382,-120.858 L-249.875,-130.227 L-249.136,-138.856 L-249.382,-145.76 L-248.643,-155.129 C-247.656,-154.636 -246.752,-154.389 -245.931,-154.389 C-244.122,-154.718 -242.972,-155.047 -242.479,-155.375 C-240.835,-155.375 -239.109,-155.047 -237.301,-154.389 L-233.11,-157.101 L-226.453,-157.101 L-224.234,-159.074 L-221.275,-158.334 C-217.166,-158.334 -213.797,-159.32 -211.167,-161.293 L-205.989,-159.567 C-205.003,-160.224 -203.359,-161.046 -201.058,-162.032 C-199.25,-162.69 -198.018,-163.429 -197.36,-164.251 C-194.401,-165.566 -192.922,-166.963 -192.922,-168.443 Z M-88.6312,-171.648 C-89.1243,-175.428 -91.5077,-177.401 -95.7812,-177.565 C-97.4249,-177.894 -98.5755,-178.058 -99.2329,-178.058 C-100.712,-178.058 -101.863,-177.729 -102.685,-177.072 C-104,-176.414 -104.986,-176.086 -105.643,-176.086 L-105.89,-176.086 C-105.89,-176.25 -105.808,-176.332 -105.643,-176.332 C-105.643,-176.332 -105.643,-176.414 -105.643,-176.579 C-105.808,-176.579 -107.04,-176.414 -109.341,-176.086 L-115.259,-174.113 L-119.45,-171.401 L-122.409,-169.922 L-123.395,-168.443 L-125.367,-167.456 L-126.847,-167.703 L-128.326,-165.977 L-131.038,-164.498 L-132.024,-163.018 L-132.764,-162.279 L-135.229,-161.786 L-137.448,-158.334 L-137.941,-157.594 C-139.914,-156.937 -141.968,-155.458 -144.105,-153.156 L-146.078,-149.458 L-148.79,-146.5 L-149.283,-143.541 L-152.734,-141.569 L-153.721,-137.87 C-154.707,-137.377 -155.446,-136.638 -155.94,-135.651 L-156.926,-131.953 C-157.09,-130.638 -157.665,-129.405 -158.652,-128.255 L-159.145,-130.72 L-159.884,-131.706 L-158.898,-134.172 L-158.405,-139.596 L-159.145,-144.527 C-158.323,-145.678 -157.912,-146.746 -157.912,-147.732 C-158.076,-149.212 -158.241,-150.116 -158.405,-150.444 L-159.145,-154.389 C-159.802,-158.334 -160.377,-161.95 -160.871,-165.237 L-160.131,-171.894 L-162.596,-175.099 L-163.829,-179.784 L-169.993,-181.017 C-177.225,-178.715 -180.841,-175.921 -180.841,-172.634 C-180.841,-171.155 -180.43,-169.922 -179.608,-168.936 L-179.608,-166.963 L-178.622,-161.046 L-177.636,-159.567 L-178.869,-155.622 L-176.65,-152.417 L-175.664,-147.979 L-176.65,-146.5 C-175.992,-145.678 -175.664,-144.034 -175.664,-141.569 C-175.664,-139.925 -175.746,-138.61 -175.91,-137.624 L-174.924,-134.419 L-175.91,-131.706 L-174.431,-129.241 L-175.17,-123.57 L-174.677,-121.844 L-175.17,-118.886 L-174.431,-115.681 L-175.17,-114.941 C-174.842,-110.832 -174.677,-108.366 -174.677,-107.545 C-175.828,-105.901 -176.403,-104.422 -176.403,-103.107 C-176.403,-101.627 -175.828,-100.312 -174.677,-99.1618 L-174.431,-96.6963 C-174.431,-96.3676 -174.431,-95.7923 -174.431,-94.9705 C-174.595,-94.1486 -174.677,-93.4912 -174.677,-92.9981 C-174.677,-91.6831 -174.513,-89.7107 -174.184,-87.0808 L-174.924,-83.3826 L-173.938,-81.1636 L-173.938,-75.493 L-164.815,-71.7947 L-157.912,-75.2464 L-154.953,-77.4654 L-151.748,-83.136 L-155.94,-87.5739 L-156.433,-89.7929 C-156.433,-90.1216 -156.35,-90.5326 -156.186,-91.0257 C-156.186,-91.5188 -156.186,-91.8475 -156.186,-92.0119 C-156.186,-92.6693 -156.35,-93.8199 -156.679,-95.4636 L-153.474,-99.9015 L-154.953,-103.107 L-152.488,-107.298 L-151.995,-110.503 L-148.296,-111.982 C-148.954,-112.969 -149.529,-113.873 -150.022,-114.695 L-149.283,-115.434 L-149.283,-119.132 L-147.31,-119.872 L-146.817,-123.57 L-144.845,-126.036 L-143.365,-128.994 L-139.914,-130.227 C-139.256,-132.857 -138.681,-134.829 -138.188,-136.144 L-136.955,-136.638 L-133.503,-142.308 C-132.353,-142.966 -130.463,-144.691 -127.833,-147.486 L-126.107,-147.486 L-122.655,-151.924 L-117.478,-154.389 L-117.478,-155.375 L-115.012,-157.101 L-111.314,-158.581 L-107.862,-160.553 L-104.657,-159.074 L-99.726,-162.279 L-90.6037,-163.512 L-88.6312,-171.648 Z M8.50967,-181.263 L5.30452,-187.427 L-3.5713,-185.208 L-8.25576,-186.194 L-13.4333,-190.879 C-13.4333,-190.714 -13.4333,-190.386 -13.4333,-189.892 C-13.5977,-189.235 -13.6799,-188.66 -13.6799,-188.167 C-14.8304,-190.632 -17.296,-191.865 -21.0764,-191.865 L-26.9936,-193.098 L-26.9936,-194.823 L-45.978,-195.81 L-54.1142,-192.111 L-55.3469,-191.618 L-58.059,-190.386 L-59.2917,-191.618 C-60.6067,-189.153 -62.6613,-186.276 -65.4555,-182.989 C-68.2497,-179.702 -69.9756,-177.236 -70.6331,-175.592 L-70.6331,-174.113 C-71.2905,-173.456 -71.6193,-172.634 -71.6193,-171.648 C-71.6193,-171.483 -71.5371,-171.237 -71.3727,-170.908 C-71.3727,-170.579 -71.3727,-170.333 -71.3727,-170.168 L-72.3589,-169.182 L-72.1124,-164.744 C-74.2491,-162.114 -75.3175,-159.238 -75.3175,-156.115 L-75.3175,-155.129 L-78.2761,-151.431 L-77.0434,-149.458 C-78.3583,-147.814 -79.2623,-146.171 -79.7554,-144.527 C-81.7278,-143.541 -82.714,-142.062 -82.714,-140.089 C-82.714,-139.432 -82.6318,-138.856 -82.4675,-138.363 C-82.6318,-138.035 -82.714,-137.542 -82.714,-136.884 C-82.714,-135.898 -82.2209,-134.994 -81.2347,-134.172 L-82.9606,-133.432 C-83.9468,-130.802 -84.4399,-128.912 -84.4399,-127.762 C-84.4399,-126.775 -84.3577,-126.118 -84.1933,-125.789 C-84.5221,-124.803 -84.6864,-123.981 -84.6864,-123.324 C-84.6864,-122.995 -84.6043,-122.666 -84.4399,-122.338 C-84.4399,-121.844 -84.4399,-121.516 -84.4399,-121.351 L-86.1657,-113.215 L-86.6588,-108.038 L-88.1381,-104.586 L-86.6588,-101.381 L-86.4123,-98.4222 L-86.1657,-96.9429 L-87.3985,-96.2032 C-87.0698,-89.4642 -83.2071,-84.2866 -75.8106,-80.6705 C-73.6738,-77.7119 -70.5509,-76.1504 -66.4417,-75.9861 L-63.2365,-78.4516 L-58.5521,-79.4378 L-50.1694,-88.8067 L-42.2797,-93.7377 L-41.047,-96.9429 L-35.6229,-101.627 L-33.897,-104.586 L-27.7333,-110.257 L-24.2816,-115.681 L-22.3091,-116.667 L-20.0902,-123.077 L-15.8988,-129.981 L-14.4195,-124.063 L-16.3919,-113.708 L-14.9126,-99.1618 L-14.9126,-97.6825 C-14.9126,-94.8883 -14.4195,-91.8475 -13.4333,-88.5601 L-13.4333,-84.3688 L-5.79026,-75.493 L-3.32475,-76.9723 L-2.092,-75.7395 L2.09936,-77.9585 C4.23613,-79.109 5.8798,-80.2596 7.03037,-81.4102 L10.7286,-85.1084 C10.5643,-86.5877 9.98898,-88.3136 9.00278,-90.286 L6.29072,-90.0395 L8.01657,-93.7377 L4.81142,-98.6687 L0.866607,-99.1618 L0.620057,-99.9015 C0.784424,-100.559 0.866607,-101.463 0.866607,-102.614 L0.866607,-103.6 L2.59246,-109.27 L0.126955,-109.763 L0.373506,-110.503 L3.82521,-116.174 L1.35971,-117.9 L2.83901,-119.872 L1.60626,-123.817 L3.33211,-127.762 L3.33211,-131.706 L5.55107,-133.679 L4.07176,-135.405 L3.33211,-138.856 L5.30452,-140.829 L4.56487,-143.787 L5.55107,-146.5 L5.30452,-147.486 C5.46888,-147.814 5.55107,-148.39 5.55107,-149.212 C5.55107,-150.198 5.30452,-151.266 4.81142,-152.417 L4.81142,-153.403 L5.30452,-154.143 C6.45509,-155.293 7.03037,-157.019 7.03037,-159.32 L6.53727,-160.553 L7.27692,-161.786 L8.50967,-166.963 L11.7148,-170.661 L9.74243,-176.579 L12.2079,-179.784 L8.50967,-181.263 Z M-11.4609,-164.251 L-13.6799,-162.279 L-14.173,-159.567 L-15.8988,-156.855 L-15.6523,-155.868 L-17.6247,-152.17 L-30.1988,-135.405 C-31.0206,-134.583 -31.8013,-133.679 -32.541,-132.693 C-33.2806,-131.706 -33.8148,-130.885 -34.1436,-130.227 L-37.5953,-129.734 L-36.8556,-125.543 L-38.828,-125.543 L-40.3073,-121.598 C-42.1154,-120.612 -43.5125,-119.954 -44.4987,-119.626 L-46.2245,-115.434 L-47.7039,-114.941 L-62.2503,-103.107 L-62.99,-101.381 L-66.4417,-100.888 L-65.9486,-98.9153 C-66.7704,-98.2578 -67.5923,-97.5182 -68.4141,-96.6963 L-69.6469,-96.4498 L-70.6331,-96.9429 L-70.6331,-97.6825 L-71.1262,-102.367 L-68.4141,-105.819 L-70.14,-110.503 L-68.4141,-112.969 L-69.4003,-114.448 L-67.1813,-119.132 L-67.6744,-120.365 C-67.3457,-121.516 -67.1813,-123.077 -67.1813,-125.05 L-66.4417,-126.282 L-66.4417,-129.734 L-65.702,-130.227 L-65.2089,-132.446 L-63.2365,-134.665 L-63.2365,-139.103 L-61.2641,-141.569 C-61.2641,-144.527 -60.3601,-147.568 -58.5521,-150.691 L-59.0452,-151.677 L-54.8538,-154.882 L-57.3193,-158.334 L-56.3331,-160.553 L-54.6073,-166.47 C-53.4567,-168.114 -51.4021,-170.168 -48.4435,-172.634 L-47.7039,-172.88 L-46.7177,-174.113 L-41.047,-176.086 L-41.7866,-177.072 L-35.3763,-177.072 L-33.1574,-175.839 L-31.185,-176.579 L-30.6919,-176.086 L-26.7471,-176.086 L-21.816,-175.346 L-14.173,-169.182 L-12.2006,-168.689 L-11.2144,-166.963 L-11.4609,-164.251 Z M134.744,-116.913 L134.004,-122.091 L132.032,-126.529 L132.525,-130.474 L130.059,-132.939 L130.059,-134.665 C128.251,-137.295 127.183,-140.5 126.854,-144.281 L124.388,-144.774 L123.895,-146.5 L122.169,-148.225 L122.169,-153.156 L119.211,-153.156 L117.732,-155.868 L115.759,-157.101 C115.102,-158.745 114.115,-160.06 112.801,-161.046 L112.801,-162.525 L108.116,-164.005 L107.87,-164.498 L101.952,-168.196 L98.7472,-172.141 L94.0627,-173.62 L91.3507,-176.579 L85.9266,-174.853 L86.1731,-176.332 C85.5156,-176.497 84.6116,-176.579 83.461,-176.579 L81.4886,-178.058 L79.7628,-177.318 L78.53,-179.537 C76.5576,-180.359 74.503,-180.77 72.3663,-180.77 L67.9284,-183.975 L65.7094,-181.756 L61.7646,-188.167 L55.8474,-189.399 L53.6284,-180.77 L52.3957,-180.277 L45.4923,-180.77 L43.7664,-179.044 L35.8768,-175.839 L34.1509,-174.113 C30.0418,-173.949 25.686,-172.552 21.0838,-169.922 L21.3303,-166.224 C19.851,-164.909 19.1113,-163.265 19.1113,-161.293 C19.1113,-158.498 23.1383,-154.718 31.1923,-149.951 L32.4251,-152.417 L34.8906,-151.431 L37.8492,-155.375 L40.0681,-155.375 L42.7802,-157.841 L44.5061,-158.087 L44.5061,-156.608 L53.3819,-160.553 L54.1215,-158.827 L53.6284,-156.362 L54.3681,-153.649 L53.6284,-148.718 L54.6146,-147.732 L53.6284,-144.034 L54.8612,-140.829 L53.6284,-136.638 L54.8612,-132.693 L54.6146,-131.706 L54.6146,-128.994 L54.3681,-128.008 L54.3681,-127.022 L52.8888,-121.844 L52.6422,-117.653 L54.3681,-116.42 L52.6422,-111.736 L55.6008,-109.024 L52.8888,-104.339 L54.6146,-101.134 L53.1353,-91.0257 L54.1215,-83.8757 L51.9026,-81.1636 L53.6284,-78.9447 L52.8888,-75.7395 L54.3681,-73.274 C53.3819,-69.8223 52.8888,-67.0281 52.8888,-64.8913 C52.8888,-63.7407 52.971,-62.9189 53.1353,-62.4258 C51.9848,-61.9327 51.4095,-61.4396 51.4095,-60.9465 C51.4095,-60.6178 51.8615,-60.0425 52.7655,-59.2206 C53.6695,-58.3988 54.2859,-57.4948 54.6146,-56.5086 L52.6422,-52.0707 L54.1215,-47.1397 L52.3957,-44.181 L54.6146,-38.5104 L52.6422,-35.3052 L53.6284,-27.9087 L53.3819,-22.4846 L50.9164,-18.0467 L52.3957,-7.19846 L51.656,0.198053 C56.4227,1.51299 59.2991,2.17046 60.2853,2.17046 C64.8876,2.17046 67.4353,-3.58239 67.9284,-15.0881 L68.4215,-24.9501 L69.6542,-26.9225 L68.668,-30.3742 C70.476,-31.3604 71.3801,-32.5932 71.3801,-34.0725 C71.3801,-34.5656 71.2157,-35.3052 70.887,-36.2914 L70.887,-39.9897 L69.4077,-40.7293 L70.1473,-43.1948 L69.1611,-46.8931 L71.1335,-49.3586 L70.1473,-58.7275 L70.887,-64.8913 C70.887,-66.6993 70.7226,-69.4114 70.3939,-73.0275 L72.3663,-75.493 L71.6266,-80.1774 C72.1197,-81.6567 72.3663,-83.136 72.3663,-84.6153 L72.3663,-86.0946 C73.5168,-86.259 74.1743,-86.3412 74.3387,-86.3412 L76.3111,-84.8619 L81.4886,-85.355 L83.9541,-83.136 L90.1179,-84.6153 L97.0213,-83.6291 L96.0351,-84.1222 L100.226,-84.3688 L100.966,-83.8757 L106.39,-81.4102 L111.075,-83.136 L113.294,-83.3826 L116.992,-84.6153 L118.471,-84.3688 C120.937,-85.6837 123.32,-87.4096 125.621,-89.5464 L130.059,-90.0395 L130.552,-94.7239 L131.538,-95.217 L133.511,-98.6687 L134.497,-102.614 L135.483,-104.093 L133.511,-109.024 L136.469,-116.42 L134.744,-116.913 Z M116.992,-110.996 L115.266,-109.024 L116.006,-107.051 L114.773,-106.558 L114.28,-103.107 L109.595,-98.4222 C109.924,-98.4222 109.349,-98.6687 107.87,-99.1618 L103.925,-101.627 L98.9937,-100.148 L97.0213,-100.641 L94.8024,-100.641 C93.6518,-101.299 92.419,-101.627 91.1041,-101.627 C90.2823,-101.627 89.3783,-101.381 88.3921,-100.888 C87.0771,-101.216 86.1731,-101.381 85.68,-101.381 C85.5156,-101.381 85.2691,-101.381 84.9403,-101.381 C84.4472,-101.216 84.1185,-101.134 83.9541,-101.134 C82.8036,-102.12 81.4886,-102.614 80.0093,-102.614 C78.8588,-102.614 77.9547,-102.449 77.2973,-102.12 L72.1197,-102.12 L72.3663,-105.326 L71.6266,-108.777 L72.1197,-111.982 L73.3525,-114.941 L71.6266,-117.16 C72.9416,-118.146 73.599,-118.886 73.599,-119.379 C73.599,-119.543 73.5168,-119.708 73.3525,-119.872 L74.3387,-122.584 C72.8594,-124.721 71.8732,-127.351 71.3801,-130.474 L72.6128,-137.87 L72.3663,-141.569 L75.0783,-147.486 L71.6266,-150.691 L70.6404,-153.403 L71.1335,-158.087 L70.887,-161.046 L75.3249,-160.306 L76.3111,-158.581 L78.7766,-159.074 L80.749,-157.101 L83.2145,-158.334 L86.6662,-158.334 L87.6524,-158.087 L89.3783,-154.882 L91.8438,-155.375 L94.8024,-151.431 L98.7472,-151.924 L102.692,-146.746 L104.911,-145.76 L106.637,-141.569 L109.595,-139.103 L113.294,-132.693 L114.28,-129.981 L116.252,-126.036 L116.499,-123.57 L117.485,-121.598 L116.499,-119.379 L117.978,-114.941 L117.732,-113.955 L117.978,-112.722 L116.992,-110.996 Z " fill="#d97f7f" fill-opacity="1.00" />			<path d="M586.757,-136.717 L580.986,-111.216 C578.168,-107.458 574.544,-106.25 569.578,-106.25 C558.438,-106.25 554.009,-116.451 554.009,-128.396 C554.009,-149.736 569.041,-174.835 583.805,-174.835 C592.394,-174.835 593.066,-167.453 593.066,-165.305 C593.066,-161.95 590.515,-155.239 587.16,-154.3 C589.71,-151.347 594.274,-150.81 596.421,-150.81 C603.266,-150.81 605.816,-156.044 605.816,-163.158 C605.816,-176.177 593.334,-181.143 580.852,-181.143 C550.922,-181.143 533.339,-155.105 533.339,-129.47 C533.339,-110.948 540.319,-95.1103 562.196,-95.1103 C563.404,-95.1103 570.786,-95.7814 578.57,-99.9421 L573.202,-75.9174 C570.115,-62.0932 565.82,-59.4089 559.78,-59.4089 C554.143,-59.4089 551.324,-63.838 551.324,-68.5356 C551.324,-73.5016 554.546,-78.736 560.719,-78.736 C563.404,-78.736 565.417,-78.0649 568.772,-75.2464 C569.309,-77.2596 569.578,-79.1386 569.578,-80.615 C569.578,-89.2048 561.793,-89.6075 556.425,-89.6075 C545.822,-89.6075 540.05,-80.3466 540.05,-71.2199 C540.05,-61.959 545.956,-52.6981 558.706,-52.6981 C580.718,-52.6981 588.636,-65.5828 593.066,-86.1179 L604.071,-136.583 L586.757,-136.717 Z M646.17,-147.589 L637.044,-104.505 C635.03,-97.7947 631.541,-92.6945 626.306,-92.6945 C623.354,-92.6945 622.28,-95.1103 622.28,-98.1973 C622.28,-99.4053 622.414,-100.613 622.683,-101.955 L632.346,-147.589 L613.019,-147.589 L603.892,-104.505 C603.221,-101.284 602.819,-98.3315 602.819,-95.7814 C602.819,-84.5073 609.127,-79.6755 617.18,-79.6755 C622.817,-79.6755 630.333,-81.4203 637.044,-92.426 C637.849,-84.1046 642.681,-79.6755 650.331,-79.6755 C657.579,-79.6755 669.658,-82.6283 677.309,-104.505 L671.671,-104.505 C669.658,-97.7947 666.034,-92.6945 660.8,-92.6945 C657.042,-92.6945 655.297,-93.9024 655.297,-97.6604 C655.297,-98.8684 655.431,-100.211 655.834,-101.955 L665.497,-147.589 L646.17,-147.589 Z M681.559,-171.748 L667.198,-104.505 C666.526,-101.284 666.124,-98.3315 666.124,-95.7814 C666.124,-84.5073 672.432,-79.6755 680.485,-79.6755 C687.733,-79.6755 701.02,-82.6283 708.67,-104.505 L703.033,-104.505 C701.02,-97.7947 696.188,-92.6945 690.954,-92.6945 C687.196,-92.6945 685.451,-93.9024 685.451,-97.6604 C685.451,-98.8684 685.585,-100.211 685.988,-101.955 L701.423,-174.432 L681.559,-171.748 Z M708.76,-152.555 L686.346,-46.9268 L706.612,-51.7586 L713.592,-84.5073 C715.068,-81.9572 718.289,-79.6755 725,-79.6755 C751.038,-79.6755 758.017,-108.935 758.017,-127.054 C758.017,-143.025 750.769,-148.26 741.643,-148.26 C734.932,-148.26 729.832,-145.844 725.939,-142.489 L728.087,-152.555 L708.76,-152.555 Z M720.839,-91.3523 C717.752,-91.3523 716.276,-92.9629 715.739,-94.4393 L723.658,-132.02 C726.208,-136.315 729.966,-138.596 732.919,-138.596 C735.335,-138.596 739.629,-137.791 739.629,-127.456 C739.629,-114.84 734.932,-91.3523 720.839,-91.3523 Z " fill="#e9b7b7" fill-opacity="1.00" />			<path d="M-34.0435,297.575 L-34.0435,374.666 L-71.4552,374.666 L-71.4552,297.575 L-106.883,297.575 L-106.883,495.971 L-71.4552,495.971 L-71.4552,402.725 L-34.0435,402.725 L-34.0435,495.971 L1.38423,495.971 L1.38423,297.575 L-34.0435,297.575 Z M125.617,297.575 L17.3503,297.575 L17.3503,325.634 L53.6283,325.634 L53.6283,495.971 L89.056,495.971 L89.056,325.634 L125.617,325.634 L125.617,297.575 Z M235.68,297.575 L212.722,416.329 L212.156,416.329 L189.482,297.575 L141.584,297.575 L141.584,495.971 L177.011,495.971 L177.011,373.816 L177.578,373.816 L200.252,495.971 L224.626,495.971 L247.867,373.816 L247.867,495.971 L283.294,495.971 L283.294,297.575 L235.68,297.575 Z M341.207,467.628 L341.207,297.575 L305.779,297.575 L305.779,495.971 L387.688,495.971 L387.688,467.628 L341.207,467.628 Z " fill="#a63131" fill-opacity="1.00" />		</g>	</svg>