<?xml version="1.0" encoding="utf-8" ?>	<!-- Generator: Assembly 1.8 - http://assemblyapp.co -->	<svg version="1.1" xmlns="http://www.w3.org/2000/svg" xmlns:xlink="http://www.w3.org/1999/xlink" width="2048.00" height="1365.33" viewBox="0 0 2048.0 1365.3333333333335">		<rect x="0" y="0" width="2048.00" height="1365.33" fill="#ffffff" />		<g id="document" transform="matrix(1,0,0,1,1024.0,682.6666666666667)">			<path d="M-780.955,33.6752 L-781.214,32.8991 L-779.144,30.8294 L-779.661,25.6554 L-778.885,23.8444 L-779.92,15.8246 L-779.403,10.1331 L-779.403,-1.24996 L-778.885,-5.13054 L-779.92,-18.0658 L-778.368,-26.8618 L-779.92,-31.001 L-779.92,-36.4338 L-781.472,-37.2099 L-780.955,-40.5731 L-782.766,-43.1602 L-779.92,-47.8168 L-784.836,-50.9213 L-785.612,-52.4735 C-786.647,-55.4055 -789.147,-56.8715 -793.114,-56.8715 C-801.048,-56.8715 -805.791,-47.9893 -807.343,-30.2249 L-804.756,-29.7075 L-804.756,-28.414 L-802.428,-21.9464 L-802.428,-10.5633 L-799.582,-0.473847 L-801.393,6.76989 L-799.582,9.35694 L-801.134,12.4614 L-799.582,21.2574 L-800.875,25.6554 L-802.686,46.6105 L-802.169,50.2323 L-804.497,56.1825 L-806.049,56.6999 L-803.462,64.4611 L-804.756,64.9785 L-804.756,66.0133 L-805.015,69.6352 L-807.602,69.6352 L-807.602,79.466 L-808.636,84.3814 C-810.361,86.2785 -811.568,87.6583 -812.258,88.5206 L-812,91.1077 L-815.363,94.4709 L-813.552,97.0579 L-814.328,97.834 C-814.5,98.6964 -814.587,100.076 -814.587,101.973 L-818.209,104.56 L-819.243,109.734 L-823.124,111.287 L-824.417,116.202 L-828.039,119.565 L-829.85,120.859 L-831.144,121.117 L-833.213,122.67 L-836.318,122.67 L-837.87,124.739 L-842.527,124.739 L-843.82,127.844 L-852.616,127.844 C-854.513,128.361 -859.256,128.62 -866.845,128.62 L-869.949,129.655 L-874.347,128.361 L-876.158,128.879 L-881.85,127.585 L-888.318,128.361 L-890.128,126.809 L-894.526,126.809 L-896.596,126.55 C-900.735,124.998 -904.961,124.222 -909.273,124.222 C-915.826,121.117 -921.69,119.565 -926.865,119.565 C-932.039,119.565 -934.626,120.686 -934.626,122.928 C-934.626,128.103 -932.815,131.552 -929.193,133.277 L-926.347,133.277 L-922.467,135.088 L-922.467,136.122 L-915.482,136.381 L-912.377,140.262 L-903.581,139.486 L-901.77,144.401 L-891.939,141.814 L-885.213,143.884 L-883.143,143.625 L-879.263,148.54 L-873.83,144.401 L-872.795,144.66 L-866.845,143.884 L-858.049,146.471 L-848.736,142.59 L-840.975,143.366 L-833.213,140.52 L-830.885,141.038 L-826.228,137.675 L-821.313,135.088 L-808.895,126.809 C-807.515,124.394 -805.359,120.514 -802.428,115.167 L-798.03,112.58 L-798.03,105.595 L-795.442,105.078 L-793.373,102.232 L-793.373,101.456 L-790.786,100.421 L-791.562,96.7992 L-790.01,95.247 L-790.01,90.0729 L-786.388,86.451 L-787.94,84.3814 L-785.87,81.7943 L-785.87,76.3615 L-785.353,72.7396 L-785.353,71.7048 L-783.025,66.7894 L-784.059,62.1327 L-784.059,60.5805 L-784.836,55.4064 C-784.836,54.5441 -784.404,53.2505 -783.542,51.5258 C-782.68,49.8011 -782.249,48.3351 -782.249,47.1279 L-782.249,46.093 L-780.955,45.0582 L-781.731,39.8841 L-781.472,38.0732 L-777.851,37.5558 L-780.955,33.6752 Z M-662.899,-24.2747 L-666.262,-30.7423 L-675.576,-28.414 L-680.491,-29.4488 L-685.924,-34.3642 C-685.924,-34.1917 -685.924,-33.8468 -685.924,-33.3294 C-686.097,-32.6395 -686.183,-32.0358 -686.183,-31.5184 C-687.39,-34.1055 -689.977,-35.399 -693.944,-35.399 L-700.153,-36.6925 L-700.153,-38.5035 L-720.073,-39.5383 L-728.61,-35.6577 L-729.904,-35.1403 L-732.75,-33.8468 L-734.043,-35.1403 C-735.423,-32.5533 -737.579,-29.535 -740.511,-26.0856 C-743.443,-22.6362 -745.254,-20.0492 -745.944,-18.3245 L-745.944,-16.7723 C-746.633,-16.0824 -746.978,-15.22 -746.978,-14.1852 C-746.978,-14.0127 -746.892,-13.754 -746.72,-13.4091 C-746.72,-13.0642 -746.72,-12.8054 -746.72,-12.633 L-747.755,-11.5982 L-747.496,-6.94147 C-749.738,-4.18195 -750.859,-1.16373 -750.859,2.1132 L-750.859,3.14802 L-753.963,7.0286 L-752.67,9.09824 C-754.05,10.8229 -754.998,12.5476 -755.516,14.2723 C-757.585,15.3072 -758.62,16.8594 -758.62,18.929 C-758.62,19.6189 -758.534,20.2225 -758.361,20.74 C-758.534,21.0849 -758.62,21.6023 -758.62,22.2922 C-758.62,23.327 -758.103,24.2756 -757.068,25.1379 L-758.879,25.9141 C-759.914,28.6736 -760.431,30.657 -760.431,31.8643 C-760.431,32.8991 -760.345,33.589 -760.172,33.9339 C-760.517,34.9687 -760.69,35.8311 -760.69,36.521 C-760.69,36.8659 -760.604,37.2108 -760.431,37.5558 C-760.431,38.0732 -760.431,38.4181 -760.431,38.5906 L-762.242,47.1279 L-762.759,52.5607 L-764.312,56.1825 L-762.759,59.5457 L-762.501,62.6502 L-762.242,64.2024 L-763.536,64.9785 C-763.191,72.0498 -759.138,77.4826 -751.376,81.2769 C-749.134,84.3814 -745.857,86.0198 -741.546,86.1923 L-738.182,83.6053 L-733.267,82.5704 L-724.471,72.7396 L-716.193,67.5655 L-714.899,64.2024 L-709.207,59.287 L-707.397,56.1825 L-700.929,50.2323 L-697.307,44.5408 L-695.237,43.506 L-692.909,36.7797 L-688.511,29.5359 L-686.959,35.7448 L-689.029,46.6105 L-687.476,61.874 L-687.476,63.4263 C-687.476,66.3583 -686.959,69.549 -685.924,72.9984 L-685.924,77.3963 L-677.904,86.7097 L-675.317,85.1575 L-674.024,86.451 L-669.626,84.1227 C-667.384,82.9154 -665.659,81.7081 -664.452,80.5008 L-660.571,76.6202 C-660.743,75.068 -661.347,73.2571 -662.382,71.1874 L-665.228,71.4461 L-663.417,67.5655 L-666.78,62.3915 L-670.919,61.874 L-671.178,61.0979 C-671.005,60.408 -670.919,59.4595 -670.919,58.2522 L-670.919,57.2174 L-669.108,51.2671 L-671.695,50.7497 L-671.437,49.9736 L-667.815,44.0234 L-670.402,42.2125 L-668.85,40.1428 L-670.143,36.0035 L-668.332,31.8643 L-668.332,27.725 L-666.004,25.6554 L-667.556,23.8444 L-668.332,20.2225 L-666.262,18.1529 L-667.039,15.0484 L-666.004,12.2027 L-666.262,11.1679 C-666.09,10.8229 -666.004,10.2193 -666.004,9.35694 C-666.004,8.32212 -666.262,7.20107 -666.78,5.99378 L-666.78,4.95896 L-666.262,4.18284 C-665.055,2.97555 -664.452,1.16462 -664.452,-1.24996 L-664.969,-2.54349 L-664.193,-3.83701 L-662.899,-9.26982 L-659.536,-13.1504 L-661.606,-19.3593 L-659.019,-22.7225 L-662.899,-24.2747 Z M-683.854,-6.42406 L-686.183,-4.35442 L-686.7,-1.50867 L-688.511,1.33709 L-688.252,2.37191 L-690.322,6.25248 L-703.516,23.8444 C-704.378,24.7068 -705.198,25.6554 -705.974,26.6902 C-706.75,27.725 -707.31,28.5873 -707.655,29.2772 L-711.277,29.7946 L-710.501,34.1926 L-712.571,34.1926 L-714.123,38.3319 C-716.02,39.3667 -717.486,40.0566 -718.521,40.4015 L-720.332,44.7995 L-721.884,45.3169 L-737.148,57.7348 L-737.924,59.5457 L-741.546,60.0631 L-741.028,62.1327 C-741.891,62.8226 -742.753,63.5987 -743.615,64.4611 L-744.909,64.7198 L-745.944,64.2024 L-745.944,63.4263 L-746.461,58.5109 L-743.615,54.889 L-745.426,49.9736 L-743.615,47.3866 L-744.65,45.8343 L-742.322,40.9189 L-742.839,39.6254 C-742.494,38.4181 -742.322,36.7797 -742.322,34.71 L-741.546,33.4165 L-741.546,29.7946 L-740.769,29.2772 L-740.252,26.9489 L-738.182,24.6205 L-738.182,19.9638 L-736.113,17.3768 C-736.113,14.2723 -735.164,11.0816 -733.267,7.80471 L-733.784,6.76989 L-729.386,3.40673 L-731.974,-0.215142 L-730.939,-2.54349 L-729.128,-8.75241 C-727.92,-10.4771 -725.765,-12.633 -722.66,-15.22 L-721.884,-15.4787 L-720.849,-16.7723 L-714.899,-18.8419 L-715.675,-19.8767 L-708.949,-19.8767 L-706.62,-18.5832 L-704.551,-19.3593 L-704.033,-18.8419 L-699.894,-18.8419 L-694.72,-18.0658 L-686.7,-11.5982 L-684.631,-11.0807 L-683.596,-9.26982 L-683.854,-6.42406 Z M-530.356,-45.7472 L-537.6,-41.3492 L-538.893,-40.5731 C-539.583,-40.0557 -540.618,-38.3741 -541.998,-35.5284 C-543.378,-32.6826 -545.102,-30.5699 -547.172,-29.1901 L-548.465,-29.1901 L-548.465,-23.7573 L-550.276,-21.4289 L-552.605,-14.1852 C-554.502,-12.8054 -555.709,-10.822 -556.227,-8.235 L-558.555,-5.13054 L-561.918,2.88932 L-563.729,3.40673 L-565.023,9.09824 L-566.834,12.4614 L-566.834,12.9788 C-568.731,14.531 -569.679,16.4282 -569.679,18.6703 L-569.679,19.4464 L-570.714,19.9638 L-572.008,18.4116 L-573.819,23.0683 C-574.681,24.2756 -575.112,25.2242 -575.112,25.9141 L-575.63,27.2076 L-578.475,28.5011 L-577.958,31.8643 L-578.993,32.6404 L-580.545,36.0035 L-583.132,38.0732 L-585.202,43.2473 L-588.565,48.1627 C-591.152,49.5424 -592.79,51.2671 -593.48,53.3368 C-593.48,52.8194 -593.566,52.5607 -593.739,52.5607 C-594.256,52.5607 -595.119,54.2854 -596.326,57.7348 C-597.016,57.2174 -597.706,56.9586 -598.396,56.9586 C-599.085,56.9586 -599.689,57.4761 -600.206,58.5109 L-599.43,60.5805 L-601.5,61.3566 C-602.017,62.7364 -602.621,63.4263 -603.311,63.4263 L-603.828,63.4263 L-606.415,60.8392 L-609.779,50.7497 L-613.918,42.4712 L-614.435,38.5906 L-617.281,28.5011 L-617.281,24.1031 L-619.351,23.0683 L-619.609,20.74 L-620.903,19.4464 L-623.231,13.2375 L-623.749,10.1331 L-622.196,5.99378 L-626.336,2.88932 L-626.336,0.560972 C-628.06,0.905912 -629.268,1.25085 -629.958,1.59579 L-630.734,-4.35442 C-632.458,-10.7358 -638.064,-17.1172 -647.549,-23.4986 C-654.966,-20.5666 -658.674,-16.686 -658.674,-11.8569 C-658.674,-6.16536 -656.518,-2.62972 -652.206,-1.24996 L-650.137,2.1132 L-646.515,5.21766 L-644.445,13.7549 L-639.788,17.3768 L-637.977,22.0335 L-636.684,23.8444 L-636.166,26.6902 L-634.097,30.312 L-634.614,32.8991 L-627.888,47.904 L-627.888,54.3716 L-625.042,57.2174 L-624.783,63.4263 L-623.231,64.4611 L-622.714,67.5655 L-613.659,80.7595 L-614.435,78.9486 C-610.641,83.7777 -606.415,86.1923 -601.759,86.1923 C-595.895,86.1923 -590.289,81.5356 -584.943,72.2222 L-579.769,66.7894 L-578.217,64.2024 L-573.56,61.3566 L-570.714,59.0283 C-571.059,57.3036 -571.232,56.1825 -571.232,55.6651 L-569.421,54.3716 L-568.644,51.5258 L-565.54,47.3866 L-563.729,46.3517 L-563.212,41.6951 C-560.452,39.9704 -559.072,37.9007 -559.072,35.4861 L-559.072,32.8991 L-554.157,24.8792 L-548.207,11.1679 L-544.068,7.54601 C-544.068,6.33872 -544.154,5.21766 -544.326,4.18284 L-541.998,0.560972 L-539.67,-7.71759 C-537.255,-9.09735 -535.789,-10.9945 -535.272,-13.4091 L-534.495,-13.4091 L-533.719,-19.1006 L-531.391,-20.9115 L-530.356,-26.3443 L-526.476,-28.6727 L-527.252,-33.5881 L-524.665,-37.9861 L-530.356,-45.7472 Z M-436.36,-24.2747 L-439.723,-30.7423 L-449.037,-28.414 L-453.952,-29.4488 L-459.385,-34.3642 C-459.385,-34.1917 -459.385,-33.8468 -459.385,-33.3294 C-459.557,-32.6395 -459.643,-32.0358 -459.643,-31.5184 C-460.851,-34.1055 -463.438,-35.399 -467.405,-35.399 L-473.614,-36.6925 L-473.614,-38.5035 L-493.534,-39.5383 L-502.071,-35.6577 L-503.365,-35.1403 L-506.21,-33.8468 L-507.504,-35.1403 C-508.884,-32.5533 -511.04,-29.535 -513.972,-26.0856 C-516.903,-22.6362 -518.714,-20.0492 -519.404,-18.3245 L-519.404,-16.7723 C-520.094,-16.0824 -520.439,-15.22 -520.439,-14.1852 C-520.439,-14.0127 -520.353,-13.754 -520.18,-13.4091 C-520.18,-13.0642 -520.18,-12.8054 -520.18,-12.633 L-521.215,-11.5982 L-520.957,-6.94147 C-523.199,-4.18195 -524.32,-1.16373 -524.32,2.1132 L-524.32,3.14802 L-527.424,7.0286 L-526.131,9.09824 C-527.51,10.8229 -528.459,12.5476 -528.976,14.2723 C-531.046,15.3072 -532.081,16.8594 -532.081,18.929 C-532.081,19.6189 -531.995,20.2225 -531.822,20.74 C-531.995,21.0849 -532.081,21.6023 -532.081,22.2922 C-532.081,23.327 -531.563,24.2756 -530.529,25.1379 L-532.34,25.9141 C-533.374,28.6736 -533.892,30.657 -533.892,31.8643 C-533.892,32.8991 -533.806,33.589 -533.633,33.9339 C-533.978,34.9687 -534.15,35.8311 -534.15,36.521 C-534.15,36.8659 -534.064,37.2108 -533.892,37.5558 C-533.892,38.0732 -533.892,38.4181 -533.892,38.5906 L-535.703,47.1279 L-536.22,52.5607 L-537.772,56.1825 L-536.22,59.5457 L-535.961,62.6502 L-535.703,64.2024 L-536.996,64.9785 C-536.651,72.0498 -532.598,77.4826 -524.837,81.2769 C-522.595,84.3814 -519.318,86.0198 -515.006,86.1923 L-511.643,83.6053 L-506.728,82.5704 L-497.932,72.7396 L-489.653,67.5655 L-488.36,64.2024 L-482.668,59.287 L-480.857,56.1825 L-474.39,50.2323 L-470.768,44.5408 L-468.698,43.506 L-466.37,36.7797 L-461.972,29.5359 L-460.42,35.7448 L-462.489,46.6105 L-460.937,61.874 L-460.937,63.4263 C-460.937,66.3583 -460.42,69.549 -459.385,72.9984 L-459.385,77.3963 L-451.365,86.7097 L-448.778,85.1575 L-447.484,86.451 L-443.086,84.1227 C-440.844,82.9154 -439.12,81.7081 -437.912,80.5008 L-434.032,76.6202 C-434.204,75.068 -434.808,73.2571 -435.843,71.1874 L-438.688,71.4461 L-436.877,67.5655 L-440.241,62.3915 L-444.38,61.874 L-444.639,61.0979 C-444.466,60.408 -444.38,59.4595 -444.38,58.2522 L-444.38,57.2174 L-442.569,51.2671 L-445.156,50.7497 L-444.897,49.9736 L-441.275,44.0234 L-443.862,42.2125 L-442.31,40.1428 L-443.604,36.0035 L-441.793,31.8643 L-441.793,27.725 L-439.464,25.6554 L-441.017,23.8444 L-441.793,20.2225 L-439.723,18.1529 L-440.499,15.0484 L-439.464,12.2027 L-439.723,11.1679 C-439.551,10.8229 -439.464,10.2193 -439.464,9.35694 C-439.464,8.32212 -439.723,7.20107 -440.241,5.99378 L-440.241,4.95896 L-439.723,4.18284 C-438.516,2.97555 -437.912,1.16462 -437.912,-1.24996 L-438.43,-2.54349 L-437.654,-3.83701 L-436.36,-9.26982 L-432.997,-13.1504 L-435.067,-19.3593 L-432.479,-22.7225 L-436.36,-24.2747 Z M-457.315,-6.42406 L-459.643,-4.35442 L-460.161,-1.50867 L-461.972,1.33709 L-461.713,2.37191 L-463.783,6.25248 L-476.977,23.8444 C-477.839,24.7068 -478.658,25.6554 -479.434,26.6902 C-480.211,27.725 -480.771,28.5873 -481.116,29.2772 L-484.738,29.7946 L-483.962,34.1926 L-486.031,34.1926 L-487.584,38.3319 C-489.481,39.3667 -490.947,40.0566 -491.982,40.4015 L-493.793,44.7995 L-495.345,45.3169 L-510.608,57.7348 L-511.384,59.5457 L-515.006,60.0631 L-514.489,62.1327 C-515.351,62.8226 -516.214,63.5987 -517.076,64.4611 L-518.369,64.7198 L-519.404,64.2024 L-519.404,63.4263 L-519.922,58.5109 L-517.076,54.889 L-518.887,49.9736 L-517.076,47.3866 L-518.111,45.8343 L-515.782,40.9189 L-516.3,39.6254 C-515.955,38.4181 -515.782,36.7797 -515.782,34.71 L-515.006,33.4165 L-515.006,29.7946 L-514.23,29.2772 L-513.713,26.9489 L-511.643,24.6205 L-511.643,19.9638 L-509.574,17.3768 C-509.574,14.2723 -508.625,11.0816 -506.728,7.80471 L-507.245,6.76989 L-502.847,3.40673 L-505.434,-0.215142 L-504.399,-2.54349 L-502.588,-8.75241 C-501.381,-10.4771 -499.225,-12.633 -496.121,-15.22 L-495.345,-15.4787 L-494.31,-16.7723 L-488.36,-18.8419 L-489.136,-19.8767 L-482.41,-19.8767 L-480.081,-18.5832 L-478.012,-19.3593 L-477.494,-18.8419 L-473.355,-18.8419 L-468.181,-18.0658 L-460.161,-11.5982 L-458.091,-11.0807 L-457.056,-9.26982 L-457.315,-6.42406 Z M-250.006,51.7845 C-250.006,51.2671 -250.006,50.6635 -250.006,49.9736 C-250.179,49.2837 -250.265,48.7663 -250.265,48.4214 C-250.265,43.4198 -251.17,39.5823 -252.981,36.909 C-254.792,34.2357 -258.63,31.0882 -264.494,27.4663 L-267.598,23.327 L-275.359,22.5509 L-282.862,17.3768 L-287.26,17.3768 L-289.588,16.342 L-292.693,17.1181 C-296.487,14.3586 -299.936,12.9788 -303.041,12.9788 C-304.593,13.1513 -305.455,13.2375 -305.628,13.2375 C-307.87,12.3752 -310.457,11.944 -313.389,11.944 L-315.2,11.944 L-318.822,9.09824 L-322.444,9.09824 L-323.478,8.58083 L-329.687,8.32212 L-331.498,10.1331 C-334.948,8.06342 -336.672,7.0286 -336.672,7.0286 L-337.19,7.0286 L-337.966,6.25248 C-339.691,4.52778 -343.054,3.14802 -348.055,2.1132 L-350.125,2.88932 L-357.11,-1.24996 L-360.991,-1.50867 L-369.011,-4.35442 L-373.15,-6.94147 L-375.737,-7.71759 C-377.634,-9.61475 -378.583,-10.5633 -378.583,-10.5633 L-379.1,-12.1156 L-373.667,-15.7374 L-372.115,-18.0658 L-369.528,-18.0658 L-363.836,-21.6877 L-360.732,-20.9115 L-347.279,-24.5334 L-340.036,-27.8966 L-336.414,-26.3443 C-336.241,-26.3443 -335.853,-26.4737 -335.25,-26.7324 C-334.646,-26.9911 -334.085,-27.2929 -333.568,-27.6379 L-333.051,-27.8966 C-329.601,-29.6213 -325.376,-30.6561 -320.374,-31.001 L-312.354,-29.1901 L-305.628,-30.2249 L-299.419,-25.8269 L-297.091,-28.414 L-292.951,-28.9314 L-290.364,-26.0856 L-284.673,-26.0856 C-283.983,-25.9132 -282.991,-25.5682 -281.698,-25.0508 C-280.404,-24.5334 -279.499,-24.1885 -278.981,-24.016 L-276.912,-20.9115 C-267.426,-22.1188 -262.683,-25.6545 -262.683,-31.5184 C-262.683,-38.4172 -267.253,-42.9877 -276.394,-45.2298 C-279.154,-46.9545 -282.603,-47.8168 -286.742,-47.8168 L-288.553,-47.8168 C-291.313,-48.8517 -293.21,-49.3691 -294.245,-49.3691 L-299.936,-49.3691 C-301.661,-51.6112 -302.782,-52.9047 -303.299,-53.2497 L-310.284,-49.6278 L-314.941,-49.3691 C-316.666,-49.1966 -319.037,-48.9379 -322.056,-48.593 C-325.074,-48.248 -327.187,-48.0756 -328.394,-48.0756 L-329.946,-48.0756 C-331.671,-48.0756 -333.051,-47.9893 -334.085,-47.8168 L-337.966,-45.4885 L-340.294,-45.7472 L-341.588,-45.7472 C-345.21,-45.7472 -349.78,-44.7124 -355.299,-42.6428 L-356.593,-42.6428 L-359.18,-40.3144 L-359.18,-40.8318 L-360.732,-40.8318 C-363.319,-39.1071 -365.82,-38.2448 -368.234,-38.2448 C-368.924,-38.2448 -370.132,-38.4172 -371.856,-38.7622 L-385.05,-31.5184 C-386.258,-30.8286 -387.12,-30.3974 -387.637,-30.2249 C-388.155,-28.1553 -388.931,-27.0342 -389.966,-26.8618 L-396.175,-19.618 L-397.468,-9.01111 L-394.364,-4.87183 L-391.518,1.8545 L-387.12,5.99378 C-385.395,8.58083 -382.636,10.478 -378.841,11.6853 L-378.324,12.2027 C-375.392,14.2723 -371.253,15.3072 -365.906,15.3072 L-364.095,15.3072 L-360.473,19.4464 L-356.334,19.4464 L-355.558,20.74 L-350.384,20.74 L-347.021,22.8096 L-341.846,22.8096 L-333.827,26.6902 L-330.722,25.6554 C-329.17,26.6902 -327.014,27.4663 -324.255,27.9837 L-323.478,28.7598 L-318.304,28.7598 C-316.925,28.4149 -315.89,28.2424 -315.2,28.2424 C-313.13,28.2424 -311.147,28.9323 -309.25,30.312 C-303.386,32.3817 -300.023,33.4165 -299.16,33.4165 L-298.643,33.4165 C-297.608,33.589 -296.487,33.6752 -295.28,33.6752 C-293.21,34.5376 -290.364,35.1412 -286.742,35.4861 L-284.673,37.0384 C-273.635,42.2125 -268.116,45.5756 -268.116,47.1279 C-269.495,49.1975 -270.185,50.2323 -270.185,50.2323 C-271.737,50.4048 -273.721,51.6121 -276.135,53.8542 C-279.24,54.0267 -281.396,54.889 -282.603,56.4412 L-288.036,56.4412 L-288.036,58.5109 C-289.761,59.2008 -290.623,59.5457 -290.623,59.5457 C-291.313,59.2008 -291.916,59.0283 -292.434,59.0283 C-293.296,59.0283 -294.331,59.4595 -295.538,60.3218 L-296.832,60.3218 C-299.764,60.3218 -303.731,61.0979 -308.732,62.6502 L-318.563,61.6153 L-321.409,64.7198 L-327.1,66.272 C-328.48,65.5821 -330.119,65.2372 -332.016,65.2372 C-333.568,65.2372 -334.948,65.5821 -336.155,66.272 C-337.535,65.9271 -339.087,65.7546 -340.812,65.7546 C-343.226,65.7546 -345.21,65.9271 -346.762,66.272 C-347.969,65.7546 -349.004,65.4959 -349.866,65.4959 C-350.384,65.4959 -352.626,66.0996 -356.593,67.3068 L-360.732,67.3068 L-361.249,66.0133 L-367.976,65.2372 C-369.528,64.7198 -370.821,64.4611 -371.856,64.4611 L-374.185,65.7546 L-379.1,62.6502 L-392.553,62.9089 L-401.09,60.3218 L-411.179,60.8392 L-414.284,57.4761 L-416.612,56.1825 L-416.612,55.4064 C-414.888,54.1991 -413.594,53.0781 -412.732,52.0433 C-412.042,51.5258 -409.886,50.836 -406.264,49.9736 C-406.264,41.1776 -409.024,36.7797 -414.543,36.7797 C-417.13,36.7797 -419.113,37.7282 -420.493,39.6254 L-426.702,39.3667 L-431.876,45.0582 C-433.601,49.8874 -434.463,53.2505 -434.463,55.1477 C-434.463,57.9072 -433.601,60.753 -431.876,63.685 C-429.806,67.1344 -427.305,69.549 -424.373,70.9287 L-419.717,71.9635 L-409.627,78.6899 C-406.178,78.3449 -404.712,78.1725 -405.229,78.1725 L-404.194,78.6899 C-402.987,79.8972 -398.762,80.587 -391.518,80.7595 L-388.931,83.0878 L-384.015,81.2769 C-381.428,82.8291 -378.928,83.6053 -376.513,83.6053 C-374.443,83.6053 -372.632,83.2603 -371.08,82.5704 L-366.165,83.3466 L-351.16,83.864 L-340.553,84.6401 L-339.259,84.8988 C-337.017,84.2089 -333.913,83.864 -329.946,83.864 L-330.722,83.0878 L-327.876,81.7943 L-321.926,82.053 L-316.752,81.5356 L-313.13,80.2421 C-312.613,80.2421 -311.923,80.2421 -311.061,80.2421 C-310.198,80.4146 -309.595,80.5008 -309.25,80.5008 C-307.525,80.5008 -305.369,80.3283 -302.782,79.9834 L-298.901,79.466 L-297.349,79.2073 L-292.434,80.2421 L-287.777,76.3615 L-283.12,76.6202 C-280.188,75.5854 -278.119,74.4643 -276.912,73.2571 C-273.98,73.0846 -270.961,71.9635 -267.857,69.8939 C-266.305,69.7214 -264.839,69.0315 -263.459,67.8243 C-259.492,65.7546 -256.129,62.9089 -253.369,59.287 C-251.127,56.355 -250.006,53.8542 -250.006,51.7845 Z M-148.508,39.6254 C-148.508,32.8991 -152.474,28.9323 -160.408,27.725 L-161.184,33.6752 L-162.736,34.71 C-163.426,37.642 -164.979,39.7979 -167.393,41.1776 C-168.083,43.7647 -170.843,47.2141 -175.672,51.5258 C-179.811,52.3882 -182.829,54.2854 -184.726,57.2174 C-185.071,58.0797 -185.675,58.5109 -186.537,58.5109 L-188.09,58.5109 C-191.884,58.5109 -194.816,59.8906 -196.885,62.6502 C-198.783,63.1676 -200.335,63.685 -201.542,64.2024 C-203.267,64.2024 -205.164,64.6336 -207.234,65.4959 L-209.045,65.4959 C-210.769,65.4959 -212.235,65.8408 -213.443,66.5307 L-216.806,65.7546 L-221.204,64.9785 L-221.462,62.9089 L-225.084,61.874 L-226.378,56.4412 L-229.482,53.3368 L-229.741,52.0433 L-229.224,44.7995 L-227.671,44.0234 L-228.447,38.3319 L-226.378,33.6752 L-226.637,30.5707 L-222.497,19.1877 L-219.134,15.5659 L-219.134,10.9092 L-217.582,9.61564 L-217.323,7.0286 C-215.254,3.92414 -213.184,0.992147 -211.114,-1.76737 C-209.045,-4.52689 -206.889,-6.16536 -204.647,-6.68277 L-201.283,-6.68277 L-198.955,-7.45888 L-197.662,-6.42406 L-195.075,-3.3196 L-195.075,-1.24996 L-193.522,1.59579 L-193.005,10.1331 C-189.383,12.3752 -186.365,15.7383 -183.95,20.2225 C-179.294,19.7051 -175.154,17.6355 -171.532,14.0136 L-172.567,5.99378 L-172.567,2.1132 L-173.861,1.07838 C-173.861,-1.50867 -173.947,-3.40584 -174.119,-4.61313 L-173.343,-8.4937 L-175.413,-10.5633 C-175.758,-12.288 -176.362,-14.0127 -177.224,-15.7374 L-180.846,-20.3941 L-186.279,-20.6528 C-187.313,-21.8601 -188.779,-22.6362 -190.677,-22.9812 C-192.574,-25.2233 -196.885,-27.0342 -203.612,-28.414 C-211.545,-27.8966 -215.857,-25.9994 -216.547,-22.7225 C-217.927,-22.3775 -219.134,-22.0326 -220.169,-21.6877 L-224.308,-16.7723 L-224.826,-14.1852 L-226.378,-11.3395 L-227.413,-9.01111 L-232.069,-4.87183 L-235.433,2.37191 L-237.502,8.32212 L-238.02,10.9092 L-241.124,14.2723 L-240.607,15.3072 L-241.641,21.5161 L-242.676,23.0683 L-244.746,29.7946 L-243.97,33.9339 L-247.074,38.8493 L-246.039,40.9189 L-247.333,44.0234 L-246.039,48.4214 L-246.039,50.2323 C-246.039,51.957 -245.781,53.8542 -245.263,55.9238 L-245.263,59.287 L-242.676,63.1676 L-242.676,63.9437 C-242.676,66.1858 -241.383,68.9453 -238.796,72.2222 L-234.656,77.3963 L-227.154,83.0878 L-221.98,84.1227 L-220.169,85.6749 L-215.254,84.8988 L-210.338,85.6749 L-208.527,84.1227 L-204.905,85.1575 L-200.249,83.0878 L-196.109,83.6053 L-189.642,79.466 L-186.796,79.2073 L-182.657,76.1028 L-179.294,75.5854 L-175.413,72.4809 C-167.997,68.8591 -162.219,63.1676 -158.08,55.4064 C-155.665,53.5092 -154.199,51.0084 -153.682,47.904 L-153.423,46.3517 L-148.508,41.6951 L-148.508,39.6254 Z M-51.9245,-14.1852 C-52.4419,-18.152 -54.9427,-20.2217 -59.4269,-20.3941 C-61.1516,-20.7391 -62.3589,-20.9115 -63.0488,-20.9115 C-64.601,-20.9115 -65.8083,-20.5666 -66.6707,-19.8767 C-68.0504,-19.1868 -69.0853,-18.8419 -69.7751,-18.8419 L-70.0338,-18.8419 C-70.0338,-19.0144 -69.9476,-19.1006 -69.7751,-19.1006 C-69.7751,-19.1006 -69.7751,-19.1868 -69.7751,-19.3593 C-69.9476,-19.3593 -71.2411,-19.1868 -73.6557,-18.8419 L-79.8646,-16.7723 L-84.2626,-13.9265 L-87.3671,-12.3743 L-88.4019,-10.822 L-90.4715,-9.78722 L-92.0238,-10.0459 L-93.576,-8.235 L-96.4217,-6.68277 L-97.4566,-5.13054 L-98.2327,-4.35442 L-100.82,-3.83701 L-103.148,-0.215142 L-103.665,0.560972 C-105.735,1.25085 -107.891,2.80308 -110.133,5.21766 L-112.203,9.09824 L-115.049,12.2027 L-115.566,15.3072 L-119.188,17.3768 L-120.223,21.2574 C-121.257,21.7748 -122.034,22.5509 -122.551,23.5857 L-123.586,27.4663 C-123.758,28.846 -124.362,30.1396 -125.397,31.3469 L-125.914,28.7598 L-126.69,27.725 L-125.655,25.1379 L-125.138,19.4464 L-125.914,14.2723 C-125.052,13.065 -124.621,11.944 -124.621,10.9092 C-124.793,9.35694 -124.966,8.40836 -125.138,8.06342 L-125.914,3.92414 C-126.604,-0.215142 -127.208,-4.00948 -127.725,-7.45888 L-126.949,-14.4439 L-129.536,-17.8071 L-130.83,-22.7225 L-137.297,-24.016 C-144.886,-21.6014 -148.68,-18.6694 -148.68,-15.22 C-148.68,-13.6678 -148.249,-12.3743 -147.387,-11.3395 L-147.387,-9.26982 L-146.352,-3.0609 L-145.317,-1.50867 L-146.611,2.63061 L-144.282,5.99378 L-143.247,10.6505 L-144.282,12.2027 C-143.592,13.065 -143.247,14.7897 -143.247,17.3768 C-143.247,19.1015 -143.334,20.4813 -143.506,21.5161 L-142.471,24.8792 L-143.506,27.725 L-141.954,30.312 L-142.73,36.2623 L-142.213,38.0732 L-142.73,41.1776 L-141.954,44.5408 L-142.73,45.3169 C-142.385,49.6287 -142.213,52.2157 -142.213,53.0781 C-143.42,54.8028 -144.023,56.355 -144.023,57.7348 C-144.023,59.287 -143.42,60.6668 -142.213,61.874 L-141.954,64.4611 C-141.954,64.806 -141.954,65.4097 -141.954,66.272 C-142.126,67.1344 -142.213,67.8243 -142.213,68.3417 C-142.213,69.7214 -142.04,71.7911 -141.695,74.5506 L-142.471,78.4312 L-141.436,80.7595 L-141.436,86.7097 L-131.864,90.5903 L-124.621,86.9684 L-121.516,84.6401 L-118.153,78.6899 L-122.551,74.0332 L-123.068,71.7048 C-123.068,71.3599 -122.982,70.9287 -122.81,70.4113 C-122.81,69.8939 -122.81,69.549 -122.81,69.3765 C-122.81,68.6866 -122.982,67.4793 -123.327,65.7546 L-119.964,61.0979 L-121.516,57.7348 L-118.929,53.3368 L-118.412,49.9736 L-114.531,48.4214 C-115.221,47.3866 -115.825,46.438 -116.342,45.5756 L-115.566,44.7995 L-115.566,40.9189 L-113.496,40.1428 L-112.979,36.2623 L-110.909,33.6752 L-109.357,30.5707 L-105.735,29.2772 C-105.045,26.5177 -104.442,24.4481 -103.924,23.0683 L-102.631,22.5509 L-99.0088,16.6007 C-97.8015,15.9108 -95.8181,14.0999 -93.0586,11.1679 L-91.2476,11.1679 L-87.6258,6.51119 L-82.193,3.92414 L-82.193,2.88932 L-79.6059,1.07838 L-75.7254,-0.473847 L-72.1035,-2.54349 L-68.7403,-0.991257 L-63.5662,-4.35442 L-53.9941,-5.64795 L-51.9245,-14.1852 Z M-22.0872,-92.8315 C-22.0872,-98.523 -27.7787,-102.749 -39.1617,-105.508 L-41.2314,-99.2991 L-42.7836,-97.7469 L-43.5597,-97.2295 C-45.8018,-95.6773 -47.2678,-93.1764 -47.9577,-89.727 L-51.0622,-89.2096 L-51.0622,-86.8813 L-55.2014,-85.8465 L-55.4601,-81.9659 L-57.0124,-80.9311 L-57.0124,-79.8963 C-59.5994,-78.1716 -60.9792,-76.1019 -61.1516,-73.6873 L-63.9974,-69.0307 L-64.7735,-62.563 L-60.6342,-58.6825 L-53.9079,-64.6327 L-49.7686,-66.7023 L-47.1816,-70.3242 L-41.2314,-71.8764 L-38.6443,-75.2396 L-34.7637,-79.8963 C-32.3492,-80.4137 -29.5034,-82.6558 -26.2265,-86.6226 L-26.2265,-87.14 C-23.467,-88.8647 -22.0872,-90.7619 -22.0872,-92.8315 Z M4.30071,44.2821 C3.61083,42.3849 2.3173,40.8327 0.420131,39.6254 L-0.614688,39.6254 C-4.40903,39.6254 -8.2896,41.0052 -12.2564,43.7647 L-17.1718,46.093 L-19.5001,47.1279 L-20.2763,49.1975 L-20.7937,49.1975 L-21.3111,51.0084 L-22.8633,50.7497 L-25.4504,53.3368 L-27.0026,52.302 L-27.7787,53.3368 L-28.2961,54.6303 L-30.1071,54.889 L-31.1419,56.4412 L-33.9876,59.287 L-37.3508,60.3218 L-39.4204,60.0631 L-39.9378,60.8392 L-43.0423,61.3566 L-46.9229,58.2522 L-47.4403,53.5955 L-46.9229,47.6453 L-47.1816,45.0582 L-45.6293,41.4364 L-45.6293,34.9687 C-45.1119,32.7266 -44.6808,29.4497 -44.3358,25.1379 L-40.9727,15.3072 L-42.0075,12.2027 C-39.9378,9.78811 -38.903,7.0286 -38.903,3.92414 L-40.714,0.302267 L-38.903,-12.633 C-38.5581,-13.3229 -38.3856,-14.4439 -38.3856,-15.9961 C-38.3856,-17.8933 -38.7305,-19.8767 -39.4204,-21.9464 L-39.4204,-22.9812 C-40.6277,-26.7755 -42.9561,-28.6727 -46.4055,-28.6727 C-46.9229,-28.6727 -48.2164,-28.1553 -50.286,-27.1205 L-53.3905,-27.3792 C-58.0472,-27.7241 -60.3755,-25.8269 -60.3755,-21.6877 C-60.3755,-20.3079 -60.1168,-18.8419 -59.5994,-17.2897 C-59.5994,-16.9447 -59.6856,-16.4704 -59.8581,-15.8668 C-60.0306,-15.2631 -60.2031,-14.7889 -60.3755,-14.4439 C-60.2031,-12.5467 -59.7719,-10.822 -59.082,-9.26982 L-59.5994,-8.4937 L-60.1168,-2.54349 L-61.6691,2.37191 C-60.6342,3.5792 -59.9444,4.70025 -59.5994,5.73507 L-60.8929,11.6853 C-61.9278,16.5144 -62.4452,19.7051 -62.4452,21.2574 C-62.4452,23.6719 -62.1865,26.1728 -61.6691,28.7598 L-62.7039,29.7946 L-65.8083,52.5607 L-64.7735,55.6651 L-64.5148,68.3417 L-59.5994,78.4312 L-48.9925,86.1923 L-44.8532,83.0878 L-39.6791,83.0878 L-37.8682,80.7595 L-36.5747,80.5008 C-33.8152,80.1559 -31.1419,79.121 -28.5548,77.3963 C-27.3475,75.8441 -26.5714,74.8093 -26.2265,74.2919 C-22.4321,74.1194 -19.9313,72.4809 -18.724,69.3765 L-15.6196,68.6004 L-12.2564,64.9785 L-9.92807,64.2024 C-7.51349,62.6502 -5.70255,60.4943 -4.49526,57.7348 L-0.355984,56.4412 L0.937541,52.8194 L2.23107,51.7845 C3.61083,50.7497 4.30071,48.2489 4.30071,44.2821 Z M99.5904,43.2473 L98.8142,37.8145 L96.7446,33.1578 L97.262,29.0185 L94.675,26.4315 L94.675,24.6205 C92.7778,21.861 91.6567,18.4978 91.3118,14.531 L88.7247,14.0136 L88.2073,12.2027 L86.3964,10.3918 L86.3964,5.21766 L83.2919,5.21766 L81.7397,2.37191 L79.6701,1.07838 C78.9802,-0.646317 77.9454,-2.02608 76.5656,-3.0609 L76.5656,-4.61313 L71.6502,-6.16536 L71.3915,-6.68277 L65.1826,-10.5633 L61.8194,-14.7026 L56.904,-16.2548 L54.0583,-19.3593 L48.3668,-17.5484 L48.6255,-19.1006 C47.9356,-19.2731 46.987,-19.3593 45.7797,-19.3593 L43.7101,-20.9115 L41.8992,-20.1354 L40.6056,-22.4638 C38.536,-23.3261 36.3801,-23.7573 34.138,-23.7573 L29.4813,-27.1205 L27.153,-24.7921 L23.0137,-31.5184 L16.8048,-32.812 L14.4764,-23.7573 L13.1829,-23.2399 L5.93917,-23.7573 L4.12824,-21.9464 L-4.15032,-18.5832 L-5.96126,-16.7723 C-10.273,-16.5998 -14.8435,-15.1338 -19.6726,-12.3743 L-19.4139,-8.4937 C-20.9661,-7.11394 -21.7423,-5.38924 -21.7423,-3.3196 C-21.7423,-0.387612 -17.5167,3.5792 -9.06572,8.58083 L-7.77219,5.99378 L-5.18514,7.0286 L-2.08068,2.88932 L0.247661,2.88932 L3.09342,0.302267 L4.90435,0.0435625 L4.90435,1.59579 L14.2177,-2.54349 L14.9938,-0.732552 L14.4764,1.8545 L15.2525,4.70025 L14.4764,9.87435 L15.5113,10.9092 L14.4764,14.7897 L15.77,18.1529 L14.4764,22.5509 L15.77,26.6902 L15.5113,27.725 L15.5113,30.5707 L15.2525,31.6056 L15.2525,32.6404 L13.7003,38.0732 L13.4416,42.4712 L15.2525,43.7647 L13.4416,48.6801 L16.5461,51.5258 L13.7003,56.4412 L15.5113,59.8044 L13.959,70.4113 L14.9938,77.9137 L12.6655,80.7595 L14.4764,83.0878 L13.7003,86.451 L15.2525,89.0381 C14.2177,92.6599 13.7003,95.5919 13.7003,97.834 C13.7003,99.0413 13.7866,99.9037 13.959,100.421 C12.7517,100.938 12.1481,101.456 12.1481,101.973 C12.1481,102.318 12.6224,102.922 13.571,103.784 C14.5195,104.647 15.1663,105.595 15.5113,106.63 L13.4416,111.287 L14.9938,116.461 L13.1829,119.565 L15.5113,125.515 L13.4416,128.879 L14.4764,136.64 L14.2177,142.331 L11.6307,146.988 L13.1829,158.371 L12.4068,166.132 C17.4084,167.512 20.4266,168.202 21.4615,168.202 C26.2906,168.202 28.9639,162.165 29.4813,150.092 L29.9987,139.744 L31.2923,137.675 L30.2574,134.053 C32.1546,133.018 33.1032,131.724 33.1032,130.172 C33.1032,129.655 32.9307,128.879 32.5858,127.844 L32.5858,123.963 L31.0335,123.187 L31.8097,120.6 L30.7748,116.719 L32.8445,114.132 L31.8097,104.302 L32.5858,97.834 C32.5858,95.9369 32.4133,93.0911 32.0684,89.2968 L34.138,86.7097 L33.3619,81.7943 C33.8793,80.2421 34.138,78.6899 34.138,77.1376 L34.138,75.5854 C35.3453,75.4129 36.0352,75.3267 36.2076,75.3267 L38.2773,76.8789 L43.7101,76.3615 L46.2971,78.6899 L52.7648,77.1376 L60.0085,78.1725 L58.9737,77.655 L63.3717,77.3963 L64.1478,77.9137 L69.8393,80.5008 L74.7547,78.6899 L77.083,78.4312 L80.9636,77.1376 L82.5158,77.3963 C85.1029,76.0166 87.6037,74.2056 90.0183,71.9635 L94.675,71.4461 L95.1924,66.5307 L96.2272,66.0133 L98.2968,62.3915 L99.3316,58.2522 L100.366,56.6999 L98.2968,51.5258 L101.401,43.7647 L99.5904,43.2473 Z M80.9636,49.4562 L79.1527,51.5258 L79.9288,53.5955 L78.6353,54.1129 L78.1178,57.7348 L73.2025,62.6502 C73.5474,62.6502 72.9437,62.3915 71.3915,61.874 L67.2522,59.287 L62.0781,60.8392 L60.0085,60.3218 L57.6802,60.3218 C56.4729,59.6319 55.1793,59.287 53.7996,59.287 C52.9372,59.287 51.9886,59.5457 50.9538,60.0631 C49.5741,59.7182 48.6255,59.5457 48.1081,59.5457 C47.9356,59.5457 47.6769,59.5457 47.332,59.5457 C46.8145,59.7182 46.4696,59.8044 46.2971,59.8044 C45.0898,58.7696 43.7101,58.2522 42.1579,58.2522 C40.9506,58.2522 40.002,58.4246 39.3121,58.7696 L33.8793,58.7696 L34.138,55.4064 L33.3619,51.7845 L33.8793,48.4214 L35.1728,45.3169 L33.3619,42.9886 C34.7417,41.9538 35.4315,41.1776 35.4315,40.6602 C35.4315,40.4878 35.3453,40.3153 35.1728,40.1428 L36.2076,37.2971 C34.6554,35.055 33.6206,32.2954 33.1032,29.0185 L34.3967,21.2574 L34.138,17.3768 L36.9838,11.1679 L33.3619,7.80471 L32.3271,4.95896 L32.8445,0.0435625 L32.5858,-3.0609 L37.2425,-2.28478 L38.2773,-0.473847 L40.8643,-0.991257 L42.934,1.07838 L45.521,-0.215142 L49.1429,-0.215142 L50.1777,0.0435625 L51.9886,3.40673 L54.5757,2.88932 L57.6802,7.0286 L61.8194,6.51119 L65.9587,11.944 L68.2871,12.9788 L70.098,17.3768 L73.2025,19.9638 L77.083,26.6902 L78.1178,29.5359 L80.1875,33.6752 L80.4462,36.2623 L81.481,38.3319 L80.4462,40.6602 L81.9984,45.3169 L81.7397,46.3517 L81.9984,47.6453 L80.9636,49.4562 Z M185.049,-10.822 C185.049,-14.6164 182.376,-16.5136 177.029,-16.5136 L166.94,-16.5136 L165.646,-16.2548 L161.766,-16.5136 L150.383,-14.7026 L136.154,-15.9961 L128.134,-14.9613 L130.204,-19.618 L128.134,-21.9464 L129.169,-28.1553 L127.875,-33.3294 L130.204,-36.4338 L129.686,-40.0557 L129.945,-41.3492 L128.91,-44.7124 L129.169,-46.5233 L129.686,-48.0756 C129.859,-48.7654 129.945,-49.1966 129.945,-49.3691 C129.945,-50.7488 129.428,-52.2148 128.393,-53.7671 L129.169,-55.0606 C128.652,-60.0622 125.633,-62.563 120.114,-62.563 C118.562,-62.563 115.458,-62.1319 110.801,-61.2695 L108.731,-59.1999 L107.955,-55.578 C107.093,-54.3707 106.662,-52.8185 106.662,-50.9213 C106.662,-49.3691 107.265,-47.6444 108.473,-45.7472 L110.542,-42.384 L110.283,-34.3642 L111.577,-30.4836 L108.214,-28.6727 L111.577,-21.4289 L111.577,-16.2548 L106.144,-16.2548 L101.229,-17.5484 L97.8657,-17.031 L91.398,-18.0658 L86.4826,-13.4091 L89.5871,-8.4937 L89.5871,-7.71759 C89.5871,-2.19855 92.1741,0.560972 97.3482,0.560972 L98.1244,0.560972 L102.781,3.92414 L107.696,2.88932 L109.507,3.66543 L109.507,7.80471 L108.214,9.09824 L109.249,13.2375 L108.731,17.8942 L109.507,20.9987 L108.99,24.3618 L107.179,26.1728 L108.473,31.8643 L107.179,35.4861 L109.249,38.3319 L108.731,41.4364 L110.801,53.5955 L116.492,66.5307 L119.597,69.8939 L125.03,77.1376 L127.358,77.9137 L136.413,82.8291 L139.776,82.8291 C141.328,83.519 142.794,83.864 144.174,83.864 C146.761,83.864 148.744,83.6915 150.124,83.3466 L156.074,81.7943 L159.437,81.7943 L162.542,78.9486 C167.544,77.9137 170.82,75.5854 172.373,71.9635 C176.512,70.4113 178.582,66.7032 178.582,60.8392 L178.582,59.0283 C176.167,56.7862 173.149,55.6651 169.527,55.6651 C165.56,56.6999 162.801,58.8558 161.248,62.1327 C161.076,62.1327 160.817,62.0465 160.472,61.874 C160.127,61.874 159.869,61.874 159.696,61.874 C158.316,61.874 156.85,62.5639 155.298,63.9437 C153.056,66.0133 151.59,67.2206 150.9,67.5655 C149.348,67.0481 147.796,66.7894 146.243,66.7894 C145.554,66.7894 144.346,66.9619 142.622,67.3068 L140.552,65.7546 L137.448,63.685 L135.637,62.9089 L135.119,59.8044 C131.325,59.1145 129.428,58.1659 129.428,56.9586 C129.428,56.2688 129.686,55.6651 130.204,55.1477 L126.582,47.3866 L126.582,43.7647 L125.806,39.108 L125.288,29.2772 L126.064,20.2225 L125.806,12.9788 L126.582,3.14802 C127.617,3.66543 128.565,3.92414 129.428,3.92414 C131.325,3.5792 132.532,3.23426 133.05,2.88932 C134.774,2.88932 136.585,3.23426 138.482,3.92414 L142.88,1.07838 L149.865,1.07838 L152.194,-0.991257 L155.298,-0.215142 C159.61,-0.215142 163.146,-1.24996 165.905,-3.3196 L171.338,-1.50867 C172.373,-2.19855 174.097,-3.0609 176.512,-4.09572 C178.409,-4.7856 179.703,-5.56171 180.393,-6.42406 C183.497,-7.80382 185.049,-9.26982 185.049,-10.822 Z " fill="#3a8686" fill-opacity="1.00" />			<path d="M104.334,-349.758 C104.334,-336.659 104.334,-326.835 104.334,-320.286 C117.433,-320.286 127.323,-320.286 134.006,-320.286 C138.016,-320.286 141.491,-321.689 144.432,-324.496 C147.239,-327.437 148.642,-330.912 148.642,-334.922 C148.642,-361.252 148.642,-380.967 148.642,-394.065 C148.642,-398.209 147.239,-401.684 144.432,-404.491 C141.491,-407.431 138.016,-408.901 134.006,-408.901 C117.566,-408.901 103.131,-408.901 90.7011,-408.901 C78.5383,-408.901 68.3802,-408.901 60.2271,-408.901 C40.4457,-408.901 25.6096,-408.901 15.7189,-408.901 C11.5755,-408.901 8.10044,-407.431 5.29362,-404.491 C2.35314,-401.684 0.882899,-398.209 0.882899,-394.065 C0.882897,-367.868 0.882897,-348.154 0.882896,-334.922 C0.882896,-330.912 2.35313,-327.437 5.29361,-324.496 C8.10043,-321.689 11.5755,-320.286 15.7189,-320.286 C28.8174,-320.286 38.6413,-320.286 45.1906,-320.286 C45.1906,-333.384 45.1906,-343.208 45.1906,-349.758 C38.6413,-349.758 33.696,-349.758 30.3545,-349.758 C30.3545,-362.856 30.3545,-372.747 30.3545,-379.43 C69.7837,-379.43 99.3889,-379.43 119.17,-379.43 C119.17,-366.198 119.17,-356.307 119.17,-349.758 C112.621,-349.758 107.676,-349.758 104.334,-349.758 Z M104.334,-231.47 C104.334,-218.372 104.334,-208.548 104.334,-201.999 C117.433,-201.999 127.323,-201.999 134.006,-201.999 C138.016,-201.999 141.491,-203.402 144.432,-206.209 C147.239,-209.149 148.642,-212.624 148.642,-216.634 C148.642,-242.965 148.642,-262.679 148.642,-275.778 C148.642,-279.921 147.239,-283.396 144.432,-286.203 C141.491,-289.144 138.016,-290.614 134.006,-290.614 C120.908,-290.614 109.413,-290.614 99.5226,-290.614 C89.6319,-290.614 81.4119,-290.614 74.8627,-290.614 C70.7193,-290.614 67.1773,-289.144 64.2368,-286.203 C61.43,-283.396 60.0266,-279.921 60.0266,-275.778 C60.0266,-256.13 60.0266,-241.361 60.0266,-231.47 C46.9281,-231.47 37.0374,-231.47 30.3545,-231.47 C30.3545,-244.569 30.3545,-254.459 30.3545,-261.142 C37.0374,-261.142 41.9828,-261.142 45.1906,-261.142 C45.1906,-274.241 45.1906,-284.065 45.1906,-290.614 C32.0921,-290.614 22.2682,-290.614 15.7189,-290.614 C11.5755,-290.614 8.10043,-289.144 5.29361,-286.203 C2.35313,-283.396 0.882894,-279.921 0.882893,-275.778 C0.882892,-249.581 0.882891,-229.866 0.882891,-216.634 C0.882891,-212.624 2.35313,-209.149 5.29361,-206.209 C8.10043,-203.402 11.5755,-201.999 15.7189,-201.999 C41.9159,-201.999 61.6305,-201.999 74.8627,-201.999 C78.8724,-201.999 82.3475,-203.402 85.288,-206.209 C88.0948,-209.149 89.4982,-212.624 89.4982,-216.634 C89.4982,-236.416 89.4982,-251.252 89.4982,-261.142 C102.73,-261.142 112.621,-261.142 119.17,-261.142 C119.17,-247.91 119.17,-238.019 119.17,-231.47 C112.621,-231.47 107.676,-231.47 104.334,-231.47 Z M104.334,-113.183 C104.334,-100.084 104.334,-90.2604 104.334,-83.7111 C117.433,-83.7111 127.323,-83.7111 134.006,-83.7111 C138.016,-83.7111 141.491,-85.1145 144.432,-87.9214 C147.239,-90.8618 148.642,-94.3369 148.642,-98.3467 C148.642,-124.677 148.642,-144.392 148.642,-157.49 C148.642,-161.634 147.239,-165.109 144.432,-167.916 C141.491,-170.856 138.016,-172.326 134.006,-172.326 C120.908,-172.326 109.413,-172.326 99.5226,-172.326 C89.6319,-172.326 81.4119,-172.326 74.8626,-172.326 C70.7192,-172.326 67.1773,-170.856 64.2368,-167.916 C61.43,-165.109 60.0266,-161.634 60.0266,-157.49 C60.0266,-137.843 60.0266,-123.073 60.0266,-113.183 C46.9281,-113.183 37.0374,-113.183 30.3545,-113.183 C30.3545,-126.281 30.3545,-136.172 30.3545,-142.855 C37.0374,-142.855 41.9828,-142.855 45.1905,-142.855 C45.1905,-155.953 45.1905,-165.777 45.1906,-172.326 C32.0921,-172.326 22.2682,-172.326 15.7189,-172.326 C11.5755,-172.326 8.10043,-170.856 5.29361,-167.916 C2.35313,-165.109 0.882888,-161.634 0.882888,-157.49 C0.882887,-131.293 0.882886,-111.579 0.882886,-98.3467 C0.882886,-94.3369 2.35312,-90.8618 5.2936,-87.9214 C8.10042,-85.1145 11.5755,-83.7111 15.7189,-83.7111 C41.9159,-83.7111 61.6305,-83.7111 74.8626,-83.7111 C78.8724,-83.7111 82.3475,-85.1145 85.288,-87.9214 C88.0948,-90.8618 89.4982,-94.3369 89.4982,-98.3467 C89.4982,-118.128 89.4982,-132.964 89.4982,-142.855 C102.73,-142.855 112.621,-142.855 119.17,-142.855 C119.17,-129.623 119.17,-119.732 119.17,-113.183 C112.621,-113.183 107.676,-113.183 104.334,-113.183 Z " fill="#79bd9a" fill-opacity="1.00" />			<path d="M-583.332,-148.155 C-576.337,-150.006 -571.101,-152.557 -567.625,-155.808 C-564.148,-159.058 -562.41,-163.029 -562.41,-167.719 C-562.41,-173.932 -565.043,-178.838 -570.309,-182.438 C-575.576,-186.039 -585.45,-187.839 -599.933,-187.839 L-604.5,-187.839 L-636.654,-186.913 L-636.654,-180.062 C-632.087,-180.062 -629.125,-179.342 -627.767,-177.902 C-626.41,-176.462 -625.731,-173.767 -625.731,-169.817 L-625.731,-120.753 C-625.731,-116.68 -626.451,-113.954 -627.891,-112.576 C-629.331,-111.197 -632.252,-110.508 -636.654,-110.508 L-636.654,-103.658 L-592.774,-103.658 C-580.554,-103.658 -571.811,-105.612 -566.545,-109.521 C-561.278,-113.429 -558.645,-118.778 -558.645,-125.567 C-558.645,-131.615 -560.702,-136.521 -564.817,-140.286 C-568.931,-144.051 -575.103,-146.674 -583.332,-148.155 Z M-603.821,-180.556 C-599.378,-180.556 -596.014,-180.227 -593.731,-179.569 C-591.447,-178.91 -589.606,-177.45 -588.207,-175.187 C-586.808,-172.924 -586.109,-169.838 -586.109,-165.929 C-586.109,-160.704 -587.22,-157.032 -589.441,-154.913 C-591.663,-152.794 -595.037,-151.735 -599.563,-151.735 L-603.821,-151.735 L-603.821,-180.556 Z M-599.81,-144.205 C-595.449,-144.205 -592.157,-143.773 -589.935,-142.909 C-587.713,-142.045 -585.965,-140.368 -584.689,-137.879 C-583.414,-135.39 -582.776,-131.944 -582.776,-127.542 C-582.776,-122.028 -583.753,-117.893 -585.708,-115.137 C-587.662,-112.38 -590.594,-111.002 -594.502,-111.002 C-597.012,-111.002 -598.956,-111.403 -600.334,-112.205 C-601.713,-113.008 -602.638,-114.005 -603.112,-115.198 C-603.585,-116.392 -603.821,-118.14 -603.821,-120.444 L-603.821,-144.205 L-599.81,-144.205 Z M-548.215,-129.085 C-548.215,-120.197 -545.191,-113.398 -539.143,-108.687 C-533.094,-103.976 -525.874,-101.621 -517.48,-101.621 C-508.881,-101.621 -501.557,-104.1 -495.509,-109.058 C-489.461,-114.016 -486.437,-120.671 -486.437,-129.023 C-486.437,-137.828 -489.523,-144.565 -495.694,-149.235 C-501.866,-153.905 -509.107,-156.24 -517.419,-156.24 C-525.935,-156.24 -533.197,-153.833 -539.204,-149.019 C-545.211,-144.205 -548.215,-137.56 -548.215,-129.085 Z M-527.046,-129.702 C-527.046,-138.013 -526.1,-143.351 -524.207,-145.717 C-522.315,-148.083 -520.031,-149.266 -517.357,-149.266 C-513.983,-149.266 -511.514,-147.877 -509.951,-145.1 C-508.387,-142.323 -507.606,-137.025 -507.606,-129.208 C-507.606,-120.609 -508.48,-114.993 -510.229,-112.36 C-511.977,-109.726 -514.312,-108.41 -517.233,-108.41 C-520.854,-108.41 -523.395,-109.983 -524.855,-113.131 C-526.316,-116.279 -527.046,-121.802 -527.046,-129.702 Z M-477.118,-129.085 C-477.118,-120.197 -474.094,-113.398 -468.045,-108.687 C-461.997,-103.976 -454.776,-101.621 -446.383,-101.621 C-437.784,-101.621 -430.46,-104.1 -424.412,-109.058 C-418.364,-114.016 -415.34,-120.671 -415.34,-129.023 C-415.34,-137.828 -418.426,-144.565 -424.597,-149.235 C-430.769,-153.905 -438.01,-156.24 -446.321,-156.24 C-454.838,-156.24 -462.1,-153.833 -468.107,-149.019 C-474.114,-144.205 -477.118,-137.56 -477.118,-129.085 Z M-455.949,-129.702 C-455.949,-138.013 -455.003,-143.351 -453.11,-145.717 C-451.217,-148.083 -448.934,-149.266 -446.26,-149.266 C-442.886,-149.266 -440.417,-147.877 -438.854,-145.1 C-437.29,-142.323 -436.508,-137.025 -436.508,-129.208 C-436.508,-120.609 -437.383,-114.993 -439.131,-112.36 C-440.88,-109.726 -443.215,-108.41 -446.136,-108.41 C-449.757,-108.41 -452.298,-109.983 -453.758,-113.131 C-455.219,-116.279 -455.949,-121.802 -455.949,-129.702 Z M-365.72,-147.538 L-365.72,-154.203 L-380.902,-154.203 L-380.902,-170.99 L-387.506,-170.99 C-388.246,-166.094 -390.386,-162.062 -393.924,-158.894 C-397.463,-155.726 -401.721,-154.141 -406.699,-154.141 L-408.242,-154.203 L-408.242,-147.538 L-400.898,-147.538 L-400.898,-118.037 C-400.898,-112.565 -399.479,-108.461 -396.64,-105.725 C-393.801,-102.989 -389.563,-101.621 -383.926,-101.621 C-373.681,-101.621 -366.995,-105.53 -363.868,-113.347 L-369.916,-115.384 C-371.562,-112.01 -373.743,-110.323 -376.458,-110.323 C-378.269,-110.323 -379.462,-111.033 -380.038,-112.452 C-380.614,-113.872 -380.902,-116.783 -380.902,-121.185 L-380.902,-147.538 L-365.72,-147.538 Z M-352.821,-101.621 C-352.286,-103.102 -351.463,-104.254 -350.352,-105.077 C-344.469,-102.773 -338.832,-101.621 -333.442,-101.621 C-326.406,-101.621 -320.502,-103.328 -315.73,-106.743 C-310.957,-110.158 -308.57,-114.561 -308.57,-119.951 C-308.57,-123.283 -309.486,-126.215 -311.317,-128.745 C-313.148,-131.276 -315.658,-133.199 -318.846,-134.516 C-322.035,-135.832 -326.797,-137.128 -333.134,-138.404 C-339.223,-139.597 -343.049,-140.584 -344.613,-141.366 C-346.217,-142.148 -347.02,-143.362 -347.02,-145.007 C-347.02,-146.571 -346.032,-147.857 -344.057,-148.865 C-342.082,-149.873 -339.552,-150.377 -336.466,-150.377 C-327.003,-150.377 -320.687,-147.229 -317.519,-140.934 L-312.582,-140.934 L-313.137,-156.24 L-318.26,-156.24 C-318.836,-155.047 -319.618,-153.977 -320.605,-153.031 C-326.242,-155.17 -331.776,-156.24 -337.207,-156.24 C-344.243,-156.24 -349.859,-154.645 -354.055,-151.457 C-358.252,-148.268 -360.35,-144.102 -360.35,-138.959 C-360.35,-135.503 -359.322,-132.428 -357.265,-129.733 C-355.207,-127.038 -352.492,-125.042 -349.118,-123.746 C-345.744,-122.45 -340.519,-121.082 -333.442,-119.642 C-328.875,-118.696 -325.933,-117.873 -324.617,-117.173 C-323.341,-116.433 -322.704,-115.384 -322.704,-114.026 C-322.704,-112.462 -323.876,-111.063 -326.221,-109.829 C-328.567,-108.595 -331.529,-107.978 -335.108,-107.978 C-343.666,-107.978 -349.55,-111.454 -352.759,-118.408 L-358.808,-118.408 L-358.376,-101.621 L-352.821,-101.621 Z M-259.074,-147.538 L-259.074,-154.203 L-274.256,-154.203 L-274.256,-170.99 L-280.86,-170.99 C-281.6,-166.094 -283.74,-162.062 -287.278,-158.894 C-290.817,-155.726 -295.075,-154.141 -300.054,-154.141 L-301.597,-154.203 L-301.597,-147.538 L-294.252,-147.538 L-294.252,-118.037 C-294.252,-112.565 -292.833,-108.461 -289.994,-105.725 C-287.155,-102.989 -282.917,-101.621 -277.28,-101.621 C-267.035,-101.621 -260.349,-105.53 -257.222,-113.347 L-263.271,-115.384 C-264.916,-112.01 -267.097,-110.323 -269.813,-110.323 C-271.623,-110.323 -272.816,-111.033 -273.392,-112.452 C-273.968,-113.872 -274.256,-116.783 -274.256,-121.185 L-274.256,-147.538 L-259.074,-147.538 Z M-227.352,-143.526 C-227.516,-148.669 -228.175,-152.907 -229.327,-156.24 L-254.939,-150.809 L-254.939,-144.267 C-251.318,-144.267 -249.024,-143.681 -248.058,-142.508 C-247.091,-141.335 -246.607,-139.186 -246.607,-136.059 L-246.607,-118.408 C-246.607,-115.322 -247.08,-113.182 -248.027,-111.989 C-248.973,-110.796 -251.236,-110.199 -254.816,-110.199 L-254.816,-103.658 L-217.354,-103.658 L-217.354,-110.199 L-218.588,-110.199 C-222.003,-110.199 -224.184,-110.806 -225.13,-112.02 C-226.076,-113.234 -226.549,-115.363 -226.549,-118.408 L-226.549,-123.9 C-226.549,-130.442 -225.881,-135.349 -224.544,-138.62 C-223.206,-141.891 -221.201,-143.526 -218.526,-143.526 C-216.798,-143.526 -215.194,-142.703 -213.712,-141.058 C-212.231,-139.371 -211.038,-138.26 -210.133,-137.725 C-209.228,-137.19 -208.076,-136.923 -206.677,-136.923 C-204.085,-136.923 -202.069,-137.787 -200.629,-139.515 C-199.189,-141.243 -198.469,-143.321 -198.469,-145.748 C-198.469,-148.34 -199.374,-150.737 -201.184,-152.938 C-202.994,-155.139 -205.648,-156.24 -209.145,-156.24 C-212.807,-156.24 -216.161,-155.18 -219.205,-153.061 C-222.25,-150.943 -224.965,-147.764 -227.352,-143.526 Z M-157.427,-109.027 C-154.794,-104.666 -149.692,-102.485 -142.122,-102.485 C-137.966,-102.485 -134.397,-103.493 -131.414,-105.509 C-128.431,-107.525 -126.878,-110.652 -126.754,-114.89 L-131.877,-114.89 C-132.37,-112.586 -133.543,-111.434 -135.394,-111.434 C-137.534,-111.434 -138.604,-113.203 -138.604,-116.741 L-138.604,-140.194 C-138.604,-143.156 -138.923,-145.501 -139.56,-147.229 C-140.198,-148.957 -141.494,-150.603 -143.448,-152.167 C-145.403,-153.73 -147.974,-154.8 -151.163,-155.376 C-154.352,-155.952 -158.312,-156.24 -163.043,-156.24 C-171.519,-156.24 -178.287,-154.903 -183.348,-152.228 C-188.409,-149.554 -190.939,-146.304 -190.939,-142.477 C-190.939,-140.79 -190.25,-139.319 -188.872,-138.064 C-187.493,-136.809 -185.632,-136.182 -183.286,-136.182 C-180.694,-136.182 -178.781,-136.768 -177.547,-137.941 C-176.312,-139.114 -175.489,-140.996 -175.078,-143.588 C-174.502,-147.373 -171.622,-149.266 -166.438,-149.266 C-164.298,-149.266 -162.447,-148.803 -160.883,-147.877 C-159.32,-146.952 -158.538,-144.863 -158.538,-141.613 L-158.538,-137.046 C-170.922,-132.849 -179.48,-129.023 -184.212,-125.567 C-188.944,-122.111 -191.309,-118.14 -191.309,-113.656 C-191.309,-110.487 -190.127,-107.834 -187.761,-105.694 C-185.395,-103.555 -181.846,-102.485 -177.115,-102.485 C-173.535,-102.485 -170.11,-103.03 -166.839,-104.12 C-163.568,-105.211 -160.431,-106.846 -157.427,-109.027 Z M-158.538,-115.692 C-159.814,-114.334 -161.13,-113.306 -162.488,-112.606 C-163.846,-111.907 -165.265,-111.557 -166.746,-111.557 C-168.433,-111.557 -169.791,-112.185 -170.82,-113.44 C-171.848,-114.694 -172.363,-116.104 -172.363,-117.667 C-172.363,-119.724 -171.488,-121.72 -169.74,-123.654 C-167.991,-125.587 -164.257,-127.747 -158.538,-130.134 L-158.538,-115.692 Z M-96.4514,-108.718 C-93.6125,-106.373 -90.7015,-104.604 -87.7186,-103.411 C-84.7356,-102.217 -81.6601,-101.621 -78.492,-101.621 C-71.7032,-101.621 -65.8093,-104.213 -60.8103,-109.397 C-55.8112,-114.581 -53.3117,-121.288 -53.3117,-129.517 C-53.3117,-137.499 -55.6775,-143.948 -60.4091,-148.865 C-65.1407,-153.781 -70.8186,-156.24 -77.4428,-156.24 C-80.9812,-156.24 -84.3653,-155.51 -87.5951,-154.049 C-90.825,-152.588 -93.9005,-150.377 -96.8217,-147.414 C-96.8217,-150.377 -97.2332,-153.319 -98.0561,-156.24 L-124.841,-151.735 L-124.841,-145.193 C-121.179,-145.193 -118.854,-144.606 -117.867,-143.434 C-116.88,-142.261 -116.386,-140.111 -116.386,-136.984 L-116.386,-88.5987 C-116.386,-85.3483 -116.91,-83.178 -117.96,-82.0877 C-119.009,-80.9973 -121.303,-80.4522 -124.841,-80.4522 L-124.841,-73.8485 L-86.4534,-73.8485 L-86.4534,-80.4522 L-88.4283,-80.4522 C-91.8433,-80.4522 -94.0342,-81.0488 -95.0011,-82.242 C-95.968,-83.4351 -96.4514,-85.5541 -96.4514,-88.5987 L-96.4514,-108.718 Z M-96.4514,-139.021 C-95.4228,-141.037 -93.8079,-142.878 -91.6067,-144.545 C-89.4055,-146.211 -87.1117,-147.044 -84.7253,-147.044 C-81.2692,-147.044 -78.6771,-145.511 -76.9491,-142.446 C-75.221,-139.381 -74.357,-134.763 -74.357,-128.591 C-74.357,-122.707 -75.2827,-118.295 -77.1342,-115.353 C-78.9857,-112.411 -81.7835,-110.94 -85.5277,-110.94 C-87.5026,-110.94 -89.4055,-111.382 -91.2364,-112.267 C-93.0673,-113.152 -94.8057,-114.458 -96.4514,-116.186 L-96.4514,-139.021 Z " fill="#a8dba8" fill-opacity="1.00" />			<path d="M-477.19,234.21 L-471.382,207.103 L-454.307,168.642 L-460.116,168.642 L-473.142,199.886 L-480.799,168.378 C-481.943,168.29 -483.087,168.202 -484.319,168.202 C-499.017,168.202 -515.211,179.379 -515.211,191.085 C-515.211,197.422 -511.867,199.622 -505.794,199.622 C-505.882,198.83 -507.026,198.126 -507.026,193.637 C-507.026,183.956 -502.098,177.091 -493.912,174.099 L-485.463,207.103 L-491.272,234.21 L-477.19,234.21 Z M-431.6,190.205 L-432.569,194.869 L-432.569,194.253 C-432.569,191.701 -434.681,189.765 -439.697,189.765 C-455.011,189.765 -462.316,208.687 -462.316,220.569 C-462.316,231.042 -456.596,234.738 -450.611,234.738 C-444.362,234.738 -440.226,230.69 -437.497,226.641 C-436.969,231.922 -433.801,234.738 -428.872,234.738 C-424.119,234.738 -416.198,232.802 -411.182,218.456 L-414.878,218.456 C-416.198,222.857 -418.575,226.729 -422.007,226.729 C-424.471,226.729 -425.616,225.409 -425.616,222.945 C-425.616,222.153 -425.528,221.273 -425.264,220.128 L-418.927,190.205 L-431.6,190.205 Z M-436.969,195.221 C-434.153,195.221 -433.361,197.51 -433.361,198.566 L-437.585,218.456 C-438.641,223.561 -442.338,226.201 -444.89,226.201 C-446.474,226.201 -449.291,226.113 -449.291,219.336 C-449.291,211.063 -444.45,195.221 -436.969,195.221 Z M-408.893,190.205 L-418.223,234.21 L-405.549,234.21 L-398.508,200.766 C-396.308,198.742 -394.724,197.422 -392.083,197.422 C-389.443,197.422 -391.907,203.23 -386.979,203.23 C-382.666,203.23 -380.642,199.886 -380.642,196.805 C-380.642,193.461 -382.754,190.205 -386.715,190.205 C-390.939,190.205 -394.284,193.021 -397.364,195.661 L-396.22,190.205 L-408.893,190.205 Z M-356.439,202.35 C-356.439,207.983 -360.399,218.808 -360.399,224.793 C-360.399,229.81 -358.287,234.738 -351.51,234.738 C-346.845,234.738 -342.621,232.01 -341.829,225.673 C-342.357,226.025 -343.237,226.201 -344.733,226.201 C-347.374,226.201 -348.254,224.705 -348.254,222.505 C-348.254,217.576 -344.029,206.927 -344.029,199.798 C-344.029,192.757 -348.166,189.853 -353.798,189.853 C-356.527,189.853 -360.399,190.557 -364.096,194.781 L-363.128,190.205 L-375.801,190.205 L-385.13,234.21 L-372.457,234.21 L-366.472,205.959 C-365.152,201.558 -362.776,197.862 -359.607,197.862 C-357.495,197.862 -356.439,199.446 -356.439,202.35 Z " fill="#a8dba8" fill-opacity="1.00" />			<path d="M-231.508,173.688 C-231.508,182.521 -231.508,200.368 -231.508,227.23 C-235.985,227.23 -244.939,227.23 -258.37,227.23 C-258.37,218.276 -258.37,200.429 -258.37,173.688 C-262.726,173.688 -271.619,173.688 -285.05,173.688 C-285.05,182.521 -285.05,200.368 -285.05,227.23 C-285.05,231.585 -285.05,240.479 -285.05,253.909 C-285.05,258.386 -285.05,265.102 -285.05,274.056 C-285.05,283.009 -285.05,294.141 -285.05,307.451 C-279.121,307.451 -270.228,307.451 -258.37,307.451 C-258.37,295.593 -258.37,277.746 -258.37,253.909 C-252.32,253.909 -243.366,253.909 -231.508,253.909 C-231.508,265.767 -231.508,283.614 -231.508,307.451 C-225.579,307.451 -216.686,307.451 -204.828,307.451 C-204.828,295.593 -204.828,277.746 -204.828,253.909 C-204.828,247.981 -204.828,239.087 -204.828,227.23 C-204.828,215.251 -204.828,197.404 -204.828,173.688 C-210.757,173.688 -219.651,173.688 -231.508,173.688 Z M-100.843,173.688 C-114.153,173.688 -140.893,173.688 -181.065,173.688 C-181.065,175.866 -181.065,179.194 -181.065,183.67 C-181.065,188.147 -181.065,193.713 -181.065,200.368 C-176.588,200.368 -167.694,200.368 -154.385,200.368 C-154.385,218.276 -154.385,253.97 -154.385,307.451 C-149.908,307.451 -140.954,307.451 -127.523,307.451 C-127.523,289.664 -127.523,253.97 -127.523,200.368 C-123.046,200.368 -114.153,200.368 -100.843,200.368 C-100.843,194.439 -100.843,185.546 -100.843,173.688 Z M56.6833,186.937 C56.6833,183.307 55.4129,180.162 52.8719,177.5 C50.21,174.959 47.064,173.688 43.4341,173.688 C25.5265,173.688 12.0958,173.688 3.14197,173.688 C-0.487949,173.688 -3.63388,174.959 -6.29583,177.5 C-8.83677,180.162 -10.1072,183.307 -10.1072,186.937 C-10.1072,183.307 -11.4382,180.162 -14.1002,177.5 C-16.6411,174.959 -19.787,173.688 -23.538,173.688 C-41.4456,173.688 -54.8158,173.688 -63.6486,173.688 C-67.3995,173.688 -70.5455,174.959 -73.0864,177.5 C-75.7484,180.162 -77.0793,183.307 -77.0793,186.937 C-77.0793,203.635 -77.0793,218.276 -77.0793,230.859 C-77.0793,243.322 -77.0793,253.728 -77.0793,262.077 C-77.0793,282.283 -77.0793,297.408 -77.0793,307.451 C-65.2216,307.451 -56.3283,307.451 -50.3994,307.451 C-50.3994,259.899 -50.3994,224.205 -50.3994,200.368 C-38.4206,200.368 -29.4668,200.368 -23.538,200.368 C-23.538,247.92 -23.538,283.614 -23.538,307.451 C-11.6802,307.451 -2.7869,307.451 3.14197,307.451 C3.14197,259.899 3.14197,224.205 3.14197,200.368 C15.1207,200.368 24.0745,200.368 30.0034,200.368 C30.0034,247.92 30.0034,283.614 30.0034,307.451 C41.8612,307.451 50.7545,307.451 56.6833,307.451 C56.6833,253.97 56.6833,213.799 56.6833,186.937 Z M107.127,280.771 C107.127,262.863 107.127,227.169 107.127,173.688 C102.771,173.688 93.878,173.688 80.4472,173.688 C80.4472,184.82 80.4472,201.518 80.4472,223.781 C80.4472,246.045 80.4472,273.935 80.4472,307.451 C81.5362,307.451 83.7747,307.451 87.1626,307.451 C90.5505,307.451 97.2054,307.451 107.127,307.451 C116.081,307.451 133.928,307.451 160.669,307.451 C160.669,302.974 160.669,294.081 160.669,280.771 C148.811,280.771 130.964,280.771 107.127,280.771 Z " fill="#79bd9a" fill-opacity="1.00" />			<path d="M328.928,-348.131 C334.589,-339.72 343.485,-335.515 355.617,-335.515 C368.88,-335.515 379.354,-340.003 387.037,-348.981 C394.72,-357.958 398.562,-370.13 398.562,-385.496 C398.562,-390.187 398.238,-397.385 397.591,-407.09 C396.621,-421.648 396.136,-433.698 396.136,-443.242 C396.136,-448.741 396.378,-453.917 396.864,-458.77 L398.562,-475.996 C398.724,-476.482 398.805,-477.21 398.805,-478.18 C398.805,-483.194 397.106,-487.279 393.709,-490.433 C390.313,-493.587 386.026,-495.164 380.85,-495.164 C376.321,-495.164 372.52,-493.91 369.447,-491.403 C366.373,-488.896 364.837,-485.782 364.837,-482.062 C364.837,-480.606 365.12,-478.625 365.686,-476.118 C366.252,-473.611 366.535,-471.71 366.535,-470.416 C366.535,-467.181 364.432,-465.159 360.227,-464.35 C358.771,-464.027 355.455,-463.865 350.279,-463.865 L283.071,-463.865 C272.072,-463.865 266.572,-466.049 266.572,-470.416 C266.572,-471.548 266.855,-473.408 267.421,-475.996 C267.988,-478.584 268.271,-480.606 268.271,-482.062 C268.271,-485.782 266.734,-488.896 263.661,-491.403 C260.587,-493.91 256.786,-495.164 252.257,-495.164 C240.449,-495.164 234.545,-489.26 234.545,-477.452 C234.545,-472.761 234.95,-467.019 235.758,-460.226 C236.567,-453.432 236.972,-447.447 236.972,-442.271 C236.972,-437.419 236.567,-431.676 235.758,-425.044 C234.95,-418.413 234.545,-413.156 234.545,-409.274 C234.545,-397.951 240.449,-392.29 252.257,-392.29 C256.786,-392.29 260.587,-393.462 263.661,-395.808 C266.734,-398.153 268.271,-401.024 268.271,-404.421 C268.271,-405.715 267.988,-407.535 267.421,-409.88 C266.855,-412.226 266.572,-413.964 266.572,-415.097 C266.572,-419.141 272.072,-421.162 283.071,-421.162 L288.651,-421.162 C293.019,-421.162 296.011,-420.758 297.629,-419.949 C300.055,-418.817 301.268,-415.986 301.268,-411.457 C301.268,-400.296 299.651,-392.573 296.416,-388.286 C293.18,-384 287.357,-381.857 278.946,-381.857 C277.814,-381.857 277.248,-381.857 277.248,-381.857 L263.175,-382.342 C262.852,-382.504 262.286,-382.585 261.477,-382.585 C253.389,-382.585 246.879,-380.765 241.946,-377.125 C237.012,-373.486 234.545,-368.674 234.545,-362.689 C234.545,-360.748 234.748,-357.877 235.152,-354.076 C235.556,-350.275 235.758,-347.403 235.758,-345.462 C235.758,-343.683 235.556,-340.933 235.152,-337.213 C234.748,-333.493 234.545,-330.743 234.545,-328.964 C234.545,-323.788 236.122,-319.623 239.277,-316.468 C242.431,-313.314 246.677,-311.737 252.015,-311.737 C256.867,-311.737 260.79,-312.829 263.782,-315.013 C266.774,-317.196 268.271,-320.067 268.271,-323.626 C268.271,-324.596 268.068,-326.093 267.664,-328.115 C267.26,-330.136 267.058,-331.633 267.058,-332.603 C267.058,-336.485 270.373,-338.426 277.005,-338.426 C278.946,-338.426 279.917,-338.426 279.917,-338.426 C282.667,-338.265 285.497,-338.184 288.409,-338.184 C298.114,-338.184 305.433,-340.61 310.367,-345.462 C315.3,-350.315 318.737,-358.564 320.678,-370.211 C322.943,-360.182 325.693,-352.822 328.928,-348.131 Z M366.292,-403.208 C366.292,-388.327 360.793,-380.886 349.794,-380.886 C337.339,-380.886 331.111,-391.4 331.111,-412.428 C331.111,-415.825 331.677,-418.13 332.81,-419.343 C333.942,-420.556 336.368,-421.162 340.089,-421.162 L354.646,-421.162 C359.984,-421.162 363.462,-419.383 365.079,-415.825 C365.888,-413.884 366.292,-409.678 366.292,-403.208 Z M306.849,-188.967 C323.347,-188.967 336.53,-194.103 346.397,-204.374 C356.264,-214.645 361.197,-228.354 361.197,-245.5 C361.197,-263.939 355.172,-278.861 343.121,-290.265 C331.071,-301.668 315.26,-307.37 295.688,-307.37 C276.277,-307.37 260.749,-301.628 249.103,-290.143 C237.457,-278.659 231.634,-263.292 231.634,-244.044 C231.634,-229.324 234.909,-216.829 241.46,-206.558 C248.011,-196.287 255.978,-191.151 265.359,-191.151 C269.565,-191.151 273.042,-192.647 275.792,-195.64 C278.542,-198.632 279.917,-202.555 279.917,-207.407 C279.917,-213.23 277.329,-218.568 272.153,-223.421 C264.712,-230.538 260.992,-237.493 260.992,-244.287 C260.992,-250.918 263.256,-256.418 267.785,-260.785 C272.314,-265.153 277.976,-267.336 284.769,-267.336 C287.034,-267.336 288.449,-266.972 289.015,-266.244 C289.581,-265.517 289.865,-263.697 289.865,-260.785 L289.865,-201.584 C289.865,-196.57 290.997,-193.213 293.261,-191.515 C295.526,-189.817 300.055,-188.967 306.849,-188.967 Z M318.98,-266.123 C321.568,-266.123 324.48,-264.829 327.715,-262.241 C332.729,-258.197 335.236,-252.94 335.236,-246.47 C335.236,-241.456 333.659,-237.089 330.505,-233.368 C327.351,-229.648 323.671,-227.788 319.465,-227.788 C318.009,-227.788 316.998,-228.071 316.432,-228.637 C315.866,-229.203 315.583,-230.699 315.583,-233.126 L315.583,-260.3 C315.583,-263.212 315.907,-264.91 316.554,-265.395 C317.201,-265.88 318.009,-266.123 318.98,-266.123 Z M231.634,-65.7123 C231.634,-58.2717 233.332,-52.1655 236.729,-47.3938 C240.126,-42.6222 244.493,-40.2363 249.831,-40.2363 C253.551,-40.2363 256.705,-41.5303 259.293,-44.1184 C261.881,-46.7064 263.175,-49.8606 263.175,-53.5809 C263.175,-54.2279 263.095,-54.794 262.933,-55.2793 C262.771,-56.4115 262.69,-57.6247 262.69,-58.9187 C262.69,-61.5067 265.278,-62.8007 270.454,-62.8007 L320.678,-62.8007 C336.53,-62.8007 347.367,-67.4107 353.19,-76.6305 C358.528,-85.2034 361.197,-98.2244 361.197,-115.694 C361.197,-131.869 358.69,-144.566 353.676,-153.786 C348.661,-163.006 341.787,-167.616 333.052,-167.616 C327.229,-167.616 322.377,-165.513 318.495,-161.308 C314.613,-157.102 312.672,-151.764 312.672,-145.294 C312.672,-139.633 314.208,-134.902 317.282,-131.101 C320.355,-127.299 324.156,-125.399 328.685,-125.399 L329.656,-125.399 C330.788,-125.561 331.92,-125.641 333.052,-125.641 C336.449,-125.641 338.148,-122.972 338.148,-117.635 C338.148,-112.944 336.894,-109.021 334.387,-105.867 C331.88,-102.713 328.766,-101.136 325.046,-101.136 C319.87,-101.136 316.028,-103.198 313.521,-107.323 C311.014,-111.448 308.79,-119.252 306.849,-130.737 C305.393,-138.986 303.613,-146.265 301.511,-152.573 C296.496,-167.293 285.497,-174.652 268.513,-174.652 C257.352,-174.652 248.416,-170.851 241.703,-163.249 C234.99,-155.646 231.634,-145.456 231.634,-132.678 C231.634,-117.149 236.972,-103.724 247.647,-92.4014 C236.972,-87.8723 231.634,-78.9759 231.634,-65.7123 Z M283.556,-100.893 C268.675,-100.893 261.234,-108.091 261.234,-122.487 C261.234,-131.222 264.955,-135.589 272.395,-135.589 C277.086,-135.589 280.564,-131.141 282.828,-122.245 C286.225,-109.143 288.247,-102.026 288.894,-100.893 L283.556,-100.893 Z M319.223,39.3457 C314.694,39.3457 311.014,41.0441 308.183,44.4409 C305.352,47.8377 303.937,52.2859 303.937,57.7854 C303.937,64.4173 305.918,69.836 309.881,74.0415 C313.844,78.2471 319.061,80.3499 325.531,80.3499 C335.883,80.3499 344.415,75.6995 351.128,66.3987 C357.841,57.098 361.197,45.3305 361.197,31.0963 C361.197,11.3626 355.374,-4.32735 343.728,-15.9735 C332.082,-27.6197 316.311,-33.4427 296.416,-33.4427 C276.682,-33.4427 260.951,-27.7814 249.224,-16.4588 C237.497,-5.13611 231.634,10.0686 231.634,29.1553 C231.634,44.0365 235.678,56.8149 243.765,67.4906 C251.853,78.1662 261.396,83.504 272.395,83.504 C277.571,83.504 281.817,81.8056 285.133,78.4088 C288.449,75.012 290.107,70.5639 290.107,65.0643 C290.107,60.2117 289.137,56.6532 287.196,54.3886 C285.74,52.7711 282.343,50.8301 277.005,48.5656 C268.432,44.8453 264.146,39.0222 264.146,31.0963 C264.146,23.3322 267.219,17.1048 273.366,12.414 C279.512,7.72317 287.681,5.37777 297.871,5.37777 C307.738,5.37777 315.624,7.60186 321.528,12.05 C327.431,16.4982 330.383,22.2809 330.383,29.398 C330.383,33.927 329.089,38.0517 326.501,41.772 C324.075,40.1545 321.649,39.3457 319.223,39.3457 Z M324.56,146.345 C326.987,146.345 328.766,146.668 329.898,147.315 C331.03,147.962 331.597,149.984 331.597,153.381 L331.597,173.276 C331.597,182.011 335.883,186.378 344.456,186.378 C353.352,186.378 357.8,181.607 357.8,172.063 L357.8,154.594 C357.8,150.874 358.367,148.569 359.499,147.679 C360.631,146.79 363.543,146.345 368.233,146.345 L381.335,146.345 C386.835,146.345 390.393,145.334 392.011,143.312 C393.629,141.29 394.437,137.448 394.437,131.787 C394.437,123.861 393.386,118.402 391.283,115.41 C389.18,112.417 385.298,110.921 379.637,110.921 L367.748,110.921 C364.675,110.921 362.491,110.678 361.197,110.193 C358.933,109.546 357.8,107.282 357.8,103.4 L357.8,98.7896 C357.8,96.0398 356.466,93.654 353.797,91.6321 C351.128,89.6102 347.934,88.5992 344.213,88.5992 C340.493,88.5992 337.46,89.5697 335.115,91.5107 C332.769,93.4518 331.597,95.9589 331.597,99.0322 L331.597,102.914 C331.597,105.664 331.071,107.403 330.02,108.131 C328.968,108.859 326.421,109.223 322.377,109.223 L314.613,109.223 C310.084,109.223 303.29,109.02 294.232,108.616 C285.174,108.212 278.38,108.009 273.851,108.009 C245.706,108.009 231.634,121.354 231.634,148.043 C231.634,161.63 235.233,172.225 242.431,179.827 C249.629,187.43 259.617,191.231 272.395,191.231 C288.732,191.231 296.901,186.136 296.901,175.945 C296.901,167.211 292.533,162.843 283.799,162.843 C283.314,162.843 282.505,162.924 281.373,163.086 C280.079,163.086 279.027,163.086 278.218,163.086 C277.571,163.248 276.601,163.329 275.307,163.329 C266.734,163.329 262.448,160.417 262.448,154.594 C262.448,148.447 267.219,145.374 276.763,145.374 C275.792,145.374 277.976,145.455 283.314,145.617 L299.57,146.102 L314.613,146.345 L324.56,146.345 Z M231.634,233.933 C231.634,240.727 234.06,246.51 238.913,251.281 C243.765,256.053 249.588,258.439 256.382,258.439 C263.175,258.439 268.958,256.053 273.73,251.281 C278.501,246.51 280.887,240.727 280.887,233.933 C280.887,227.14 278.501,221.357 273.73,216.586 C268.958,211.814 263.175,209.428 256.382,209.428 C249.588,209.428 243.765,211.814 238.913,216.586 C234.06,221.357 231.634,227.14 231.634,233.933 Z M217.076,282.702 C221.282,282.702 224.8,281.044 227.63,277.728 C230.461,274.412 231.876,270.247 231.876,265.232 C231.876,259.248 229.935,254.233 226.053,250.19 C222.171,246.146 217.4,244.124 211.738,244.124 C203.812,244.124 197.383,247.925 192.449,255.527 C187.516,263.13 185.049,272.916 185.049,284.885 C185.049,302.193 190.387,315.78 201.063,325.647 C205.915,330.176 210.889,333.249 215.984,334.867 C221.079,336.484 228.156,337.293 237.214,337.293 L348.338,337.293 C354.646,337.293 357.8,335.028 357.8,330.499 C357.8,330.014 357.477,327.345 356.83,322.493 C356.183,317.64 355.859,314.001 355.859,311.574 C355.859,309.148 356.183,305.63 356.83,301.02 C357.477,296.41 357.8,292.892 357.8,290.466 C357.8,280.922 352.382,276.151 341.544,276.151 C332.486,276.151 327.957,279.628 327.957,286.584 C327.957,287.393 328.24,288.889 328.806,291.072 C329.373,293.256 329.656,294.833 329.656,295.804 C329.656,298.715 325.046,300.171 315.826,300.171 L243.523,300.171 C231.068,300.171 222.414,299.079 217.561,296.895 C212.709,294.712 210.283,290.87 210.283,285.371 C210.283,283.753 210.444,282.297 210.768,281.003 C212.709,282.136 214.812,282.702 217.076,282.702 Z M367.02,315.942 C367.02,322.088 369.204,327.305 373.571,331.591 C377.939,335.878 383.115,338.021 389.099,338.021 C395.246,338.021 400.463,335.878 404.749,331.591 C409.035,327.305 411.179,322.088 411.179,315.942 C411.179,309.795 409.035,304.538 404.749,300.171 C400.463,295.804 395.246,293.62 389.099,293.62 C382.953,293.62 377.736,295.804 373.45,300.171 C369.164,304.538 367.02,309.795 367.02,315.942 Z M361.197,408.14 C361.197,395.2 357.396,384.727 349.794,376.72 C342.191,368.713 332.324,364.71 320.193,364.71 C313.399,364.71 307.374,366.085 302.117,368.835 C296.86,371.584 293.019,375.345 290.592,380.117 C288.166,384.889 285.74,393.017 283.314,404.501 L280.402,418.573 C278.461,427.955 274.983,432.646 269.969,432.646 C262.69,432.646 259.051,426.823 259.051,415.177 C259.051,408.545 259.981,403.53 261.841,400.134 C263.701,396.737 267.624,393.017 273.608,388.973 C277.329,386.385 279.836,383.958 281.13,381.694 C282.424,379.429 283.071,376.114 283.071,371.746 C283.071,362.688 279.432,358.159 272.153,358.159 C270.697,358.159 268.513,358.28 265.602,358.523 C262.69,358.766 260.507,358.887 259.051,358.887 C257.433,358.887 254.926,358.725 251.529,358.402 C248.133,358.078 245.625,357.916 244.008,357.916 C236.891,357.916 233.332,362.284 233.332,371.018 C233.332,379.106 237.295,383.15 245.221,383.15 C236.163,394.796 231.634,407.736 231.634,421.97 C231.634,436.204 235.758,448.053 244.008,457.515 C252.257,466.978 262.528,471.709 274.822,471.709 C282.586,471.709 289.379,469.687 295.202,465.643 C299.731,462.408 303.209,458.243 305.635,453.148 C308.062,448.053 310.245,440.167 312.186,429.492 C314.451,416.39 316.271,408.302 317.645,405.229 C319.02,402.156 321.406,400.619 324.803,400.619 C331.273,400.619 334.508,405.31 334.508,414.691 C334.508,422.617 330.788,429.33 323.347,434.83 C317.201,439.359 314.127,444.696 314.127,450.843 C314.127,459.416 318.414,463.702 326.987,463.702 L327.957,463.702 C329.575,463.702 331.435,463.702 333.538,463.702 C335.64,463.541 336.934,463.46 337.42,463.46 C340.008,463.46 342.757,463.702 345.669,464.188 C348.095,464.835 350.279,465.158 352.22,465.158 C358.043,465.158 360.955,461.033 360.955,452.784 C360.955,444.696 357.558,440.329 350.764,439.682 C357.72,431.109 361.197,420.595 361.197,408.14 Z " fill="#09476b" fill-opacity="1.00" />			<path d="M401.349,-117.216 L430.006,-117.216 L430.006,-169.202 L444.151,-169.202 L471.338,-117.216 L505.689,-117.216 L472.624,-172.142 C481.808,-173.856 488.789,-177.928 493.565,-184.357 C498.341,-190.787 500.729,-198.594 500.729,-207.779 C500.729,-215.372 499.413,-221.709 496.78,-226.792 C494.147,-231.874 490.595,-235.915 486.125,-238.916 C481.655,-241.916 476.451,-244.059 470.511,-245.345 C464.572,-246.631 458.295,-247.274 451.682,-247.274 L401.349,-247.274 L401.349,-117.216 Z M430.006,-223.026 L448.743,-223.026 C451.315,-223.026 453.948,-222.842 456.642,-222.475 C459.336,-222.107 461.724,-221.403 463.806,-220.362 C465.888,-219.321 467.603,-217.821 468.95,-215.862 C470.297,-213.902 470.97,-211.269 470.97,-207.963 C470.97,-204.411 470.205,-201.656 468.674,-199.696 C467.143,-197.737 465.215,-196.298 462.888,-195.379 C460.561,-194.461 457.958,-193.91 455.081,-193.726 C452.203,-193.542 449.478,-193.45 446.906,-193.45 L430.006,-193.45 L430.006,-223.026 Z M582.107,-146.791 C579.78,-143.607 577.056,-141.005 573.933,-138.984 C570.81,-136.964 566.983,-135.953 562.452,-135.953 C557.063,-135.953 552.532,-137.515 548.858,-140.638 C545.184,-143.76 542.796,-147.955 541.694,-153.221 L605.62,-153.221 L605.62,-161.855 C605.62,-168.958 604.641,-175.387 602.681,-181.143 C600.722,-186.899 597.936,-191.828 594.323,-195.93 C590.71,-200.033 586.302,-203.186 581.097,-205.391 C575.892,-207.595 570.106,-208.697 563.737,-208.697 C556.879,-208.697 550.419,-207.595 544.357,-205.391 C538.295,-203.186 533.029,-200.033 528.559,-195.93 C524.089,-191.828 520.569,-186.899 517.997,-181.143 C515.425,-175.387 514.139,-168.958 514.139,-161.855 C514.139,-154.752 515.425,-148.322 517.997,-142.566 C520.569,-136.81 524.089,-131.881 528.559,-127.779 C533.029,-123.676 538.295,-120.523 544.357,-118.318 C550.419,-116.114 556.879,-115.012 563.737,-115.012 C570.963,-115.012 577.943,-116.543 584.679,-119.604 C591.415,-122.666 596.987,-127.013 601.395,-132.647 L582.107,-146.791 Z M541.694,-171.958 C541.816,-174.162 542.337,-176.275 543.255,-178.295 C544.174,-180.316 545.46,-182.092 547.113,-183.623 C548.766,-185.153 550.756,-186.409 553.083,-187.388 C555.41,-188.368 558.104,-188.858 561.166,-188.858 C566.187,-188.858 570.289,-187.205 573.473,-183.898 C576.658,-180.592 578.188,-176.612 578.066,-171.958 L541.694,-171.958 Z M716.023,-256.091 L688.468,-256.091 L688.468,-196.941 L688.101,-196.941 C684.916,-201.227 680.844,-204.258 675.885,-206.034 C670.925,-207.809 665.567,-208.697 659.811,-208.697 C653.443,-208.697 647.748,-207.381 642.727,-204.748 C637.706,-202.115 633.451,-198.594 629.96,-194.185 C626.47,-189.777 623.776,-184.725 621.878,-179.03 C619.979,-173.336 619.03,-167.365 619.03,-161.12 C619.03,-154.384 620.071,-148.2 622.153,-142.566 C624.235,-136.933 627.205,-132.065 631.063,-127.962 C634.92,-123.86 639.543,-120.676 644.932,-118.41 C650.32,-116.145 656.321,-115.012 662.934,-115.012 C665.996,-115.012 668.965,-115.44 671.843,-116.298 C674.721,-117.155 677.354,-118.257 679.742,-119.604 C682.13,-120.951 684.212,-122.451 685.988,-124.105 C687.764,-125.758 689.203,-127.381 690.305,-128.973 L690.672,-128.973 L690.672,-117.216 L716.023,-117.216 L716.023,-256.091 Z M690.672,-161.855 C690.672,-155.119 688.743,-149.669 684.886,-145.505 C681.028,-141.342 675.609,-139.26 668.629,-139.26 C661.648,-139.26 656.229,-141.342 652.371,-145.505 C648.514,-149.669 646.585,-155.119 646.585,-161.855 C646.585,-168.59 648.514,-174.04 652.371,-178.204 C656.229,-182.367 661.648,-184.449 668.629,-184.449 C675.609,-184.449 681.028,-182.367 684.886,-178.204 C688.743,-174.04 690.672,-168.59 690.672,-161.855 Z M824.037,-206.493 L796.482,-206.493 L796.482,-162.038 C796.482,-159.099 796.298,-156.282 795.931,-153.588 C795.563,-150.894 794.798,-148.475 793.635,-146.332 C792.471,-144.189 790.787,-142.474 788.583,-141.189 C786.379,-139.903 783.501,-139.26 779.949,-139.26 C776.398,-139.26 773.673,-139.995 771.775,-141.464 C769.876,-142.934 768.468,-144.832 767.55,-147.159 C766.631,-149.486 766.08,-152.027 765.896,-154.782 C765.713,-157.538 765.621,-160.201 765.621,-162.773 L765.621,-206.493 L738.066,-206.493 L738.066,-157.262 C738.066,-151.261 738.464,-145.689 739.26,-140.546 C740.056,-135.402 741.648,-130.932 744.036,-127.136 C746.424,-123.339 749.792,-120.37 754.14,-118.226 C758.487,-116.083 764.151,-115.012 771.132,-115.012 C774.438,-115.012 777.5,-115.44 780.317,-116.298 C783.133,-117.155 785.644,-118.257 787.848,-119.604 C790.053,-120.951 791.92,-122.482 793.451,-124.197 C794.982,-125.911 796.237,-127.626 797.217,-129.34 L797.584,-129.34 L797.584,-117.216 L824.037,-117.216 L824.037,-206.493 Z M832.303,-117.216 L864.45,-117.216 L885.391,-146.975 L904.863,-117.216 L937.378,-117.216 L903.026,-164.977 L932.051,-206.493 L901.373,-206.493 L886.126,-182.245 L870.328,-206.493 L837.814,-206.493 L867.573,-164.977 L832.303,-117.216 Z " fill="#3a8686" fill-opacity="1.00" />			<path d="M418.956,-49.848 C418.145,-51.5514 416.482,-52.4031 413.967,-52.4031 C412.751,-52.4031 410.926,-52.2815 408.492,-52.0381 C406.059,-51.7948 404.234,-51.6731 403.017,-51.6731 C400.827,-51.6731 397.704,-51.8759 393.648,-52.2815 C392.837,-52.3626 392.188,-52.4031 391.701,-52.4031 C388.214,-52.4031 386.47,-50.9836 386.47,-48.1446 C386.47,-45.4679 387.767,-44.1295 390.363,-44.1295 C391.093,-44.1295 392.229,-44.2512 393.77,-44.4945 C394.824,-44.6567 395.636,-44.7378 396.203,-44.7378 C400.421,-44.7378 402.53,-41.6961 402.53,-35.6125 L402.652,-16.3884 L402.652,-5.92469 L402.53,4.78239 L402.53,13.2994 C402.53,19.3829 400.462,22.4247 396.325,22.4247 C395.514,22.4247 394.662,22.3031 393.77,22.0597 C391.985,21.8975 390.89,21.8164 390.485,21.8164 C387.889,21.8164 386.591,23.0736 386.591,25.5882 C386.591,28.4272 388.335,29.8467 391.823,29.8467 C392.066,29.8467 392.391,29.8467 392.797,29.8467 C393.202,29.7656 393.486,29.725 393.648,29.725 L399.61,28.995 C402.936,28.5894 405.653,28.3866 407.762,28.3866 C410.196,28.3866 412.791,28.5894 415.549,28.995 L420.538,29.725 C420.7,29.725 420.984,29.7656 421.389,29.8467 C421.714,29.8467 421.957,29.8467 422.119,29.8467 C425.769,29.8467 427.595,28.4272 427.595,25.5882 C427.595,22.9114 426.297,21.573 423.701,21.573 C423.052,21.573 422.079,21.6744 420.781,21.8772 C419.483,22.08 418.51,22.1814 417.861,22.1814 C413.724,22.1814 411.656,19.1396 411.656,13.056 L411.656,-43.5211 L443.533,22.7897 C446.291,28.4677 449.658,31.3067 453.632,31.3067 C456.715,31.3067 458.884,30.1711 460.142,27.8999 C461.399,25.6287 462.028,21.6947 462.028,16.0978 L462.028,-16.3884 L462.271,-28.7989 L462.514,-35.7342 C462.676,-39.3032 463.123,-41.6149 463.853,-42.6694 C464.583,-43.7239 466.164,-44.2512 468.598,-44.2512 L469.814,-44.2512 C470.139,-44.17 470.585,-44.1295 471.153,-44.1295 C474.397,-44.1295 476.02,-45.5084 476.02,-48.2663 C476.02,-51.1053 474.276,-52.5248 470.788,-52.5248 C470.545,-52.5248 470.261,-52.5248 469.936,-52.5248 C469.531,-52.4437 469.247,-52.4031 469.084,-52.4031 C467.462,-52.1598 466.043,-51.957 464.826,-51.7948 C461.338,-51.3081 458.54,-51.0648 456.431,-51.0648 C454.322,-51.0648 452.05,-51.227 449.617,-51.5514 L444.142,-52.2815 C443.817,-52.3626 443.29,-52.4031 442.56,-52.4031 C438.91,-52.4031 437.085,-50.9431 437.085,-48.023 C437.085,-46.9685 437.47,-46.056 438.241,-45.2854 C439.011,-44.5148 439.924,-44.1295 440.978,-44.1295 C441.627,-44.1295 442.601,-44.2309 443.898,-44.4337 C445.196,-44.6365 446.17,-44.7378 446.819,-44.7378 C450.144,-44.7378 452.172,-42.6289 452.902,-38.4109 C452.983,-37.762 453.024,-34.2741 453.024,-27.9472 L453.024,21.0863 L420.294,-46.9279 L418.956,-49.848 Z M509.966,31.3067 C518.726,31.3067 525.743,28.3055 531.015,22.3031 C536.288,16.3006 538.924,8.35141 538.924,-1.54452 C538.924,-11.4405 536.369,-19.268 531.258,-25.0271 C526.148,-30.7862 519.172,-33.6658 510.331,-33.6658 C501.652,-33.6658 494.737,-30.7254 489.586,-24.8446 C484.435,-18.9638 481.86,-11.0754 481.86,-1.17951 C481.86,8.71643 484.415,16.6048 489.525,22.4856 C494.635,28.3663 501.449,31.3067 509.966,31.3067 Z M510.574,-25.6354 C522.904,-25.6354 529.068,-17.524 529.068,-1.30118 C529.068,6.40467 527.385,12.4274 524.019,16.767 C520.653,21.1066 516.009,23.2764 510.088,23.2764 C504.329,23.2764 499.847,21.1066 496.643,16.767 C493.439,12.4274 491.837,6.44523 491.837,-1.17951 C491.837,-2.23399 491.837,-2.76124 491.837,-2.76124 C492.161,-10.0615 493.946,-15.699 497.191,-19.6736 C500.435,-23.6481 504.896,-25.6354 510.574,-25.6354 Z M575.669,-33.6658 C567.395,-33.6658 560.784,-30.7254 555.836,-24.8446 C550.888,-18.9638 548.414,-11.116 548.414,-1.30118 C548.414,8.43253 550.929,16.3006 555.958,22.3031 C560.987,28.3055 567.638,31.3067 575.912,31.3067 C584.104,31.3067 590.35,28.4272 594.649,22.6681 L594.528,24.7365 L594.528,25.3448 C594.528,28.265 595.623,29.725 597.813,29.725 C598.543,29.725 599.394,29.6033 600.368,29.36 C601.99,29.1978 602.923,29.1167 603.166,29.1167 C603.977,29.1167 605.214,29.218 606.877,29.4208 C608.54,29.6236 609.777,29.725 610.588,29.725 C614.238,29.725 616.063,28.3461 616.063,25.5882 C616.063,22.9114 614.563,21.573 611.562,21.573 C611.075,21.573 610.183,21.6541 608.885,21.8164 C608.317,21.9786 607.506,22.0597 606.451,22.0597 C604.91,22.0597 603.937,21.4108 603.531,20.113 C603.126,18.8151 602.882,15.4895 602.801,10.1359 L602.558,-10.1832 L602.558,-22.107 C602.558,-24.2159 602.639,-27.2983 602.801,-31.354 C603.045,-37.1131 603.166,-40.236 603.166,-40.7227 C603.247,-44.7784 603.328,-46.9279 603.41,-47.1713 L603.41,-48.5097 C603.41,-51.7542 602.274,-53.3765 600.003,-53.3765 C599.273,-53.3765 598.218,-53.2954 596.839,-53.1332 C595.46,-52.9709 594.406,-52.8898 593.676,-52.8898 C593.595,-52.8898 592.256,-53.0115 589.661,-53.2548 C587.957,-53.4171 586.781,-53.4982 586.132,-53.4982 C582.077,-53.4982 580.049,-52.1598 580.049,-49.483 C580.049,-46.8874 581.549,-45.5895 584.551,-45.5895 C585.199,-45.5895 586.112,-45.7112 587.288,-45.9546 C588.464,-46.1979 589.377,-46.3196 590.026,-46.3196 C591.891,-46.3196 593.027,-45.0623 593.433,-42.5478 C593.595,-41.8177 593.676,-39.8304 593.676,-36.5859 L593.676,-24.2971 C589.701,-30.5429 583.699,-33.6658 575.669,-33.6658 Z M592.946,9.28423 C592.459,13.5022 590.756,16.8887 587.836,19.4438 C584.916,21.9989 581.265,23.2764 576.885,23.2764 C571.126,23.2764 566.584,21.0661 563.258,16.6453 C559.932,12.2246 558.27,6.16133 558.27,-1.54452 C558.27,-9.00703 559.872,-14.8878 563.076,-19.1869 C566.28,-23.4859 570.721,-25.6354 576.399,-25.6354 C580.617,-25.6354 584.348,-24.2971 587.592,-21.6203 C590.35,-19.3491 592.094,-16.1856 592.824,-12.1299 C593.23,-10.1832 593.433,-6.49249 593.433,-1.05784 C593.433,3.1601 593.27,6.60746 592.946,9.28423 Z M676.656,-6.53305 C676.656,-14.4011 674.182,-20.8903 669.234,-26.0005 C664.286,-31.1107 657.999,-33.6658 650.375,-33.6658 C641.777,-33.6658 634.801,-30.5834 629.447,-24.4187 C624.094,-18.2541 621.417,-10.2237 621.417,-0.327809 C621.417,9.32478 623.931,17.0104 628.961,22.7289 C633.99,28.4475 640.763,31.3067 649.28,31.3067 C656.093,31.3067 662.177,29.2586 667.53,25.1623 C672.884,21.0661 675.561,16.3817 675.561,11.1093 C675.561,8.02696 674.06,6.48579 671.059,6.48579 C668.95,6.48579 667.612,7.45916 667.044,9.4059 L665.949,12.9344 C665.056,15.9356 663.13,18.4096 660.169,20.3563 C657.209,22.3031 653.944,23.2764 650.375,23.2764 C644.94,23.2764 640.398,21.2486 636.748,17.1929 C633.097,13.1372 631.272,8.06751 631.272,1.98395 C631.272,1.33503 631.435,0.868626 631.759,0.584726 C632.083,0.300827 632.773,0.158877 633.827,0.158877 L672.519,0.158877 C674.466,0.158877 675.642,-0.185859 676.047,-0.87533 C676.453,-1.5648 676.656,-3.45071 676.656,-6.53305 Z M632.489,-9.6965 C632.489,-13.7522 634.355,-17.4226 638.086,-20.7078 C641.817,-23.9929 645.954,-25.6354 650.496,-25.6354 C654.877,-25.6354 658.689,-24.0537 661.934,-20.8903 C665.178,-17.7268 666.8,-13.9956 666.8,-9.6965 C666.8,-8.5609 665.949,-7.9931 664.245,-7.9931 L635.166,-7.9931 C633.381,-7.9931 632.489,-8.5609 632.489,-9.6965 Z M697.462,31.3067 C699.571,31.3067 701.355,30.5564 702.815,29.0558 C704.275,27.5552 705.005,25.7504 705.005,23.6414 C705.005,21.5325 704.275,19.7277 702.815,18.2271 C701.355,16.7265 699.571,15.9761 697.462,15.9761 C695.353,15.9761 693.568,16.7265 692.108,18.2271 C690.648,19.7277 689.918,21.5325 689.918,23.6414 C689.918,25.7504 690.648,27.5552 692.108,29.0558 C693.568,30.5564 695.353,31.3067 697.462,31.3067 Z M712.184,39.2154 C712.184,37.8364 711.636,36.64 710.541,35.6261 C709.446,34.6121 708.128,34.1052 706.587,34.1052 C704.802,34.1052 703.322,34.7744 702.146,36.1128 C700.97,37.4511 700.382,39.1343 700.382,41.1621 C700.382,44.8123 702.004,47.854 705.249,50.2875 C708.493,52.7209 712.549,53.9376 717.416,53.9376 C724.391,53.9376 729.826,51.5853 733.72,46.8807 C735.91,44.2039 737.37,40.9593 738.1,37.147 C738.505,34.7946 738.708,31.1851 738.708,26.3182 L738.708,-1.17951 C738.708,-3.93739 738.789,-7.87143 738.951,-12.9816 C739.114,-17.524 739.235,-20.4441 739.316,-21.742 C739.316,-22.6342 739.357,-23.8104 739.438,-25.2704 C739.519,-26.4871 739.56,-27.2983 739.56,-27.7039 C739.56,-30.2995 738.384,-31.5973 736.031,-31.5973 C735.382,-31.5973 734.369,-31.4959 732.99,-31.2932 C731.611,-31.0904 730.597,-30.989 729.948,-30.989 C728.893,-30.989 727.068,-31.1107 724.473,-31.354 C723.58,-31.4351 722.526,-31.4757 721.309,-31.4757 C717.902,-31.4757 716.199,-30.1373 716.199,-27.4605 C716.199,-24.8649 717.497,-23.567 720.092,-23.567 C720.822,-23.567 721.552,-23.6887 722.282,-23.932 C723.661,-24.2565 724.797,-24.4187 725.689,-24.4187 C727.474,-24.4187 728.569,-23.5873 728.974,-21.9245 C729.38,-20.2616 729.583,-15.8612 729.583,-8.72313 L729.461,29.4817 C729.461,35.403 728.467,39.7021 726.48,42.3788 C724.493,45.0556 721.228,46.394 716.686,46.394 C714.414,46.394 712.184,45.5828 709.994,43.9606 C711.454,42.5005 712.184,40.9188 712.184,39.2154 Z M732.625,-37.9242 C734.49,-37.9242 736.112,-38.5934 737.491,-39.9318 C738.87,-41.2702 739.56,-42.8722 739.56,-44.7378 C739.56,-46.5224 738.87,-48.0838 737.491,-49.4222 C736.112,-50.7606 734.49,-51.4298 732.625,-51.4298 C730.759,-51.4298 729.157,-50.7809 727.819,-49.483 C726.48,-48.1852 725.811,-46.6035 725.811,-44.7378 C725.811,-42.8722 726.48,-41.2702 727.819,-39.9318 C729.157,-38.5934 730.759,-37.9242 732.625,-37.9242 Z M779.955,-33.6658 C773.06,-33.6658 767.463,-31.9015 763.164,-28.3731 C758.865,-24.8446 756.715,-20.2413 756.715,-14.5634 C756.715,-8.5609 758.906,-4.36324 763.286,-1.97037 C767.666,0.422498 774.033,2.06506 782.388,2.95732 C791.148,3.84957 795.529,7.05359 795.529,12.5694 C795.529,15.6517 794.231,18.2068 791.635,20.2346 C789.039,22.2625 785.754,23.2764 781.78,23.2764 C776.264,23.2764 771.722,22.1814 768.153,19.9913 C764.584,17.8012 762.758,14.9622 762.677,11.4743 C762.596,7.9864 762.333,5.83687 761.887,5.02573 C761.44,4.21459 760.366,3.80902 758.662,3.80902 C756.067,3.80902 754.769,5.22852 754.769,8.06751 C754.769,9.04088 754.931,10.3793 755.255,12.0827 C755.58,13.7861 755.742,15.6111 755.742,17.5579 C755.742,18.6935 755.661,19.8291 755.499,20.9647 C755.012,25.7504 754.769,27.8594 754.769,27.2916 C754.769,30.6173 756.269,32.2801 759.271,32.2801 C762.028,32.2801 763.407,30.8201 763.407,27.8999 C763.407,27.1699 763.367,26.3993 763.286,25.5882 C768.234,29.4006 774.074,31.3067 780.806,31.3067 C788.026,31.3067 793.866,29.5019 798.327,25.8924 C802.788,22.2828 805.019,17.5579 805.019,11.7177 C805.019,2.14618 798.124,-3.57238 784.335,-5.438 L777.278,-6.41138 C770.14,-7.38475 766.571,-10.4671 766.571,-15.6584 C766.571,-18.4974 767.828,-20.87 770.343,-22.7762 C772.857,-24.6824 775.98,-25.6354 779.711,-25.6354 C783.361,-25.6354 786.545,-24.7635 789.263,-23.0195 C791.98,-21.2756 793.379,-19.1869 793.46,-16.7534 L793.582,-12.7383 C793.663,-10.1426 795.001,-8.8448 797.597,-8.8448 C800.274,-8.8448 801.612,-10.386 801.612,-13.4683 C801.612,-14.4417 801.47,-15.8612 801.186,-17.7268 C800.902,-19.5924 800.76,-21.0119 800.76,-21.9853 C800.76,-23.6076 800.923,-25.2299 801.247,-26.8522 C801.409,-28.7989 801.491,-30.0156 801.491,-30.5023 C801.491,-33.098 800.152,-34.3958 797.475,-34.3958 C794.88,-34.3958 793.582,-32.8952 793.582,-29.8939 L793.582,-29.4073 C789.932,-32.2463 785.389,-33.6658 779.955,-33.6658 Z " fill="#79bd9a" fill-opacity="1.00" />			<path d="M434.463,106.654 L454.392,106.654 L454.392,112.222 L449.117,114.86 L449.117,115.446 L460.839,115.446 L460.839,114.86 L455.564,112.222 L455.564,106.654 L473.148,106.654 L473.148,117.791 C471.507,117.791 469.983,118.123 468.576,118.787 C467.17,119.451 465.958,120.291 464.942,121.307 L464.942,121.894 C465.45,121.815 465.978,121.757 466.525,121.718 C466.994,121.679 467.492,121.649 468.019,121.63 C468.547,121.61 469.084,121.601 469.631,121.601 C470.374,121.601 471.028,121.61 471.595,121.63 C472.161,121.649 472.66,121.679 473.09,121.718 C473.558,121.757 473.969,121.815 474.32,121.894 L474.32,98.1553 L473.734,98.1553 L472.855,101.672 L434.757,101.672 L433.877,98.1553 L433.291,98.1553 L433.291,122.48 C433.643,122.402 434.053,122.343 434.522,122.304 C434.952,122.265 435.45,122.235 436.017,122.216 C436.583,122.196 437.238,122.187 437.98,122.187 C438.488,122.187 439.016,122.196 439.563,122.216 C440.11,122.235 440.618,122.265 441.087,122.304 C441.634,122.343 442.161,122.402 442.669,122.48 L442.669,121.894 C441.653,120.878 440.442,120.038 439.035,119.373 C437.629,118.709 436.105,118.377 434.463,118.377 L434.463,106.654 Z M434.757,141.822 L433.877,138.598 L433.291,138.598 L433.291,150.614 L433.877,150.614 L434.757,147.097 L448.824,139.009 L458.202,145.046 L459.667,148.856 L460.253,148.856 L460.253,140.064 L459.667,140.064 L458.202,143.874 L449.762,138.481 L458.788,133.323 L459.667,136.547 L460.253,136.547 L460.253,124.531 L459.667,124.531 L458.788,128.048 L445.424,135.668 L435.343,129.22 L433.877,125.41 L433.291,125.41 L433.291,134.202 L433.877,134.202 L435.343,130.392 L444.486,136.254 L434.757,141.822 Z M420.689,155.01 L419.81,151.493 L419.224,151.493 L419.224,163.216 L419.81,163.216 L420.689,159.699 L435.343,159.699 C434.796,160.051 434.307,160.52 433.877,161.106 C433.487,161.614 433.145,162.249 432.852,163.011 C432.559,163.773 432.412,164.72 432.412,165.853 C432.412,167.26 432.734,168.608 433.379,169.898 C434.024,171.187 434.962,172.34 436.193,173.356 C437.423,174.372 438.928,175.183 440.706,175.788 C442.484,176.394 444.506,176.697 446.772,176.697 C449.039,176.697 451.061,176.394 452.839,175.788 C454.617,175.183 456.121,174.401 457.352,173.444 C458.583,172.486 459.521,171.392 460.165,170.161 C460.81,168.931 461.132,167.69 461.132,166.44 C461.132,165.267 460.898,164.251 460.429,163.392 C459.96,162.532 459.452,161.829 458.905,161.282 C458.241,160.617 457.518,160.09 456.736,159.699 L460.253,159.699 L460.253,151.493 L459.667,151.493 L458.788,155.01 L420.689,155.01 Z M433.584,164.974 C433.584,164.075 433.77,163.294 434.141,162.63 C434.512,161.965 434.913,161.418 435.343,160.989 C435.851,160.481 436.437,160.051 437.101,159.699 L454.685,159.699 C455.662,160.129 456.541,160.637 457.323,161.223 C457.987,161.731 458.593,162.337 459.14,163.04 C459.687,163.743 459.96,164.583 459.96,165.56 C459.96,166.225 459.736,166.899 459.286,167.583 C458.837,168.266 458.104,168.892 457.088,169.458 C456.072,170.025 454.724,170.494 453.044,170.865 C451.364,171.236 449.273,171.422 446.772,171.422 C444.271,171.422 442.181,171.236 440.501,170.865 C438.82,170.494 437.463,170.005 436.427,169.4 C435.392,168.794 434.659,168.11 434.229,167.348 C433.799,166.586 433.584,165.795 433.584,164.974 Z M451.754,189.592 C452.731,189.982 453.61,190.49 454.392,191.116 C455.056,191.624 455.662,192.268 456.209,193.05 C456.756,193.831 457.03,194.73 457.03,195.746 C457.03,196.098 456.981,196.44 456.883,196.772 C456.785,197.104 456.678,197.387 456.561,197.622 C456.404,197.895 456.268,198.149 456.15,198.384 L460.546,200.142 C460.624,199.869 460.722,199.556 460.839,199.204 C460.918,198.892 460.986,198.54 461.045,198.149 C461.103,197.758 461.132,197.348 461.132,196.918 C461.132,195.668 460.722,194.593 459.902,193.695 C459.081,192.796 458.163,192.034 457.147,191.409 C455.974,190.705 454.665,190.1 453.22,189.592 L460.253,189.592 L460.253,181.386 L459.667,181.386 L458.788,184.903 L434.757,184.903 L433.877,181.386 L433.291,181.386 L433.291,193.109 L433.877,193.109 L434.757,189.592 L451.754,189.592 Z M446.772,224.173 C449.117,224.173 451.188,223.88 452.985,223.294 C454.783,222.708 456.277,221.936 457.469,220.979 C458.661,220.022 459.569,218.908 460.195,217.638 C460.82,216.368 461.132,215.03 461.132,213.623 C461.132,212.216 460.82,210.878 460.195,209.608 C459.569,208.338 458.661,207.225 457.469,206.267 C456.277,205.31 454.783,204.538 452.985,203.952 C451.188,203.366 449.117,203.073 446.772,203.073 C444.506,203.073 442.484,203.376 440.706,203.981 C438.928,204.587 437.423,205.408 436.193,206.443 C434.962,207.479 434.024,208.661 433.379,209.989 C432.734,211.318 432.412,212.724 432.412,214.209 C432.412,215.46 432.637,216.622 433.086,217.697 C433.535,218.771 434.151,219.719 434.932,220.539 C435.714,221.36 436.642,222.034 437.717,222.562 C438.791,223.089 439.954,223.431 441.204,223.587 L441.204,222.708 C440.11,222.552 439.094,222.249 438.156,221.8 C437.218,221.35 436.417,220.774 435.753,220.071 C435.089,219.367 434.561,218.566 434.17,217.667 C433.78,216.769 433.584,215.811 433.584,214.795 C433.584,213.975 433.799,213.184 434.229,212.422 C434.659,211.66 435.392,210.976 436.427,210.37 C437.463,209.764 438.82,209.276 440.501,208.905 C442.181,208.534 444.271,208.348 446.772,208.348 L446.772,224.173 Z M460.253,213.623 C460.253,214.209 460.068,214.795 459.696,215.382 C459.325,215.968 458.671,216.515 457.733,217.023 C456.795,217.531 455.535,217.951 453.952,218.283 C452.37,218.615 450.367,218.82 447.944,218.898 L447.944,208.348 C450.367,208.426 452.37,208.631 453.952,208.963 C455.535,209.296 456.795,209.716 457.733,210.224 C458.671,210.732 459.325,211.279 459.696,211.865 C460.068,212.451 460.253,213.037 460.253,213.623 Z M432.412,239.12 C432.412,240.448 432.627,241.669 433.057,242.783 C433.487,243.897 434.063,244.854 434.786,245.655 C435.509,246.456 436.329,247.081 437.248,247.531 C438.166,247.98 439.094,248.205 440.032,248.205 C441.634,248.205 443.001,247.834 444.135,247.091 C445.268,246.349 446.245,245.43 447.065,244.336 C447.886,243.242 448.609,242.041 449.234,240.732 C449.859,239.423 450.475,238.221 451.08,237.127 C451.686,236.033 452.34,235.115 453.044,234.372 C453.747,233.63 454.587,233.259 455.564,233.259 C456.736,233.259 457.762,233.708 458.641,234.607 C459.521,235.505 459.96,236.619 459.96,237.948 C459.96,239.589 459.198,241.132 457.674,242.578 C456.15,244.024 453.982,245.118 451.168,245.86 L451.168,246.74 C451.676,246.661 452.204,246.603 452.751,246.564 C453.22,246.525 453.757,246.495 454.363,246.476 C454.968,246.456 455.564,246.446 456.15,246.446 C456.658,246.446 457.186,246.456 457.733,246.476 C458.28,246.495 458.788,246.525 459.257,246.564 C459.804,246.603 460.331,246.661 460.839,246.74 L460.839,245.86 C460.683,245.43 460.351,244.971 459.843,244.483 C459.335,243.994 458.788,243.672 458.202,243.516 C458.749,243.086 459.237,242.578 459.667,241.992 C460.019,241.445 460.351,240.79 460.664,240.028 C460.976,239.266 461.132,238.377 461.132,237.361 C461.132,236.189 460.947,235.115 460.576,234.138 C460.204,233.161 459.706,232.33 459.081,231.647 C458.456,230.963 457.733,230.426 456.912,230.035 C456.092,229.644 455.252,229.449 454.392,229.449 C452.868,229.449 451.579,229.81 450.523,230.533 C449.468,231.256 448.55,232.164 447.769,233.259 C446.987,234.353 446.284,235.525 445.659,236.775 C445.033,238.026 444.398,239.198 443.754,240.292 C443.109,241.386 442.396,242.295 441.614,243.018 C440.833,243.74 439.915,244.102 438.859,244.102 C437.375,244.102 436.124,243.584 435.108,242.549 C434.092,241.513 433.584,240.175 433.584,238.534 C433.584,236.463 434.346,234.665 435.87,233.141 C437.394,231.617 439.563,230.484 442.376,229.742 L442.376,228.863 C441.829,228.902 441.282,228.941 440.735,228.98 C440.266,229.019 439.739,229.058 439.153,229.097 C438.566,229.136 437.98,229.156 437.394,229.156 C436.847,229.156 436.31,229.136 435.782,229.097 C435.255,229.058 434.757,229.019 434.288,228.98 C433.741,228.941 433.213,228.902 432.705,228.863 L432.705,229.742 C432.861,230.172 433.194,230.631 433.702,231.119 C434.209,231.608 434.757,231.93 435.343,232.086 C434.796,232.516 434.307,233.063 433.877,233.727 C433.487,234.274 433.145,234.997 432.852,235.896 C432.559,236.795 432.412,237.869 432.412,239.12 Z M432.412,262.858 C432.412,264.187 432.627,265.408 433.057,266.521 C433.487,267.635 434.063,268.592 434.786,269.393 C435.509,270.195 436.329,270.82 437.248,271.269 C438.166,271.718 439.094,271.943 440.032,271.943 C441.634,271.943 443.001,271.572 444.135,270.83 C445.268,270.087 446.245,269.169 447.065,268.075 C447.886,266.981 448.609,265.779 449.234,264.47 C449.859,263.161 450.475,261.959 451.08,260.865 C451.686,259.771 452.34,258.853 453.044,258.11 C453.747,257.368 454.587,256.997 455.564,256.997 C456.736,256.997 457.762,257.446 458.641,258.345 C459.521,259.244 459.96,260.357 459.96,261.686 C459.96,263.327 459.198,264.871 457.674,266.316 C456.15,267.762 453.982,268.856 451.168,269.599 L451.168,270.478 C451.676,270.4 452.204,270.341 452.751,270.302 C453.22,270.263 453.757,270.234 454.363,270.214 C454.968,270.195 455.564,270.185 456.15,270.185 C456.658,270.185 457.186,270.195 457.733,270.214 C458.28,270.234 458.788,270.263 459.257,270.302 C459.804,270.341 460.331,270.4 460.839,270.478 L460.839,269.599 C460.683,269.169 460.351,268.71 459.843,268.221 C459.335,267.733 458.788,267.41 458.202,267.254 C458.749,266.824 459.237,266.316 459.667,265.73 C460.019,265.183 460.351,264.529 460.664,263.767 C460.976,263.005 461.132,262.116 461.132,261.1 C461.132,259.927 460.947,258.853 460.576,257.876 C460.204,256.899 459.706,256.069 459.081,255.385 C458.456,254.701 457.733,254.164 456.912,253.773 C456.092,253.382 455.252,253.187 454.392,253.187 C452.868,253.187 451.579,253.548 450.523,254.271 C449.468,254.994 448.55,255.903 447.769,256.997 C446.987,258.091 446.284,259.263 445.659,260.514 C445.033,261.764 444.398,262.936 443.754,264.03 C443.109,265.125 442.396,266.033 441.614,266.756 C440.833,267.479 439.915,267.84 438.859,267.84 C437.375,267.84 436.124,267.322 435.108,266.287 C434.092,265.251 433.584,263.913 433.584,262.272 C433.584,260.201 434.346,258.404 435.87,256.88 C437.394,255.356 439.563,254.222 442.376,253.48 L442.376,252.601 C441.829,252.64 441.282,252.679 440.735,252.718 C440.266,252.757 439.739,252.796 439.153,252.835 C438.566,252.874 437.98,252.894 437.394,252.894 C436.847,252.894 436.31,252.874 435.782,252.835 C435.255,252.796 434.757,252.757 434.288,252.718 C433.741,252.679 433.213,252.64 432.705,252.601 L432.705,253.48 C432.861,253.91 433.194,254.369 433.702,254.857 C434.209,255.346 434.757,255.668 435.343,255.825 C434.796,256.254 434.307,256.801 433.877,257.466 C433.487,258.013 433.145,258.736 432.852,259.634 C432.559,260.533 432.412,261.608 432.412,262.858 Z " fill="#3a8686" fill-opacity="1.00" />		</g>	</svg>